<?xml version="1.0" encoding="UTF-8" standalone="no"?>
<!DOCTYPE svg PUBLIC "-//W3C//DTD SVG 1.1//EN" "http://www.w3.org/Graphics/SVG/1.1/DTD/svg11.dtd">
<svg xmlns="http://www.w3.org/2000/svg" version="1.1" viewBox="0 0 1000 166">
<path fill="rgb(61,36,57)" fill-opacity="0.000" d="M 0.00 0.00 Q 500.00 0.00 1000.00 0.00 Q 1000.00 83.00 1000.00 166.00 Q 500.00 166.00 0.00 166.00 Q 0.00 83.00 0.00 0.00 Z M 511.70 28.44 Q 517.11 29.46 521.02 25.96 Q 523.12 24.09 523.10 21.80 Q 523.07 18.72 519.49 17.63 A 1.28 1.20 -49.8 0 0 518.55 17.74 Q 514.73 19.83 512.69 22.94 Q 511.09 25.37 509.50 23.76 Q 508.57 22.82 508.10 22.77 Q 506.88 22.63 507.05 24.99 A 3.55 3.50 -69.7 0 0 508.04 27.18 Q 509.30 28.46 510.04 30.83 A 1.00 0.52 77.6 0 0 510.63 31.53 Q 511.38 31.63 511.08 29.01 A 0.52 0.52 -87.6 0 1 511.70 28.44 Z M 302.56 20.69 Q 301.13 18.90 299.36 19.07 Q 298.18 19.18 296.59 20.62 Q 294.19 22.79 292.29 25.30 A 1.29 1.29 -46.9 0 1 290.29 25.37 Q 288.26 23.05 287.53 25.15 A 3.21 2.35 45.5 0 0 287.87 27.51 L 290.64 32.47 A 0.65 0.43 61.8 0 0 291.30 32.83 Q 292.12 32.44 291.42 30.61 Q 290.91 29.29 292.30 29.54 Q 298.57 30.65 302.53 26.05 Q 304.77 23.44 302.56 20.69 Z M 424.44 24.19 Q 423.42 26.20 421.55 26.02 A 1.30 0.92 67.1 0 1 420.76 25.53 Q 418.22 22.31 418.01 27.00 A 1.35 1.16 28.6 0 0 418.34 27.88 Q 420.14 29.90 421.21 32.37 Q 422.31 34.89 422.23 30.96 A 0.90 0.89 -84.9 0 1 423.30 30.06 Q 428.27 31.04 432.01 28.03 Q 433.84 26.56 434.22 24.89 Q 434.72 22.72 432.93 20.81 Q 430.26 17.95 427.45 20.70 Q 424.98 23.12 424.44 24.19 Z M 242.44 117.06 Q 247.53 124.24 255.48 125.33 Q 257.23 125.57 259.02 125.29 Q 261.31 124.94 262.44 124.19 Q 273.32 116.96 277.11 104.47 A 0.77 0.74 4.5 0 1 277.75 103.95 Q 281.21 103.50 282.69 101.19 Q 286.50 95.22 285.31 86.99 Q 283.66 75.60 280.81 64.44 Q 279.29 58.44 277.14 44.31 A 1.92 0.88 -55.9 0 1 277.30 43.36 L 280.19 35.97 A 1.33 1.20 18.4 0 0 279.27 34.34 Q 275.36 33.21 274.69 29.31 Q 274.45 27.93 273.69 29.19 Q 270.95 33.73 272.00 39.00 Q 273.78 49.43 275.84 59.80 Q 275.84 59.82 278.87 73.66 Q 280.96 83.19 282.36 93.28 Q 282.68 95.59 280.39 96.02 Q 276.86 96.69 273.52 95.27 A 0.50 0.48 22.2 0 0 272.87 95.53 Q 271.80 98.29 271.50 101.25 Q 270.50 103.45 272.76 104.00 A 0.89 0.88 23.1 0 1 273.30 105.33 Q 268.21 113.42 259.91 117.25 Q 254.57 119.73 250.28 118.90 Q 244.88 117.85 241.81 112.44 Q 240.96 110.94 239.30 105.91 Q 239.17 105.50 238.90 105.31 Q 238.49 105.01 238.13 105.18 A 0.86 0.59 76.9 0 0 237.81 106.00 Q 238.52 111.54 242.44 117.06 Z M 376.69 122.06 Q 382.86 127.78 390.00 126.25 Q 393.97 125.40 397.36 122.16 Q 400.00 119.63 402.66 115.86 Q 405.69 111.58 407.49 106.00 A 1.59 1.58 4.5 0 1 408.76 104.92 Q 411.01 104.57 412.65 102.88 Q 413.86 101.63 414.74 99.22 Q 416.73 93.79 416.00 88.75 Q 414.65 79.48 414.00 76.75 Q 410.34 61.48 407.75 46.00 Q 407.71 45.79 408.56 43.31 L 410.88 36.54 A 0.57 0.54 18.6 0 0 410.51 35.84 Q 406.84 34.62 404.84 30.39 Q 404.55 29.76 404.18 30.36 Q 401.34 35.08 402.75 41.00 Q 406.87 64.10 412.00 87.00 Q 412.91 91.07 412.60 95.82 A 0.85 0.82 80.7 0 1 412.12 96.52 Q 408.28 98.22 404.42 96.30 A 0.83 0.83 -70.6 0 0 403.24 96.87 Q 402.69 99.42 401.97 102.18 Q 401.69 103.25 401.88 103.83 Q 402.20 104.78 403.28 105.03 A 0.85 0.85 22.1 0 1 403.82 106.30 Q 398.33 115.29 388.85 118.97 Q 385.36 120.32 382.50 120.12 Q 378.98 119.86 376.19 117.86 Q 373.84 116.17 372.16 112.92 Q 370.67 110.04 369.94 106.81 Q 368.97 105.23 368.60 106.53 Q 368.49 106.93 368.56 107.47 Q 369.69 115.57 376.69 122.06 Z M 491.32 31.55 Q 491.95 29.90 490.45 30.84 Q 483.36 35.32 474.89 38.53 Q 465.59 42.06 465.19 42.44 Q 464.03 43.55 465.69 43.44 Q 471.40 43.05 483.04 39.36 Q 489.04 37.46 491.32 31.55 Z M 517.31 32.55 Q 516.60 34.49 516.02 36.66 Q 515.48 38.68 515.65 40.90 Q 516.33 49.53 518.25 58.00 Q 520.04 67.33 521.93 76.63 Q 522.78 80.81 523.13 84.04 Q 523.53 87.76 523.75 91.50 Q 523.90 94.08 524.94 91.69 Q 526.84 87.30 526.25 82.50 Q 526.17 76.45 525.00 70.50 Q 522.78 57.95 520.50 45.41 Q 519.35 39.12 518.75 32.73 Q 518.44 29.45 517.31 32.55 Z M 297.29 34.72 Q 296.18 37.10 295.64 39.52 Q 295.19 41.58 295.53 44.50 Q 296.74 54.98 298.87 65.33 Q 300.91 75.27 302.75 85.25 Q 304.30 92.17 304.50 99.25 Q 305.20 102.84 306.44 99.64 Q 306.69 98.99 306.78 98.20 Q 307.93 88.41 305.75 78.75 Q 303.48 65.18 300.88 51.68 Q 299.21 43.03 298.56 34.95 Q 298.35 32.45 297.29 34.72 Z M 427.95 35.16 Q 425.31 40.72 426.29 46.63 Q 426.98 50.82 426.99 50.91 Q 427.67 56.76 428.50 60.50 Q 432.96 80.62 435.62 101.06 A 0.62 0.47 82.0 0 0 436.18 101.62 Q 436.71 101.53 436.94 100.69 Q 438.21 96.01 438.00 91.75 Q 437.82 87.95 436.50 79.25 Q 433.17 61.26 430.21 43.22 Q 429.49 38.85 429.15 35.37 Q 428.93 33.09 427.95 35.16 Z M 312.21 54.20 Q 311.00 56.04 310.01 57.98 Q 308.98 60.02 311.00 58.97 Q 330.67 48.84 351.28 41.68 Q 353.98 40.74 355.16 39.45 Q 356.75 37.71 357.33 35.29 Q 357.45 34.81 356.97 34.96 Q 336.22 41.37 316.53 50.49 Q 313.83 51.73 312.21 54.20 Z M 397.08 51.89 Q 398.82 49.82 399.50 47.99 Q 400.13 46.32 398.69 47.37 Q 395.39 49.76 391.25 51.25 Q 390.83 51.40 379.50 56.15 Q 379.23 56.26 379.04 56.42 Q 378.16 57.19 379.47 57.03 Q 387.69 56.07 395.00 53.35 Q 396.23 52.89 397.08 51.89 Z M 363.70 55.15 Q 362.09 57.21 359.81 58.56 Q 357.81 60.45 360.56 59.81 Q 363.65 59.09 365.67 56.67 Q 368.38 53.44 370.25 49.12 A 0.63 0.61 13.7 0 0 369.71 48.27 L 360.11 47.51 A 2.33 2.13 17.9 0 0 358.05 48.45 Q 356.09 51.39 355.41 54.45 Q 355.31 54.93 355.76 54.72 Q 359.60 52.95 363.54 54.55 A 0.39 0.39 -60.3 0 1 363.70 55.15 Z M 483.22 52.20 L 482.97 50.05 A 0.95 0.62 -89.7 0 0 482.50 49.32 Q 481.78 49.06 481.68 50.34 Q 481.58 51.51 481.07 52.57 Q 479.65 55.56 477.18 55.17 A 0.77 0.75 88.2 0 1 476.56 54.57 Q 476.30 53.33 476.64 52.11 Q 476.76 51.68 476.66 51.39 Q 476.38 50.55 475.75 51.25 Q 474.61 52.52 474.22 55.00 Q 473.94 56.79 474.54 57.80 Q 475.44 59.31 477.71 58.81 Q 479.81 58.35 481.23 56.64 A 1.00 0.99 -57.6 0 1 482.41 56.37 Q 484.63 57.39 486.09 55.83 Q 489.04 52.66 487.84 48.54 A 0.95 0.76 84.7 0 0 487.21 47.89 Q 486.31 47.72 486.48 49.25 Q 486.93 53.07 483.81 52.76 A 0.66 0.65 -1.1 0 1 483.22 52.20 Z M 264.45 55.72 Q 266.59 53.41 267.21 51.38 Q 267.78 49.52 266.32 50.80 Q 264.25 52.63 261.69 53.69 Q 254.54 56.64 247.42 59.66 Q 247.02 59.83 246.79 60.08 Q 245.95 61.03 247.75 60.74 Q 255.40 59.54 262.53 56.99 Q 263.64 56.59 264.45 55.72 Z M 389.39 67.30 Q 390.40 65.92 392.08 66.24 Q 394.64 66.73 395.90 64.88 Q 397.63 62.34 397.28 59.38 Q 397.00 56.91 396.13 58.44 Q 395.68 59.23 395.27 61.35 A 1.52 1.50 86.4 0 1 394.28 62.49 Q 392.27 63.18 392.38 61.21 Q 392.42 60.48 392.36 60.16 Q 392.01 58.34 391.02 60.00 Q 390.79 60.40 390.71 61.06 Q 390.54 62.63 389.62 63.78 Q 388.74 64.87 387.41 64.94 Q 385.24 65.05 386.08 62.04 Q 386.20 61.62 386.09 61.33 Q 385.77 60.51 385.10 61.37 Q 382.82 64.31 384.23 67.61 A 1.40 1.32 -89.5 0 0 384.87 68.30 Q 387.62 69.71 389.39 67.30 Z M 334.22 59.33 Q 333.42 61.76 333.85 64.02 Q 334.05 65.05 335.75 68.14 Q 338.86 73.77 339.25 80.75 Q 339.30 81.58 339.94 81.69 A 0.69 0.57 -75.0 0 0 340.61 81.21 Q 341.79 77.88 341.39 74.32 Q 340.45 65.75 335.84 59.09 Q 334.80 57.59 334.22 59.33 Z M 253.93 68.37 Q 253.13 67.52 253.79 66.27 Q 254.36 65.17 253.77 64.76 A 0.68 0.56 -49.9 0 0 252.96 64.91 Q 251.63 66.38 251.50 68.75 Q 251.28 72.85 255.19 72.19 Q 256.40 71.98 258.40 69.87 A 0.73 0.72 33.1 0 1 259.20 69.71 Q 261.55 70.67 263.24 68.74 Q 265.97 65.62 264.61 61.78 A 0.63 0.52 72.6 0 0 263.95 61.35 Q 263.17 61.55 263.43 62.77 Q 263.91 64.98 261.66 66.30 A 0.85 0.85 72.0 0 1 260.39 65.65 Q 260.06 62.32 259.09 63.13 A 1.33 0.79 81.9 0 0 258.73 64.00 Q 258.46 67.96 254.81 68.62 A 1.07 0.88 -23.5 0 1 253.93 68.37 Z M 878.04 74.70 Q 877.23 75.47 878.33 75.41 Q 881.11 75.28 883.43 72.93 Q 887.04 69.28 888.98 64.56 A 0.54 0.54 13.7 0 0 888.53 63.82 Q 884.91 63.48 881.84 63.31 Q 881.76 63.30 879.69 63.01 Q 877.01 62.63 875.99 65.04 Q 875.26 66.75 875.26 66.76 Q 874.31 68.56 874.31 68.56 Q 872.91 71.59 875.32 69.92 Q 875.87 69.54 876.40 69.46 Q 879.47 69.01 882.46 69.91 A 0.31 0.30 31.2 0 1 882.59 70.42 L 878.04 74.70 Z M 466.24 100.56 Q 467.26 109.71 476.75 108.79 Q 485.27 107.96 487.19 100.28 Q 487.53 98.96 488.00 100.24 Q 489.95 105.55 495.37 106.98 Q 501.77 108.66 504.64 102.91 Q 506.68 98.82 506.50 95.25 Q 506.24 90.11 503.94 83.56 Q 500.59 74.00 498.06 64.17 Q 497.52 62.09 496.88 64.14 Q 494.79 70.76 497.17 77.90 Q 500.30 87.34 503.53 96.84 Q 504.24 98.91 502.06 99.21 Q 494.62 100.22 491.21 94.11 Q 489.66 91.32 489.07 88.19 Q 486.96 77.06 485.70 65.81 Q 485.58 64.79 485.02 64.86 A 1.05 0.62 -78.0 0 0 484.39 65.54 Q 482.67 70.38 483.25 75.50 Q 484.93 84.82 485.61 94.26 Q 485.91 98.43 481.75 99.75 Q 478.81 100.68 476.13 100.67 Q 473.57 100.65 472.12 99.49 Q 470.31 98.02 470.25 95.25 Q 470.25 95.25 470.20 80.25 Q 470.19 77.87 469.12 79.16 Q 468.83 79.50 468.67 80.06 Q 467.84 83.00 466.65 86.89 A 1.99 1.97 86.4 0 1 465.58 88.12 Q 459.71 90.80 453.91 91.92 Q 452.16 92.26 451.43 93.82 L 447.90 101.38 A 0.80 0.79 19.0 0 0 448.45 102.49 Q 452.44 103.40 456.46 103.90 Q 460.73 104.44 461.67 104.33 Q 464.81 103.95 466.03 100.54 Q 466.18 100.11 466.24 100.56 Z M 153.36 119.55 Q 161.47 131.11 174.31 136.19 Q 188.03 141.62 203.72 144.21 Q 226.95 148.04 250.50 147.25 Q 276.45 146.38 303.18 136.92 Q 314.50 132.92 324.37 126.08 Q 330.82 121.62 333.69 117.69 Q 336.23 114.20 337.00 108.55 A 0.56 0.54 4.0 0 1 337.56 108.08 Q 346.42 108.19 350.52 99.90 A 0.53 0.53 24.3 0 1 351.21 99.64 Q 356.64 102.04 363.18 102.00 A 2.40 2.39 21.1 0 0 364.91 101.24 Q 368.45 97.43 366.31 93.13 Q 365.30 91.10 364.40 89.82 A 0.84 0.84 68.9 0 1 364.98 88.50 Q 380.52 86.62 396.01 91.15 A 1.24 1.17 23.6 0 0 397.38 90.66 L 399.51 87.23 A 0.64 0.62 21.4 0 0 399.08 86.29 Q 386.62 83.87 375.68 77.25 Q 369.73 73.65 364.03 69.87 Q 362.32 68.74 360.58 69.80 Q 356.19 72.47 354.22 77.10 Q 353.53 78.74 355.24 78.25 Q 360.16 76.85 364.89 78.75 Q 369.31 80.53 373.81 82.82 Q 376.28 84.07 373.53 83.74 Q 365.39 82.78 358.11 85.20 Q 355.52 86.07 353.98 87.68 Q 352.24 89.50 351.25 91.87 Q 351.24 91.90 350.56 94.31 Q 349.60 97.73 345.81 99.31 Q 337.96 102.60 334.12 95.07 Q 333.21 93.28 332.66 95.13 L 330.77 101.41 A 1.97 1.59 40.6 0 0 331.05 102.93 Q 333.58 106.72 334.02 111.43 A 2.48 2.48 -22.8 0 1 333.16 113.53 Q 324.20 121.22 313.91 125.63 Q 284.06 138.44 251.50 139.34 Q 223.26 140.12 195.66 134.20 Q 182.96 131.48 170.95 126.52 Q 161.33 122.55 153.30 115.92 Q 152.16 114.98 151.30 114.69 Q 149.47 114.06 150.48 115.72 Q 151.15 116.82 151.87 117.68 Q 153.00 119.03 153.36 119.55 Z M 900.29 99.70 Q 900.20 97.97 900.22 96.25 Q 900.24 94.15 899.06 94.92 Q 898.59 95.22 898.35 95.91 Q 897.17 99.38 896.72 103.22 A 0.66 0.63 -83.5 0 1 896.01 103.81 L 887.63 102.71 A 1.12 0.95 -84.0 0 1 886.82 101.53 L 887.25 96.75 Q 887.46 94.45 886.06 96.56 Q 884.38 99.11 883.29 103.03 A 2.52 2.51 3.8 0 1 881.19 104.86 Q 876.15 105.54 869.17 105.20 A 0.96 0.96 16.6 0 1 868.39 103.76 Q 869.13 102.52 869.18 101.03 Q 869.21 100.21 868.50 100.62 Q 862.65 103.96 856.73 105.43 Q 842.03 109.08 826.98 110.87 Q 786.98 115.61 746.74 117.36 Q 740.54 117.63 726.76 118.18 Q 677.36 120.16 630.75 118.75 Q 592.93 117.60 553.83 111.26 Q 550.50 110.72 547.71 109.99 Q 544.68 109.20 541.69 108.29 Q 532.97 105.63 526.99 99.26 A 1.19 1.19 49.3 0 0 525.38 99.14 Q 521.35 102.38 519.58 106.97 Q 518.56 109.60 518.23 110.88 Q 517.67 113.12 518.30 115.12 A 1.50 1.50 65.6 0 1 517.65 116.85 Q 508.45 122.51 499.47 127.82 Q 499.00 128.10 498.73 128.38 Q 497.64 129.49 499.19 129.47 Q 499.61 129.46 500.18 129.29 Q 509.87 126.38 516.44 122.19 Q 518.96 120.58 520.78 116.94 A 0.58 0.57 22.4 0 1 521.48 116.66 Q 527.48 118.70 533.75 119.75 Q 536.38 120.80 537.56 116.99 A 1.64 1.64 -71.4 0 1 539.69 115.93 Q 543.19 117.20 548.04 118.32 Q 564.84 122.20 582.02 123.80 Q 617.82 127.12 653.75 127.27 Q 659.80 127.29 673.75 127.26 Q 730.11 127.11 786.28 122.59 Q 796.61 121.76 806.18 120.64 Q 826.82 118.22 838.00 116.00 Q 848.87 113.84 860.51 110.46 A 5.08 5.04 45.2 0 1 863.43 110.48 Q 867.93 111.86 872.54 112.31 Q 876.94 112.74 878.45 112.49 Q 881.73 111.97 883.64 108.93 A 0.67 0.66 28.3 0 1 884.49 108.68 Q 889.20 110.84 894.61 111.33 A 2.34 1.91 15.0 0 0 896.74 110.37 L 899.06 106.22 A 0.56 0.47 -62.9 0 1 899.70 105.95 Q 905.31 108.44 911.44 108.44 A 1.21 1.19 22.2 0 0 912.29 108.09 Q 918.72 101.66 915.56 92.69 Q 912.21 83.21 908.31 73.93 Q 907.33 71.59 906.88 74.09 Q 906.52 76.07 906.23 78.59 Q 905.98 80.70 906.83 82.77 Q 910.18 90.99 913.23 99.43 A 1.32 1.32 -11.9 0 1 912.08 101.19 Q 905.96 101.61 900.80 100.31 A 0.67 0.65 5.9 0 1 900.29 99.70 Z M 327.9943 79.4924 A 0.44 0.44 0 0 0 327.9131 78.8755 L 322.6770 74.8577 A 0.44 0.44 0 0 0 322.0601 74.9389 L 317.7257 80.5876 A 0.44 0.44 0 0 0 317.8069 81.2045 L 323.0430 85.2223 A 0.44 0.44 0 0 0 323.6599 85.1411 L 327.9943 79.4924 Z M 210.22 93.23 A 1.00 0.99 -70.9 0 1 209.66 92.07 Q 210.32 89.47 209.90 88.76 A 0.60 0.39 -38.8 0 0 209.13 88.84 Q 204.83 92.75 199.69 94.19 Q 172.28 101.83 143.25 98.26 Q 135.06 97.25 127.32 94.41 Q 118.77 91.27 112.58 84.61 A 0.58 0.57 -39.3 0 0 111.83 84.54 Q 104.26 89.99 103.96 100.97 A 2.05 2.05 -14.8 0 1 102.97 102.67 Q 94.23 107.94 85.19 113.34 Q 84.72 113.62 84.49 113.89 Q 83.82 114.66 84.76 114.91 Q 85.17 115.03 85.73 114.85 Q 94.03 112.34 101.49 107.94 Q 104.84 105.98 106.43 102.46 A 0.61 0.60 21.2 0 1 107.18 102.14 Q 114.27 104.56 121.18 105.61 A 1.03 0.90 23.3 0 0 122.05 105.33 Q 123.11 104.20 123.49 102.45 A 1.20 1.19 18.0 0 1 125.14 101.61 Q 132.96 105.07 141.25 106.25 Q 169.76 110.29 197.25 102.00 Q 201.74 100.65 205.86 97.32 A 0.58 0.57 -42.9 0 1 206.61 97.34 Q 213.23 103.37 221.44 101.80 Q 221.90 101.71 229.70 99.27 Q 237.59 96.81 237.94 96.69 Q 249.90 92.49 262.60 94.26 A 1.33 1.23 -74.9 0 0 263.95 93.41 L 265.66 88.95 A 0.65 0.62 -78.0 0 0 265.12 88.08 Q 242.65 86.99 223.94 77.81 Q 221.63 76.68 219.68 77.05 Q 218.20 77.34 216.39 79.29 Q 214.23 81.61 212.49 84.07 Q 210.70 86.58 213.73 86.00 Q 219.28 84.94 224.79 86.07 Q 232.52 87.64 240.02 90.09 Q 240.50 90.25 240.02 90.42 Q 231.05 93.54 221.64 94.69 Q 218.32 95.10 215.86 94.77 Q 212.79 94.35 210.22 93.23 Z M 227.54 112.18 Q 229.78 109.65 230.57 107.55 Q 231.31 105.57 229.66 106.88 Q 227.92 108.27 225.42 109.40 Q 215.69 113.81 205.81 117.86 Q 205.24 118.09 205.01 118.50 Q 204.37 119.63 206.35 119.27 Q 216.05 117.51 224.54 114.27 Q 226.30 113.60 227.54 112.18 Z M 111.42 115.50 Q 113.60 113.09 114.25 110.49 Q 114.50 109.49 113.65 110.07 Q 107.47 114.25 100.38 116.99 Q 89.40 121.23 89.31 121.31 Q 87.34 123.01 90.06 122.56 Q 99.57 121.01 108.21 117.70 Q 110.07 116.98 111.42 115.50 Z M 185.88 115.00 L 181.59 111.35 A 0.51 0.49 -52.1 0 0 180.86 111.45 L 177.01 116.82 A 0.62 0.59 -51.8 0 0 177.08 117.63 L 181.76 121.66 A 0.57 0.50 -49.5 0 0 182.51 121.55 L 185.93 117.39 A 0.52 0.52 38.6 0 1 186.65 117.31 L 191.35 120.94 A 0.57 0.49 37.7 0 0 192.10 120.90 L 196.26 115.43 A 0.59 0.53 38.3 0 0 196.13 114.66 L 191.49 110.92 A 0.71 0.69 38.0 0 0 190.49 111.03 L 187.69 114.77 A 1.27 1.23 -51.4 0 1 185.88 115.00 Z M 435.03 123.47 Q 434.63 124.46 435.69 124.30 Q 445.11 122.83 453.81 119.80 Q 459.84 117.70 461.49 111.55 Q 461.72 110.68 461.01 111.24 Q 457.50 114.01 453.31 115.56 Q 444.86 119.35 436.17 122.54 Q 435.25 122.88 435.03 123.47 Z M 917.7849 119.2431 A 0.27 0.27 0 0 0 917.7370 118.8642 L 912.2217 114.5861 A 0.27 0.27 0 0 0 911.8429 114.6340 L 907.2951 120.4969 A 0.27 0.27 0 0 0 907.3430 120.8758 L 912.8583 125.1539 A 0.27 0.27 0 0 0 913.2371 125.1060 L 917.7849 119.2431 Z M 918.20 131.41 Q 920.89 128.78 921.76 125.98 Q 922.22 124.50 920.99 125.45 Q 917.74 127.99 913.56 129.56 Q 905.57 133.10 897.44 136.33 Q 896.93 136.53 896.61 136.75 Q 895.13 137.76 896.93 137.91 Q 897.37 137.95 897.93 137.85 Q 907.41 136.12 915.86 132.91 Q 917.19 132.40 918.20 131.41 Z M 531.83 130.33 Q 533.24 128.59 534.00 126.50 Q 534.69 124.60 533.00 126.00 Q 530.80 127.81 528.19 128.94 Q 518.59 133.10 508.95 137.15 Q 508.49 137.34 508.28 137.63 Q 507.69 138.45 509.49 138.19 Q 515.94 137.25 522.15 135.34 Q 527.24 133.78 527.38 133.72 Q 529.98 132.62 531.83 130.33 Z M 334.71 135.68 Q 336.05 133.88 336.75 131.74 Q 337.28 130.14 335.92 131.13 Q 332.61 133.55 328.50 135.26 Q 320.12 138.74 311.69 142.09 Q 310.34 142.62 311.08 143.23 A 1.30 0.90 -22.5 0 0 311.99 143.43 Q 321.45 141.97 330.47 138.78 Q 333.08 137.86 334.71 135.68 Z"/>
<path fill="rgb(255,255,255)" fill-opacity="1.000" d="M 519.49 17.63 Q 523.07 18.72 523.10 21.80 Q 523.12 24.09 521.02 25.96 Q 517.11 29.46 511.70 28.44 A 0.52 0.52 -87.6 0 0 511.08 29.01 Q 511.38 31.63 510.63 31.53 A 1.00 0.52 77.6 0 1 510.04 30.83 Q 509.30 28.46 508.04 27.18 A 3.55 3.50 -69.7 0 1 507.05 24.99 Q 506.88 22.63 508.10 22.77 Q 508.57 22.82 509.50 23.76 Q 511.09 25.37 512.69 22.94 Q 514.73 19.83 518.55 17.74 A 1.28 1.20 -49.8 0 1 519.49 17.63 Z M 514.82 23.69 Q 513.59 25.41 515.64 24.90 Q 517.13 24.53 518.92 23.81 Q 521.43 22.79 519.74 21.66 Q 519.00 21.17 518.16 21.32 Q 516.27 21.68 514.82 23.69 Z"/>
<path fill="rgb(255,255,255)" fill-opacity="1.000" d="M 302.56 20.69 Q 304.77 23.44 302.53 26.05 Q 298.57 30.65 292.30 29.54 Q 290.91 29.29 291.42 30.61 Q 292.12 32.44 291.30 32.83 A 0.65 0.43 61.8 0 1 290.64 32.47 L 287.87 27.51 A 3.21 2.35 45.5 0 1 287.53 25.15 Q 288.26 23.05 290.29 25.37 A 1.29 1.29 -46.9 0 0 292.29 25.30 Q 294.19 22.79 296.59 20.62 Q 298.18 19.18 299.36 19.07 Q 301.13 18.90 302.56 20.69 Z M 300.80 23.82 Q 300.68 22.37 299.25 22.50 Q 296.74 22.73 294.76 25.62 Q 294.46 26.05 294.98 26.03 Q 298.52 25.94 300.42 24.61 A 0.87 0.84 -20.3 0 0 300.80 23.82 Z"/>
<path fill="rgb(255,255,255)" fill-opacity="1.000" d="M 432.93 20.81 Q 434.72 22.72 434.22 24.89 Q 433.84 26.56 432.01 28.03 Q 428.27 31.04 423.30 30.06 A 0.90 0.89 -84.9 0 0 422.23 30.96 Q 422.31 34.89 421.21 32.37 Q 420.14 29.90 418.34 27.88 A 1.35 1.16 28.6 0 1 418.01 27.00 Q 418.22 22.31 420.76 25.53 A 1.30 0.92 67.1 0 0 421.55 26.02 Q 423.42 26.20 424.44 24.19 Q 424.98 23.12 427.45 20.70 Q 430.26 17.95 432.93 20.81 Z M 430.83 23.45 Q 428.72 22.48 427.26 24.01 Q 426.93 24.36 426.26 25.00 Q 425.71 25.51 425.45 26.21 A 0.36 0.34 8.1 0 0 425.81 26.67 Q 428.88 26.52 430.91 25.37 Q 432.76 24.33 430.83 23.45 Z"/>
<path fill="rgb(61,36,57)" fill-opacity="0.000" d="M 519.74 21.66 Q 521.43 22.79 518.92 23.81 Q 517.13 24.53 515.64 24.90 Q 513.59 25.41 514.82 23.69 Q 516.27 21.68 518.16 21.32 Q 519.00 21.17 519.74 21.66 Z"/>
<path fill="rgb(61,36,57)" fill-opacity="0.000" d="M 299.25 22.50 Q 300.68 22.37 300.80 23.82 A 0.87 0.84 -20.3 0 1 300.42 24.61 Q 298.52 25.94 294.98 26.03 Q 294.46 26.05 294.76 25.62 Q 296.74 22.73 299.25 22.50 Z"/>
<path fill="rgb(61,36,57)" fill-opacity="0.000" d="M 430.83 23.45 Q 432.76 24.33 430.91 25.37 Q 428.88 26.52 425.81 26.67 A 0.36 0.34 8.1 0 1 425.45 26.21 Q 425.71 25.51 426.26 25.00 Q 426.93 24.36 427.26 24.01 Q 428.72 22.48 430.83 23.45 Z"/>
<path fill="rgb(255,255,255)" fill-opacity="1.000" d="M 274.69 29.31 Q 275.36 33.21 279.27 34.34 A 1.33 1.20 18.4 0 1 280.19 35.97 L 277.30 43.36 A 1.92 0.88 -55.9 0 0 277.14 44.31 Q 279.29 58.44 280.81 64.44 Q 283.66 75.60 285.31 86.99 Q 286.50 95.22 282.69 101.19 Q 281.21 103.50 277.75 103.95 A 0.77 0.74 4.5 0 0 277.11 104.47 Q 273.32 116.96 262.44 124.19 Q 261.31 124.94 259.02 125.29 Q 257.23 125.57 255.48 125.33 Q 247.53 124.24 242.44 117.06 Q 238.52 111.54 237.81 106.00 A 0.86 0.59 76.9 0 1 238.13 105.18 Q 238.49 105.01 238.90 105.31 Q 239.17 105.50 239.30 105.91 Q 240.96 110.94 241.81 112.44 Q 244.88 117.85 250.28 118.90 Q 254.57 119.73 259.91 117.25 Q 268.21 113.42 273.30 105.33 A 0.89 0.88 23.1 0 0 272.76 104.00 Q 270.50 103.45 271.50 101.25 Q 271.80 98.29 272.87 95.53 A 0.50 0.48 22.2 0 1 273.52 95.27 Q 276.86 96.69 280.39 96.02 Q 282.68 95.59 282.36 93.28 Q 280.96 83.19 278.87 73.66 Q 275.84 59.82 275.84 59.80 Q 273.78 49.43 272.00 39.00 Q 270.95 33.73 273.69 29.19 Q 274.45 27.93 274.69 29.31 Z"/>
<path fill="rgb(255,255,255)" fill-opacity="1.000" d="M 404.84 30.39 Q 406.84 34.62 410.51 35.84 A 0.57 0.54 18.6 0 1 410.88 36.54 L 408.56 43.31 Q 407.71 45.79 407.75 46.00 Q 410.34 61.48 414.00 76.75 Q 414.65 79.48 416.00 88.75 Q 416.73 93.79 414.74 99.22 Q 413.86 101.63 412.65 102.88 Q 411.01 104.57 408.76 104.92 A 1.59 1.58 4.5 0 0 407.49 106.00 Q 405.69 111.58 402.66 115.86 Q 400.00 119.63 397.36 122.16 Q 393.97 125.40 390.00 126.25 Q 382.86 127.78 376.69 122.06 Q 369.69 115.57 368.56 107.47 Q 368.49 106.93 368.60 106.53 Q 368.97 105.23 369.94 106.81 Q 370.67 110.04 372.16 112.92 Q 373.84 116.17 376.19 117.86 Q 378.98 119.86 382.50 120.12 Q 385.36 120.32 388.85 118.97 Q 398.33 115.29 403.82 106.30 A 0.85 0.85 22.1 0 0 403.28 105.03 Q 402.20 104.78 401.88 103.83 Q 401.69 103.25 401.97 102.18 Q 402.69 99.42 403.24 96.87 A 0.83 0.83 -70.6 0 1 404.42 96.30 Q 408.28 98.22 412.12 96.52 A 0.85 0.82 80.7 0 0 412.60 95.82 Q 412.91 91.07 412.00 87.00 Q 406.87 64.10 402.75 41.00 Q 401.34 35.08 404.18 30.36 Q 404.55 29.76 404.84 30.39 Z"/>
<path fill="rgb(255,255,255)" fill-opacity="1.000" d="M 490.45 30.84 Q 491.95 29.90 491.32 31.55 Q 489.04 37.46 483.04 39.36 Q 471.40 43.05 465.69 43.44 Q 464.03 43.55 465.19 42.44 Q 465.59 42.06 474.89 38.53 Q 483.36 35.32 490.45 30.84 Z"/>
<path fill="rgb(255,255,255)" fill-opacity="1.000" d="M 518.75 32.73 Q 519.35 39.12 520.50 45.41 Q 522.78 57.95 525.00 70.50 Q 526.17 76.45 526.25 82.50 Q 526.84 87.30 524.94 91.69 Q 523.90 94.08 523.75 91.50 Q 523.53 87.76 523.13 84.04 Q 522.78 80.81 521.93 76.63 Q 520.04 67.33 518.25 58.00 Q 516.33 49.53 515.65 40.90 Q 515.48 38.68 516.02 36.66 Q 516.60 34.49 517.31 32.55 Q 518.44 29.45 518.75 32.73 Z"/>
<path fill="rgb(255,255,255)" fill-opacity="1.000" d="M 298.56 34.95 Q 299.21 43.03 300.88 51.68 Q 303.48 65.18 305.75 78.75 Q 307.93 88.41 306.78 98.20 Q 306.69 98.99 306.44 99.64 Q 305.20 102.84 304.50 99.25 Q 304.30 92.17 302.75 85.25 Q 300.91 75.27 298.87 65.33 Q 296.74 54.98 295.53 44.50 Q 295.19 41.58 295.64 39.52 Q 296.18 37.10 297.29 34.72 Q 298.35 32.45 298.56 34.95 Z"/>
<path fill="rgb(255,255,255)" fill-opacity="1.000" d="M 429.15 35.37 Q 429.49 38.85 430.21 43.22 Q 433.17 61.26 436.50 79.25 Q 437.82 87.95 438.00 91.75 Q 438.21 96.01 436.94 100.69 Q 436.71 101.53 436.18 101.62 A 0.62 0.47 82.0 0 1 435.62 101.06 Q 432.96 80.62 428.50 60.50 Q 427.67 56.76 426.99 50.91 Q 426.98 50.82 426.29 46.63 Q 425.31 40.72 427.95 35.16 Q 428.93 33.09 429.15 35.37 Z"/>
<path fill="rgb(255,255,255)" fill-opacity="1.000" d="M 357.33 35.29 Q 356.75 37.71 355.16 39.45 Q 353.98 40.74 351.28 41.68 Q 330.67 48.84 311.00 58.97 Q 308.98 60.02 310.01 57.98 Q 311.00 56.04 312.21 54.20 Q 313.83 51.73 316.53 50.49 Q 336.22 41.37 356.97 34.96 Q 357.45 34.81 357.33 35.29 Z"/>
<path fill="rgb(255,255,255)" fill-opacity="1.000" d="M 399.50 47.99 Q 398.82 49.82 397.08 51.89 Q 396.23 52.89 395.00 53.35 Q 387.69 56.07 379.47 57.03 Q 378.16 57.19 379.04 56.42 Q 379.23 56.26 379.50 56.15 Q 390.83 51.40 391.25 51.25 Q 395.39 49.76 398.69 47.37 Q 400.13 46.32 399.50 47.99 Z"/>
<path fill="rgb(255,255,255)" fill-opacity="1.000" d="M 360.11 47.51 L 369.71 48.27 A 0.63 0.61 13.7 0 1 370.25 49.12 Q 368.38 53.44 365.67 56.67 Q 363.65 59.09 360.56 59.81 Q 357.81 60.45 359.81 58.56 Q 362.09 57.21 363.70 55.15 A 0.39 0.39 -60.3 0 0 363.54 54.55 Q 359.60 52.95 355.76 54.72 Q 355.31 54.93 355.41 54.45 Q 356.09 51.39 358.05 48.45 A 2.33 2.13 17.9 0 1 360.11 47.51 Z"/>
<path fill="rgb(255,255,255)" fill-opacity="1.000" d="M 487.84 48.54 Q 489.04 52.66 486.09 55.83 Q 484.63 57.39 482.41 56.37 A 1.00 0.99 -57.6 0 0 481.23 56.64 Q 479.81 58.35 477.71 58.81 Q 475.44 59.31 474.54 57.80 Q 473.94 56.79 474.22 55.00 Q 474.61 52.52 475.75 51.25 Q 476.38 50.55 476.66 51.39 Q 476.76 51.68 476.64 52.11 Q 476.30 53.33 476.56 54.57 A 0.77 0.75 88.2 0 0 477.18 55.17 Q 479.65 55.56 481.07 52.57 Q 481.58 51.51 481.68 50.34 Q 481.78 49.06 482.50 49.32 A 0.95 0.62 -89.7 0 1 482.97 50.05 L 483.22 52.20 A 0.66 0.65 -1.1 0 0 483.81 52.76 Q 486.93 53.07 486.48 49.25 Q 486.31 47.72 487.21 47.89 A 0.95 0.76 84.7 0 1 487.84 48.54 Z"/>
<path fill="rgb(255,255,255)" fill-opacity="1.000" d="M 266.32 50.80 Q 267.78 49.52 267.21 51.38 Q 266.59 53.41 264.45 55.72 Q 263.64 56.59 262.53 56.99 Q 255.40 59.54 247.75 60.74 Q 245.95 61.03 246.79 60.08 Q 247.02 59.83 247.42 59.66 Q 254.54 56.64 261.69 53.69 Q 264.25 52.63 266.32 50.80 Z"/>
<path fill="rgb(255,255,255)" fill-opacity="1.000" d="M 397.28 59.38 Q 397.63 62.34 395.90 64.88 Q 394.64 66.73 392.08 66.24 Q 390.40 65.92 389.39 67.30 Q 387.62 69.71 384.87 68.30 A 1.40 1.32 -89.5 0 1 384.23 67.61 Q 382.82 64.31 385.10 61.37 Q 385.77 60.51 386.09 61.33 Q 386.20 61.62 386.08 62.04 Q 385.24 65.05 387.41 64.94 Q 388.74 64.87 389.62 63.78 Q 390.54 62.63 390.71 61.06 Q 390.79 60.40 391.02 60.00 Q 392.01 58.34 392.36 60.16 Q 392.42 60.48 392.38 61.21 Q 392.27 63.18 394.28 62.49 A 1.52 1.50 86.4 0 0 395.27 61.35 Q 395.68 59.23 396.13 58.44 Q 397.00 56.91 397.28 59.38 Z"/>
<path fill="rgb(255,255,255)" fill-opacity="1.000" d="M 335.84 59.09 Q 340.45 65.75 341.39 74.32 Q 341.79 77.88 340.61 81.21 A 0.69 0.57 -75.0 0 1 339.94 81.69 Q 339.30 81.58 339.25 80.75 Q 338.86 73.77 335.75 68.14 Q 334.05 65.05 333.85 64.02 Q 333.42 61.76 334.22 59.33 Q 334.80 57.59 335.84 59.09 Z"/>
<path fill="rgb(255,255,255)" fill-opacity="1.000" d="M 264.61 61.78 Q 265.97 65.62 263.24 68.74 Q 261.55 70.67 259.20 69.71 A 0.73 0.72 33.1 0 0 258.40 69.87 Q 256.40 71.98 255.19 72.19 Q 251.28 72.85 251.50 68.75 Q 251.63 66.38 252.96 64.91 A 0.68 0.56 -49.9 0 1 253.77 64.76 Q 254.36 65.17 253.79 66.27 Q 253.13 67.52 253.93 68.37 A 1.07 0.88 -23.5 0 0 254.81 68.62 Q 258.46 67.96 258.73 64.00 A 1.33 0.79 81.9 0 1 259.09 63.13 Q 260.06 62.32 260.39 65.65 A 0.85 0.85 72.0 0 0 261.66 66.30 Q 263.91 64.98 263.43 62.77 Q 263.17 61.55 263.95 61.35 A 0.63 0.52 72.6 0 1 264.61 61.78 Z"/>
<path fill="rgb(255,255,255)" fill-opacity="1.000" d="M 881.84 63.31 Q 884.91 63.48 888.53 63.82 A 0.54 0.54 13.7 0 1 888.98 64.56 Q 887.04 69.28 883.43 72.93 Q 881.11 75.28 878.33 75.41 Q 877.23 75.47 878.04 74.70 L 882.59 70.42 A 0.31 0.30 31.2 0 0 882.46 69.91 Q 879.47 69.01 876.40 69.46 Q 875.87 69.54 875.32 69.92 Q 872.91 71.59 874.31 68.56 Q 874.31 68.56 875.26 66.76 Q 875.26 66.75 875.99 65.04 Q 877.01 62.63 879.69 63.01 Q 881.76 63.30 881.84 63.31 Z"/>
<path fill="rgb(255,255,255)" fill-opacity="1.000" d="M 496.88 64.14 Q 497.52 62.09 498.06 64.17 Q 500.59 74.00 503.94 83.56 Q 506.24 90.11 506.50 95.25 Q 506.68 98.82 504.64 102.91 Q 501.77 108.66 495.37 106.98 Q 489.95 105.55 488.00 100.24 Q 487.53 98.96 487.19 100.28 Q 485.27 107.96 476.75 108.79 Q 467.26 109.71 466.24 100.56 Q 466.18 100.11 466.03 100.54 Q 464.81 103.95 461.67 104.33 Q 460.73 104.44 456.46 103.90 Q 452.44 103.40 448.45 102.49 A 0.80 0.79 19.0 0 1 447.90 101.38 L 451.43 93.82 Q 452.16 92.26 453.91 91.92 Q 459.71 90.80 465.58 88.12 A 1.99 1.97 86.4 0 0 466.65 86.89 Q 467.84 83.00 468.67 80.06 Q 468.83 79.50 469.12 79.16 Q 470.19 77.87 470.20 80.25 Q 470.25 95.25 470.25 95.25 Q 470.31 98.02 472.12 99.49 Q 473.57 100.65 476.13 100.67 Q 478.81 100.68 481.75 99.75 Q 485.91 98.43 485.61 94.26 Q 484.93 84.82 483.25 75.50 Q 482.67 70.38 484.39 65.54 A 1.05 0.62 -78.0 0 1 485.02 64.86 Q 485.58 64.79 485.70 65.81 Q 486.96 77.06 489.07 88.19 Q 489.66 91.32 491.21 94.11 Q 494.62 100.22 502.06 99.21 Q 504.24 98.91 503.53 96.84 Q 500.30 87.34 497.17 77.90 Q 494.79 70.76 496.88 64.14 Z M 466.49 93.11 Q 466.80 92.12 466.46 91.21 A 0.43 0.40 -26.8 0 0 465.83 91.03 Q 462.35 93.37 458.35 94.68 Q 457.06 95.10 457.71 95.69 Q 457.98 95.93 458.50 95.96 Q 463.47 96.24 463.50 96.25 Q 466.77 97.03 466.39 94.06 Q 466.34 93.59 466.49 93.11 Z"/>
<path fill="rgb(255,255,255)" fill-opacity="1.000" d="M 364.03 69.87 Q 369.73 73.65 375.68 77.25 Q 386.62 83.87 399.08 86.29 A 0.64 0.62 21.4 0 1 399.51 87.23 L 397.38 90.66 A 1.24 1.17 23.6 0 1 396.01 91.15 Q 380.52 86.62 364.98 88.50 A 0.84 0.84 68.9 0 0 364.40 89.82 Q 365.30 91.10 366.31 93.13 Q 368.45 97.43 364.91 101.24 A 2.40 2.39 21.1 0 1 363.18 102.00 Q 356.64 102.04 351.21 99.64 A 0.53 0.53 24.3 0 0 350.52 99.90 Q 346.42 108.19 337.56 108.08 A 0.56 0.54 4.0 0 0 337.00 108.55 Q 336.23 114.20 333.69 117.69 Q 330.82 121.62 324.37 126.08 Q 314.50 132.92 303.18 136.92 Q 276.45 146.38 250.50 147.25 Q 226.95 148.04 203.72 144.21 Q 188.03 141.62 174.31 136.19 Q 161.47 131.11 153.36 119.55 Q 153.00 119.03 151.87 117.68 Q 151.15 116.82 150.48 115.72 Q 149.47 114.06 151.30 114.69 Q 152.16 114.98 153.30 115.92 Q 161.33 122.55 170.95 126.52 Q 182.96 131.48 195.66 134.20 Q 223.26 140.12 251.50 139.34 Q 284.06 138.44 313.91 125.63 Q 324.20 121.22 333.16 113.53 A 2.48 2.48 -22.8 0 0 334.02 111.43 Q 333.58 106.72 331.05 102.93 A 1.97 1.59 40.6 0 1 330.77 101.41 L 332.66 95.13 Q 333.21 93.28 334.12 95.07 Q 337.96 102.60 345.81 99.31 Q 349.60 97.73 350.56 94.31 Q 351.24 91.90 351.25 91.87 Q 352.24 89.50 353.98 87.68 Q 355.52 86.07 358.11 85.20 Q 365.39 82.78 373.53 83.74 Q 376.28 84.07 373.81 82.82 Q 369.31 80.53 364.89 78.75 Q 360.16 76.85 355.24 78.25 Q 353.53 78.74 354.22 77.10 Q 356.19 72.47 360.58 69.80 Q 362.32 68.74 364.03 69.87 Z M 359.94 92.83 Q 357.62 90.02 354.36 91.11 Q 353.71 91.32 353.44 91.76 Q 353.11 92.29 353.20 92.94 A 1.03 0.86 11.8 0 0 353.77 93.66 Q 357.21 95.29 361.08 95.76 Q 362.79 95.97 361.60 94.72 Q 360.84 93.91 359.94 92.83 Z"/>
<path fill="rgb(255,255,255)" fill-opacity="1.000" d="M 906.88 74.09 Q 907.33 71.59 908.31 73.93 Q 912.21 83.21 915.56 92.69 Q 918.72 101.66 912.29 108.09 A 1.21 1.19 22.2 0 1 911.44 108.44 Q 905.31 108.44 899.70 105.95 A 0.56 0.47 -62.9 0 0 899.06 106.22 L 896.74 110.37 A 2.34 1.91 15.0 0 1 894.61 111.33 Q 889.20 110.84 884.49 108.68 A 0.67 0.66 28.3 0 0 883.64 108.93 Q 881.73 111.97 878.45 112.49 Q 876.94 112.74 872.54 112.31 Q 867.93 111.86 863.43 110.48 A 5.08 5.04 45.2 0 0 860.51 110.46 Q 848.87 113.84 838.00 116.00 Q 826.82 118.22 806.18 120.64 Q 796.61 121.76 786.28 122.59 Q 730.11 127.11 673.75 127.26 Q 659.80 127.29 653.75 127.27 Q 617.82 127.12 582.02 123.80 Q 564.84 122.20 548.04 118.32 Q 543.19 117.20 539.69 115.93 A 1.64 1.64 -71.4 0 0 537.56 116.99 Q 536.38 120.80 533.75 119.75 Q 527.48 118.70 521.48 116.66 A 0.58 0.57 22.4 0 0 520.78 116.94 Q 518.96 120.58 516.44 122.19 Q 509.87 126.38 500.18 129.29 Q 499.61 129.46 499.19 129.47 Q 497.64 129.49 498.73 128.38 Q 499.00 128.10 499.47 127.82 Q 508.45 122.51 517.65 116.85 A 1.50 1.50 65.6 0 0 518.30 115.12 Q 517.67 113.12 518.23 110.88 Q 518.56 109.60 519.58 106.97 Q 521.35 102.38 525.38 99.14 A 1.19 1.19 49.3 0 1 526.99 99.26 Q 532.97 105.63 541.69 108.29 Q 544.68 109.20 547.71 109.99 Q 550.50 110.72 553.83 111.26 Q 592.93 117.60 630.75 118.75 Q 677.36 120.16 726.76 118.18 Q 740.54 117.63 746.74 117.36 Q 786.98 115.61 826.98 110.87 Q 842.03 109.08 856.73 105.43 Q 862.65 103.96 868.50 100.62 Q 869.21 100.21 869.18 101.03 Q 869.13 102.52 868.39 103.76 A 0.96 0.96 16.6 0 0 869.17 105.20 Q 876.15 105.54 881.19 104.86 A 2.52 2.51 3.8 0 0 883.29 103.03 Q 884.38 99.11 886.06 96.56 Q 887.46 94.45 887.25 96.75 L 886.82 101.53 A 1.12 0.95 -84.0 0 0 887.63 102.71 L 896.01 103.81 A 0.66 0.63 -83.5 0 0 896.72 103.22 Q 897.17 99.38 898.35 95.91 Q 898.59 95.22 899.06 94.92 Q 900.24 94.15 900.22 96.25 Q 900.20 97.97 900.29 99.70 A 0.67 0.65 5.9 0 0 900.80 100.31 Q 905.96 101.61 912.08 101.19 A 1.32 1.32 -11.9 0 0 913.23 99.43 Q 910.18 90.99 906.83 82.77 Q 905.98 80.70 906.23 78.59 Q 906.52 76.07 906.88 74.09 Z M 522.44 106.76 Q 521.84 107.15 521.80 108.18 A 0.71 0.67 11.0 0 0 522.28 108.85 Q 530.21 111.50 531.25 111.75 Q 531.70 111.86 531.74 111.61 A 0.68 0.35 32.1 0 0 531.45 111.12 Q 527.05 107.42 525.81 105.19 Q 524.87 103.49 523.80 105.33 Q 523.29 106.21 522.44 106.76 Z"/>
<rect fill="rgb(255,255,255)" fill-opacity="1.000" x="-3.74" y="-4.00" width="7.48" height="8.00" rx="0.44" transform="translate(322.86,80.04) rotate(37.5)"/>
<path fill="rgb(255,255,255)" fill-opacity="1.000" d="M 223.94 77.81 Q 242.65 86.99 265.12 88.08 A 0.65 0.62 -78.0 0 1 265.66 88.95 L 263.95 93.41 A 1.33 1.23 -74.9 0 1 262.60 94.26 Q 249.90 92.49 237.94 96.69 Q 237.59 96.81 229.70 99.27 Q 221.90 101.71 221.44 101.80 Q 213.23 103.37 206.61 97.34 A 0.58 0.57 -42.9 0 0 205.86 97.32 Q 201.74 100.65 197.25 102.00 Q 169.76 110.29 141.25 106.25 Q 132.96 105.07 125.14 101.61 A 1.20 1.19 18.0 0 0 123.49 102.45 Q 123.11 104.20 122.05 105.33 A 1.03 0.90 23.3 0 1 121.18 105.61 Q 114.27 104.56 107.18 102.14 A 0.61 0.60 21.2 0 0 106.43 102.46 Q 104.84 105.98 101.49 107.94 Q 94.03 112.34 85.73 114.85 Q 85.17 115.03 84.76 114.91 Q 83.82 114.66 84.49 113.89 Q 84.72 113.62 85.19 113.34 Q 94.23 107.94 102.97 102.67 A 2.05 2.05 -14.8 0 0 103.96 100.97 Q 104.26 89.99 111.83 84.54 A 0.58 0.57 -39.3 0 1 112.58 84.61 Q 118.77 91.27 127.32 94.41 Q 135.06 97.25 143.25 98.26 Q 172.28 101.83 199.69 94.19 Q 204.83 92.75 209.13 88.84 A 0.60 0.39 -38.8 0 1 209.90 88.76 Q 210.32 89.47 209.66 92.07 A 1.00 0.99 -70.9 0 0 210.22 93.23 Q 212.79 94.35 215.86 94.77 Q 218.32 95.10 221.64 94.69 Q 231.05 93.54 240.02 90.42 Q 240.50 90.25 240.02 90.09 Q 232.52 87.64 224.79 86.07 Q 219.28 84.94 213.73 86.00 Q 210.70 86.58 212.49 84.07 Q 214.23 81.61 216.39 79.29 Q 218.20 77.34 219.68 77.05 Q 221.63 76.68 223.94 77.81 Z M 107.98 94.33 L 116.95 97.07 Q 117.41 97.21 117.09 96.84 L 111.49 90.46 A 0.66 0.56 54.1 0 0 110.74 90.28 Q 108.88 91.29 107.71 93.65 A 0.49 0.47 -68.1 0 0 107.98 94.33 Z"/>
<path fill="rgb(61,36,57)" fill-opacity="0.000" d="M 111.49 90.46 L 117.09 96.84 Q 117.41 97.21 116.95 97.07 L 107.98 94.33 A 0.49 0.47 -68.1 0 1 107.71 93.65 Q 108.88 91.29 110.74 90.28 A 0.66 0.56 54.1 0 1 111.49 90.46 Z"/>
<path fill="rgb(61,36,57)" fill-opacity="0.000" d="M 359.94 92.83 Q 360.84 93.91 361.60 94.72 Q 362.79 95.97 361.08 95.76 Q 357.21 95.29 353.77 93.66 A 1.03 0.86 11.8 0 1 353.20 92.94 Q 353.11 92.29 353.44 91.76 Q 353.71 91.32 354.36 91.11 Q 357.62 90.02 359.94 92.83 Z"/>
<path fill="rgb(61,36,57)" fill-opacity="0.000" d="M 466.46 91.21 Q 466.80 92.12 466.49 93.11 Q 466.34 93.59 466.39 94.06 Q 466.77 97.03 463.50 96.25 Q 463.47 96.24 458.50 95.96 Q 457.98 95.93 457.71 95.69 Q 457.06 95.10 458.35 94.68 Q 462.35 93.37 465.83 91.03 A 0.43 0.40 -26.8 0 1 466.46 91.21 Z"/>
<path fill="rgb(61,36,57)" fill-opacity="0.000" d="M 525.81 105.19 Q 527.05 107.42 531.45 111.12 A 0.68 0.35 32.1 0 1 531.74 111.61 Q 531.70 111.86 531.25 111.75 Q 530.21 111.50 522.28 108.85 A 0.71 0.67 11.0 0 1 521.80 108.18 Q 521.84 107.15 522.44 106.76 Q 523.29 106.21 523.80 105.33 Q 524.87 103.49 525.81 105.19 Z"/>
<path fill="rgb(255,255,255)" fill-opacity="1.000" d="M 229.66 106.88 Q 231.31 105.57 230.57 107.55 Q 229.78 109.65 227.54 112.18 Q 226.30 113.60 224.54 114.27 Q 216.05 117.51 206.35 119.27 Q 204.37 119.63 205.01 118.50 Q 205.24 118.09 205.81 117.86 Q 215.69 113.81 225.42 109.40 Q 227.92 108.27 229.66 106.88 Z"/>
<path fill="rgb(255,255,255)" fill-opacity="1.000" d="M 113.65 110.07 Q 114.50 109.49 114.25 110.49 Q 113.60 113.09 111.42 115.50 Q 110.07 116.98 108.21 117.70 Q 99.57 121.01 90.06 122.56 Q 87.34 123.01 89.31 121.31 Q 89.40 121.23 100.38 116.99 Q 107.47 114.25 113.65 110.07 Z"/>
<path fill="rgb(255,255,255)" fill-opacity="1.000" d="M 191.49 110.92 L 196.13 114.66 A 0.59 0.53 38.3 0 1 196.26 115.43 L 192.10 120.90 A 0.57 0.49 37.7 0 1 191.35 120.94 L 186.65 117.31 A 0.52 0.52 38.6 0 0 185.93 117.39 L 182.51 121.55 A 0.57 0.50 -49.5 0 1 181.76 121.66 L 177.08 117.63 A 0.62 0.59 -51.8 0 1 177.01 116.82 L 180.86 111.45 A 0.51 0.49 -52.1 0 1 181.59 111.35 L 185.88 115.00 A 1.27 1.23 -51.4 0 0 187.69 114.77 L 190.49 111.03 A 0.71 0.69 38.0 0 1 191.49 110.92 Z"/>
<path fill="rgb(255,255,255)" fill-opacity="1.000" d="M 461.01 111.24 Q 461.72 110.68 461.49 111.55 Q 459.84 117.70 453.81 119.80 Q 445.11 122.83 435.69 124.30 Q 434.63 124.46 435.03 123.47 Q 435.25 122.88 436.17 122.54 Q 444.86 119.35 453.31 115.56 Q 457.50 114.01 461.01 111.24 Z"/>
<rect fill="rgb(255,255,255)" fill-opacity="1.000" x="-3.76" y="-3.98" width="7.52" height="7.96" rx="0.27" transform="translate(912.54,119.87) rotate(37.8)"/>
<path fill="rgb(255,255,255)" fill-opacity="1.000" d="M 920.99 125.45 Q 922.22 124.50 921.76 125.98 Q 920.89 128.78 918.20 131.41 Q 917.19 132.40 915.86 132.91 Q 907.41 136.12 897.93 137.85 Q 897.37 137.95 896.93 137.91 Q 895.13 137.76 896.61 136.75 Q 896.93 136.53 897.44 136.33 Q 905.57 133.10 913.56 129.56 Q 917.74 127.99 920.99 125.45 Z"/>
<path fill="rgb(255,255,255)" fill-opacity="1.000" d="M 534.00 126.50 Q 533.24 128.59 531.83 130.33 Q 529.98 132.62 527.38 133.72 Q 527.24 133.78 522.15 135.34 Q 515.94 137.25 509.49 138.19 Q 507.69 138.45 508.28 137.63 Q 508.49 137.34 508.95 137.15 Q 518.59 133.10 528.19 128.94 Q 530.80 127.81 533.00 126.00 Q 534.69 124.60 534.00 126.50 Z"/>
<path fill="rgb(255,255,255)" fill-opacity="1.000" d="M 336.75 131.74 Q 336.05 133.88 334.71 135.68 Q 333.08 137.86 330.47 138.78 Q 321.45 141.97 311.99 143.43 A 1.30 0.90 -22.5 0 1 311.08 143.23 Q 310.34 142.62 311.69 142.09 Q 320.12 138.74 328.50 135.26 Q 332.61 133.55 335.92 131.13 Q 337.28 130.14 336.75 131.74 Z"/>
</svg>