<?xml version="1.0" encoding="UTF-8" standalone="no"?>
<!DOCTYPE svg PUBLIC "-//W3C//DTD SVG 1.1//EN" "http://www.w3.org/Graphics/SVG/1.1/DTD/svg11.dtd">
<svg xmlns="http://www.w3.org/2000/svg" version="1.1" viewBox="0 0 1000 166">
<path fill="rgb(41,16,34)" fill-opacity="0.000" d="M 0.00 0.00 Q 500.00 0.00 1000.00 0.00 Q 1000.00 83.00 1000.00 166.00 Q 500.00 166.00 0.00 166.00 Q 0.00 83.00 0.00 0.00 Z M 510.55 24.27 L 508.42 22.82 A 0.73 0.66 31.7 0 0 507.40 23.01 Q 506.38 24.89 509.32 29.37 Q 509.87 30.20 510.10 31.18 Q 510.41 32.52 510.90 31.28 Q 511.00 31.03 510.95 30.69 Q 510.58 28.09 513.25 28.50 Q 515.68 28.87 518.44 27.66 Q 521.00 26.53 522.43 24.55 Q 525.04 20.94 520.99 18.33 Q 518.48 16.71 516.28 19.02 L 511.37 24.16 A 0.66 0.61 -50.4 0 1 510.55 24.27 Z M 292.32 29.63 Q 300.39 31.17 303.56 23.96 A 1.59 1.58 -39.1 0 0 303.66 23.01 Q 302.80 18.87 299.52 19.20 Q 297.65 19.39 295.66 21.42 Q 294.05 23.06 292.60 24.87 Q 291.30 26.50 289.81 24.94 Q 287.90 22.94 287.50 25.00 Q 287.14 26.86 288.27 28.22 Q 289.46 29.66 290.12 31.38 Q 290.37 32.04 290.71 32.36 Q 291.96 33.54 291.40 30.55 A 0.79 0.78 -0.2 0 1 292.32 29.63 Z M 423.05 30.36 Q 426.72 30.73 430.08 29.12 Q 432.86 27.79 433.86 25.75 Q 435.30 22.80 432.17 20.05 Q 430.58 18.65 428.86 19.89 Q 425.91 22.02 423.27 25.28 Q 421.89 26.98 420.15 24.98 Q 418.89 23.53 418.30 25.36 Q 417.54 27.73 419.44 29.31 Q 420.52 30.22 421.19 32.71 A 0.57 0.44 72.1 0 0 421.81 33.14 Q 422.47 32.88 422.11 31.45 A 0.88 0.88 85.8 0 1 423.05 30.36 Z M 273.18 105.37 Q 267.77 114.33 258.25 118.00 Q 248.63 121.70 242.56 113.69 Q 241.28 112.00 239.10 105.77 A 0.81 0.58 76.5 0 0 238.47 105.22 Q 238.16 105.23 237.99 105.44 Q 237.79 105.68 237.87 106.23 Q 239.57 117.08 248.76 122.95 Q 256.60 127.97 263.69 123.44 Q 271.13 118.68 275.44 109.05 Q 275.48 108.96 276.22 106.36 Q 276.74 104.54 278.38 103.83 Q 280.95 102.73 281.23 102.49 Q 284.00 100.13 284.81 96.06 Q 285.88 90.67 285.18 86.26 Q 283.37 74.93 280.73 63.75 Q 278.66 54.99 277.51 46.06 Q 277.25 44.08 278.04 42.07 Q 279.26 39.00 280.18 35.97 A 1.12 1.12 17.5 0 0 279.45 34.57 Q 275.90 33.40 274.81 29.93 Q 274.25 28.16 273.38 29.79 Q 270.75 34.71 272.25 40.25 Q 274.89 56.34 278.57 72.23 Q 281.06 82.99 282.44 93.95 A 1.65 1.65 -12.2 0 1 281.29 95.73 Q 277.50 96.90 273.91 95.32 A 0.89 0.89 18.8 0 0 272.69 95.92 Q 272.14 98.23 271.58 100.52 Q 270.94 103.13 273.02 104.66 A 0.55 0.52 33.9 0 1 273.18 105.37 Z M 411.32 96.93 Q 408.41 98.21 404.47 96.33 A 0.99 0.99 17.9 0 0 403.06 97.05 Q 402.83 98.43 402.59 99.81 Q 402.59 99.81 402.09 101.52 Q 401.50 103.56 403.53 105.35 A 0.98 0.97 37.7 0 1 403.70 106.63 Q 398.26 114.65 390.45 118.27 Q 385.30 120.66 381.14 119.98 Q 375.90 119.13 372.75 114.00 Q 371.62 112.16 369.85 107.03 A 1.41 0.98 86.4 0 0 369.27 106.30 Q 368.32 105.83 368.50 107.25 Q 369.24 113.04 372.55 117.71 Q 375.86 122.37 380.79 124.78 Q 390.81 129.66 399.56 119.81 Q 405.26 113.41 407.54 105.92 A 0.94 0.93 -89.3 0 1 408.17 105.30 Q 414.61 103.36 415.70 96.53 Q 416.34 92.49 416.00 89.25 Q 415.48 84.33 413.75 76.60 Q 410.40 61.59 407.72 45.91 Q 407.62 45.31 407.92 44.49 L 410.63 37.03 A 1.28 1.14 20.5 0 0 409.84 35.53 Q 406.56 34.27 405.21 30.94 Q 404.55 29.31 403.78 30.88 Q 402.08 34.33 402.44 38.81 Q 402.86 44.18 406.95 63.56 Q 406.95 63.58 409.17 73.43 Q 411.39 83.34 412.90 94.09 Q 413.19 96.11 411.32 96.93 Z M 491.41 31.30 Q 491.82 30.20 490.79 30.77 Q 478.98 37.30 466.09 41.89 Q 464.87 42.33 465.22 43.09 A 0.77 0.60 -14.7 0 0 465.99 43.42 Q 475.05 41.95 483.74 38.97 Q 489.26 37.07 491.41 31.30 Z M 517.21 32.70 Q 514.58 38.46 516.00 45.25 Q 518.05 58.19 520.75 71.00 Q 523.18 82.50 523.72 91.01 A 1.03 0.76 -82.3 0 0 524.15 91.79 Q 525.00 92.27 525.37 90.92 Q 526.18 88.00 526.41 85.00 Q 526.59 82.63 526.13 79.02 Q 524.05 62.76 520.50 46.75 Q 519.44 40.02 518.72 32.95 Q 518.42 30.03 517.21 32.70 Z M 296.94 35.19 Q 296.31 37.11 295.77 39.06 Q 295.23 40.99 295.39 43.02 Q 295.88 49.40 297.09 55.68 Q 300.32 72.46 303.47 89.26 Q 304.43 94.34 304.49 99.50 Q 304.51 101.84 305.77 100.64 Q 306.18 100.25 306.35 99.60 Q 307.84 94.13 307.25 89.25 Q 305.28 73.01 301.22 52.96 Q 299.43 44.17 298.50 35.25 Q 298.11 31.56 296.94 35.19 Z M 427.96 35.15 Q 425.34 40.44 426.22 46.25 Q 428.83 63.29 432.38 80.16 Q 433.69 86.39 434.20 90.02 Q 434.88 94.99 435.27 100.00 Q 435.44 102.24 436.55 101.14 Q 436.92 100.77 437.10 100.11 Q 438.34 95.50 438.00 91.50 Q 437.07 80.60 434.31 67.19 Q 431.20 52.07 429.07 35.34 Q 428.82 33.40 427.96 35.15 Z M 312.17 54.18 Q 310.63 56.42 310.13 57.90 Q 309.49 59.76 311.24 58.86 Q 331.11 48.59 351.74 41.59 Q 353.97 40.83 355.09 39.44 Q 356.33 37.90 357.26 35.89 Q 357.77 34.76 356.59 35.13 Q 336.22 41.37 316.51 50.52 Q 313.84 51.76 312.17 54.18 Z M 379.24 56.34 Q 378.79 57.27 379.74 57.15 Q 386.95 56.23 393.73 53.71 Q 396.14 52.81 397.29 51.57 Q 398.65 50.12 399.57 47.95 Q 400.05 46.83 398.97 47.40 Q 389.45 52.49 379.82 55.81 A 1.02 1.00 -86.9 0 0 379.24 56.34 Z M 363.69 55.69 L 359.71 58.76 A 0.92 0.67 -29.3 0 0 359.34 59.57 Q 359.53 60.30 360.64 59.83 Q 367.96 56.75 369.98 49.08 A 0.63 0.62 9.8 0 0 369.42 48.31 L 360.31 47.51 Q 358.45 47.34 357.69 48.92 Q 356.72 50.97 355.76 53.01 Q 354.50 55.70 356.75 54.33 Q 357.31 53.98 357.85 53.93 Q 360.74 53.63 363.56 54.44 Q 364.83 54.80 363.69 55.69 Z M 484.77 52.85 Q 483.12 53.32 483.02 51.00 Q 482.92 48.51 481.79 50.06 Q 481.53 50.42 481.45 51.03 Q 481.04 54.18 478.22 55.33 A 1.06 0.93 -37.6 0 1 477.31 55.27 Q 476.18 54.54 476.51 53.00 Q 477.15 50.09 475.15 52.10 A 3.08 3.07 67.3 0 0 474.25 54.30 Q 474.27 61.53 480.76 57.35 Q 482.22 56.41 483.87 56.97 Q 484.74 57.27 486.25 55.51 Q 488.89 52.41 487.78 48.61 Q 487.68 48.27 487.45 48.11 Q 487.07 47.85 486.79 48.09 A 1.12 0.56 77.2 0 0 486.57 48.99 Q 486.70 50.37 486.18 51.56 Q 485.74 52.57 484.77 52.85 Z M 265.94 54.15 Q 266.81 52.94 267.36 51.13 Q 267.57 50.46 266.95 50.79 Q 257.55 55.91 247.74 59.41 Q 247.24 59.59 246.93 59.84 Q 245.74 60.80 248.00 60.75 Q 251.32 60.67 260.87 57.77 Q 264.03 56.81 265.94 54.15 Z M 392.25 60.75 Q 392.47 58.78 391.37 59.66 A 1.39 1.00 80.8 0 0 390.95 60.50 Q 390.66 62.68 389.25 64.19 Q 388.41 65.10 387.35 65.07 Q 385.61 65.02 385.98 62.75 Q 386.39 60.30 385.35 61.06 A 3.40 3.36 78.2 0 0 384.04 63.09 Q 382.84 68.89 386.67 68.77 Q 388.37 68.71 389.49 67.42 Q 390.85 65.83 393.04 66.40 A 1.35 1.31 -53.7 0 0 394.13 66.22 Q 398.30 63.48 397.13 58.72 A 0.84 0.60 82.1 0 0 396.53 58.09 Q 395.98 58.05 396.06 59.04 Q 396.28 61.92 393.75 62.75 Q 391.97 63.34 392.25 60.75 Z M 334.44 58.92 Q 333.51 61.21 333.78 63.50 Q 333.94 64.86 335.50 67.60 Q 338.82 73.42 339.22 80.22 Q 339.26 80.83 339.50 81.23 Q 340.18 82.32 340.76 81.27 Q 340.99 80.87 341.08 80.17 Q 342.72 68.09 335.47 58.78 A 0.60 0.60 37.1 0 0 334.44 58.92 Z M 254.89 68.67 A 0.87 0.87 -4.7 0 1 253.85 67.79 Q 254.01 63.88 253.03 65.01 Q 250.85 67.52 251.69 70.82 A 1.87 1.85 86.1 0 0 253.27 72.21 Q 255.99 72.55 257.82 70.30 A 1.75 1.74 31.5 0 1 259.88 69.81 Q 261.21 70.39 262.41 69.41 Q 265.63 66.77 264.91 62.67 Q 264.82 62.17 264.54 61.80 Q 263.40 60.31 263.60 62.99 Q 263.74 64.92 262.25 66.00 Q 260.28 67.43 260.00 64.50 Q 259.72 61.61 258.72 63.53 Q 258.52 63.91 258.48 64.52 Q 258.25 67.99 254.89 68.67 Z M 881.74 69.79 Q 883.36 70.42 881.95 71.43 Q 880.20 72.68 878.58 74.08 Q 876.93 75.50 878.70 75.47 Q 879.16 75.46 879.65 75.24 Q 885.91 72.51 888.68 64.80 A 0.65 0.65 -77.0 0 0 888.14 63.93 Q 884.56 63.54 882.01 63.34 Q 881.92 63.33 879.52 62.94 Q 876.72 62.49 876.00 64.90 Q 875.63 66.15 875.07 67.32 Q 873.36 70.87 875.31 69.90 Q 876.24 69.44 876.79 69.37 Q 879.59 68.97 881.74 69.79 Z M 466.50 101.30 Q 467.68 109.87 476.77 108.92 Q 484.44 108.12 487.09 100.74 Q 487.64 99.21 488.17 100.75 Q 490.18 106.55 497.01 107.40 Q 500.88 107.89 502.94 105.44 Q 506.22 101.53 506.54 96.43 Q 506.73 93.35 504.92 87.26 Q 501.64 76.21 498.31 65.18 Q 497.26 61.71 496.52 65.26 Q 495.36 70.83 496.55 76.25 Q 496.77 77.28 499.93 86.33 Q 501.68 91.35 503.46 96.39 Q 504.41 99.06 501.59 99.31 Q 491.79 100.18 489.61 89.98 Q 487.10 78.21 485.75 66.25 Q 485.36 62.78 484.25 66.00 Q 482.44 71.28 483.50 76.75 Q 483.61 77.33 485.92 92.72 Q 486.60 97.26 483.19 99.19 Q 480.22 100.86 476.20 100.71 Q 473.50 100.61 472.09 99.41 Q 470.26 97.86 470.27 95.00 Q 470.30 87.40 470.19 79.80 A 0.86 0.66 -81.8 0 0 469.77 79.05 Q 469.14 78.80 468.88 79.67 Q 467.97 82.72 466.63 86.90 A 2.04 2.04 -3.7 0 1 465.53 88.15 Q 459.71 90.80 453.99 91.90 Q 452.14 92.26 451.40 93.88 L 448.12 101.11 A 1.07 1.05 18.4 0 0 448.87 102.57 Q 456.02 104.19 462.25 104.25 Q 464.50 104.27 465.50 101.25 Q 465.64 100.84 465.94 100.76 A 0.60 0.43 80.0 0 1 466.50 101.30 Z M 374.21 83.17 Q 375.34 83.87 374.01 83.75 Q 367.82 83.19 361.67 84.01 Q 354.00 85.04 351.31 91.90 Q 351.31 91.90 350.67 94.01 Q 349.16 99.00 343.75 100.02 Q 336.56 101.39 334.09 95.19 Q 333.27 93.14 332.69 95.17 L 330.82 101.75 A 1.36 0.91 44.7 0 0 331.01 102.67 Q 333.21 106.29 333.96 110.31 Q 334.39 112.61 332.58 114.10 Q 323.44 121.57 312.87 126.02 Q 284.18 138.11 253.00 139.25 Q 229.20 140.12 205.72 136.19 Q 188.03 133.23 172.50 127.25 Q 161.74 123.10 152.23 115.28 Q 151.76 114.89 151.30 114.80 Q 149.75 114.48 150.81 116.19 Q 152.78 119.35 156.08 122.90 Q 160.05 127.18 162.03 128.99 Q 165.83 132.44 170.31 134.44 Q 183.05 140.10 197.13 142.91 Q 205.38 144.55 216.89 145.93 Q 238.74 148.54 260.75 146.46 Q 283.99 144.27 307.31 135.31 Q 321.75 129.77 331.96 119.51 Q 334.24 117.22 335.24 114.90 Q 336.38 112.24 336.74 109.34 A 1.54 1.52 3.0 0 1 338.24 108.00 Q 346.92 107.89 350.29 100.12 A 0.72 0.72 23.7 0 1 351.23 99.74 Q 357.09 102.24 363.45 101.96 A 1.44 1.39 22.6 0 0 364.32 101.62 Q 369.81 96.77 364.76 90.45 Q 363.37 88.70 365.58 88.43 Q 380.30 86.61 395.08 90.86 Q 397.47 91.55 398.91 87.72 A 1.17 1.17 -73.8 0 0 398.06 86.17 Q 380.68 82.50 365.77 70.71 Q 362.67 68.26 360.06 70.06 Q 355.85 72.97 354.01 77.73 Q 353.56 78.89 354.74 78.50 Q 355.97 78.10 357.23 77.79 Q 358.48 77.48 359.78 77.71 Q 367.61 79.08 374.21 83.17 Z M 521.04 116.92 Q 527.67 118.36 534.25 120.00 Q 536.99 120.32 537.32 117.53 Q 537.60 115.13 539.87 115.95 Q 545.52 117.99 551.27 119.17 Q 569.11 122.83 587.27 124.28 Q 634.68 128.08 682.22 127.21 Q 700.49 126.88 700.77 126.88 Q 739.69 126.22 778.50 123.31 Q 808.43 121.06 837.97 115.83 Q 849.27 113.83 860.46 110.44 A 4.84 4.84 -44.4 0 1 863.39 110.47 Q 870.63 112.82 878.08 112.38 Q 879.93 112.27 881.19 111.42 Q 882.59 110.48 883.69 109.15 A 0.72 0.68 -60.0 0 1 884.46 108.92 Q 888.43 110.35 892.56 111.16 Q 894.94 111.62 896.28 110.67 Q 897.91 109.50 898.51 107.14 A 1.39 1.39 -71.8 0 1 900.37 106.20 Q 904.85 107.97 909.97 108.55 Q 912.24 108.81 913.60 106.97 Q 916.61 102.87 916.57 98.03 Q 916.55 95.15 914.39 89.29 Q 911.62 81.81 908.56 74.43 Q 907.14 71.01 906.74 74.69 Q 906.54 76.56 906.27 78.72 Q 906.01 80.76 906.76 82.65 Q 909.65 89.94 912.50 97.25 Q 915.13 102.12 909.50 101.25 Q 904.99 101.59 900.78 100.11 A 0.73 0.65 -82.1 0 1 900.34 99.45 L 900.25 95.73 Q 900.21 94.08 898.91 95.17 Q 897.89 96.03 897.64 97.73 Q 897.25 100.35 896.79 102.45 A 1.69 1.69 9.0 0 1 894.97 103.77 Q 892.13 103.49 889.49 103.08 Q 889.41 103.06 888.50 103.00 Q 886.37 102.86 887.28 99.80 A 4.24 4.20 -44.8 0 0 887.30 97.42 Q 886.97 96.27 886.26 96.54 Q 885.87 96.68 885.56 97.28 Q 884.24 99.80 883.42 102.81 Q 882.89 104.74 880.89 104.98 Q 875.26 105.66 869.29 105.22 A 1.00 0.98 -79.5 0 1 868.43 103.94 L 869.02 101.96 Q 869.61 99.96 867.76 100.99 Q 862.52 103.92 856.73 105.41 Q 842.33 109.14 827.58 110.98 Q 806.72 113.58 785.76 115.09 Q 711.72 120.43 637.50 118.81 Q 603.40 118.06 569.56 113.68 Q 560.07 112.45 550.69 110.56 Q 541.13 109.08 532.88 104.08 Q 529.90 102.27 527.55 99.68 Q 526.26 98.25 524.82 99.53 Q 518.67 104.99 518.03 113.50 A 2.03 1.34 43.9 0 0 518.24 114.43 Q 519.12 116.19 517.31 117.06 Q 508.40 122.48 499.45 127.83 Q 498.98 128.11 498.76 128.39 Q 498.14 129.18 499.01 129.42 Q 499.41 129.53 499.98 129.36 Q 510.31 126.40 517.44 121.44 Q 519.21 120.20 520.38 117.28 A 0.59 0.56 -72.2 0 1 521.04 116.92 Z M 327.6938 79.9456 A 1.00 1.00 0 0 0 327.5117 78.5432 L 323.1383 75.1751 A 1.00 1.00 0 0 0 321.7358 75.3573 L 318.0262 80.1744 A 1.00 1.00 0 0 0 318.2083 81.5769 L 322.5817 84.9448 A 1.00 1.00 0 0 0 323.9842 84.7627 L 327.6938 79.9456 Z M 209.75 92.44 Q 209.65 91.16 210.07 89.97 A 1.53 0.75 -60.2 0 0 210.13 89.02 Q 209.86 88.29 209.15 88.89 Q 205.30 92.11 200.71 93.79 Q 198.47 94.61 191.38 96.19 Q 163.35 102.41 134.99 96.79 Q 121.76 94.18 112.75 84.76 A 1.13 1.13 -42.3 0 0 111.20 84.69 Q 104.40 90.61 103.91 101.55 A 1.07 1.06 76.2 0 1 103.39 102.41 Q 94.46 107.77 85.36 113.19 Q 84.84 113.49 84.58 113.77 Q 83.78 114.61 84.73 114.90 Q 85.16 115.03 85.76 114.85 Q 94.42 112.29 102.06 107.48 Q 104.62 105.87 106.11 102.84 A 1.16 1.07 19.5 0 1 107.39 102.29 L 120.95 105.60 A 1.02 1.01 31.5 0 0 121.84 105.39 Q 122.89 104.49 123.41 102.72 A 1.47 1.47 19.7 0 1 125.40 101.78 Q 135.62 106.16 147.43 107.18 Q 172.88 109.39 197.23 101.93 Q 201.29 100.69 205.41 97.65 A 1.16 1.14 -41.5 0 1 206.87 97.73 Q 210.74 101.29 215.70 101.95 Q 218.83 102.37 224.19 101.01 Q 229.28 99.73 232.44 98.44 Q 246.31 92.79 262.63 94.11 A 1.29 1.08 10.0 0 0 263.93 93.36 L 265.38 88.55 A 0.45 0.39 8.0 0 0 264.94 88.05 Q 243.55 87.31 224.32 78.03 Q 224.26 78.00 223.21 77.44 Q 219.89 75.68 217.69 77.94 Q 214.76 80.93 212.31 84.31 Q 210.61 86.67 213.75 86.00 Q 217.85 85.13 221.99 85.81 Q 230.96 87.29 239.70 89.81 Q 241.30 90.28 239.70 90.76 Q 230.13 93.61 220.00 95.00 Q 215.69 95.59 210.27 93.15 A 0.90 0.83 11.1 0 1 209.75 92.44 Z M 228.62 111.11 Q 230.03 109.38 230.75 107.24 Q 231.07 106.31 230.20 106.77 Q 218.50 113.06 205.97 117.66 Q 205.49 117.84 205.25 118.11 Q 204.66 118.76 205.29 119.09 Q 205.64 119.27 206.22 119.17 Q 214.34 117.71 222.24 115.35 Q 226.10 114.19 228.62 111.11 Z M 112.69 113.87 Q 113.35 112.91 113.84 111.85 Q 114.88 109.58 113.31 110.31 Q 111.16 112.00 108.65 113.11 Q 98.92 117.41 89.06 121.46 Q 88.76 121.58 88.63 121.76 Q 88.41 122.05 88.51 122.31 A 0.80 0.49 -10.5 0 0 89.31 122.62 Q 98.94 121.26 107.99 117.76 Q 109.67 117.11 110.65 116.23 Q 111.77 115.22 112.69 113.87 Z M 186.14 115.08 L 181.89 111.58 A 0.84 0.83 38.1 0 0 180.69 111.72 L 177.44 116.08 Q 176.35 117.55 177.92 118.76 L 180.98 121.13 A 1.85 1.68 -52.2 0 0 183.43 120.70 L 185.88 117.57 A 0.60 0.58 37.5 0 1 186.70 117.48 L 190.60 120.44 A 1.63 1.31 36.9 0 0 192.71 120.37 L 196.04 115.79 A 0.96 0.91 -53.0 0 0 195.89 114.51 L 191.43 111.01 A 0.71 0.62 -44.2 0 0 190.60 111.05 Q 188.88 112.44 187.80 114.72 A 1.09 1.07 32.2 0 1 186.14 115.08 Z M 459.47 115.94 Q 460.83 114.15 461.50 112.00 Q 461.98 110.46 460.75 111.50 Q 459.22 112.79 457.41 113.62 Q 446.58 118.63 435.52 123.13 A 0.67 0.51 -20.2 0 0 435.09 123.80 Q 435.27 124.41 436.25 124.25 Q 446.53 122.55 455.21 119.15 Q 457.80 118.14 459.47 115.94 Z M 917.3124 119.9179 A 1.09 1.09 0 0 0 917.1245 118.3879 L 912.9008 115.0880 A 1.09 1.09 0 0 0 911.3708 115.2758 L 907.7876 119.8621 A 1.09 1.09 0 0 0 907.9755 121.3921 L 912.1992 124.6920 A 1.09 1.09 0 0 0 913.7292 124.5042 L 917.3124 119.9179 Z M 919.20 130.51 Q 920.97 128.34 921.76 126.24 Q 922.42 124.45 920.89 125.58 Q 918.73 127.19 916.15 128.34 Q 906.54 132.65 896.78 136.62 A 0.69 0.49 -21.3 0 0 896.33 137.31 Q 896.52 137.93 897.75 137.75 Q 907.20 136.35 916.03 132.83 Q 917.91 132.07 919.20 130.51 Z M 531.69 130.68 Q 533.21 129.01 533.89 126.52 Q 534.16 125.54 533.27 126.03 Q 521.67 132.38 509.04 136.89 A 1.30 0.94 -5.2 0 0 508.33 137.51 Q 507.88 138.65 509.76 138.31 Q 516.25 137.16 522.55 135.26 Q 526.89 133.96 527.45 133.72 Q 529.86 132.68 531.69 130.68 Z M 334.69 135.66 Q 336.09 133.91 336.75 131.73 Q 337.07 130.71 336.12 131.22 Q 324.55 137.53 312.04 141.90 A 1.36 0.78 -7.4 0 0 311.29 142.47 Q 311.09 142.89 311.35 143.20 A 1.07 0.67 -18.2 0 0 312.24 143.42 Q 321.57 141.95 330.44 138.70 Q 333.01 137.76 334.69 135.66 Z"/>
<path fill="rgb(0,0,0)" fill-opacity="1.000" d="M 520.99 18.33 Q 525.04 20.94 522.43 24.55 Q 521.00 26.53 518.44 27.66 Q 515.68 28.87 513.25 28.50 Q 510.58 28.09 510.95 30.69 Q 511.00 31.03 510.90 31.28 Q 510.41 32.52 510.10 31.18 Q 509.87 30.20 509.32 29.37 Q 506.38 24.89 507.40 23.01 A 0.73 0.66 31.7 0 1 508.42 22.82 L 510.55 24.27 A 0.66 0.61 -50.4 0 0 511.37 24.16 L 516.28 19.02 Q 518.48 16.71 520.99 18.33 Z M 514.68 23.70 Q 513.68 25.11 515.40 24.93 Q 517.50 24.71 519.86 23.54 A 1.26 0.92 -11.2 0 0 520.49 22.86 Q 520.71 22.01 519.97 21.55 Q 519.38 21.19 518.48 21.31 Q 516.13 21.65 514.68 23.70 Z"/>
<path fill="rgb(0,0,0)" fill-opacity="1.000" d="M 303.56 23.96 Q 300.39 31.17 292.32 29.63 A 0.79 0.78 -0.2 0 0 291.40 30.55 Q 291.96 33.54 290.71 32.36 Q 290.37 32.04 290.12 31.38 Q 289.46 29.66 288.27 28.22 Q 287.14 26.86 287.50 25.00 Q 287.90 22.94 289.81 24.94 Q 291.30 26.50 292.60 24.87 Q 294.05 23.06 295.66 21.42 Q 297.65 19.39 299.52 19.20 Q 302.80 18.87 303.66 23.01 A 1.59 1.58 -39.1 0 1 303.56 23.96 Z M 299.08 22.66 Q 296.89 22.73 295.29 24.93 Q 294.01 26.71 296.14 26.22 Q 297.95 25.80 299.76 25.05 Q 300.43 24.77 300.72 24.37 Q 301.30 23.56 300.46 23.01 Q 299.89 22.63 299.08 22.66 Z"/>
<path fill="rgb(0,0,0)" fill-opacity="1.000" d="M 432.17 20.05 Q 435.30 22.80 433.86 25.75 Q 432.86 27.79 430.08 29.12 Q 426.72 30.73 423.05 30.36 A 0.88 0.88 85.8 0 0 422.11 31.45 Q 422.47 32.88 421.81 33.14 A 0.57 0.44 72.1 0 1 421.19 32.71 Q 420.52 30.22 419.44 29.31 Q 417.54 27.73 418.30 25.36 Q 418.89 23.53 420.15 24.98 Q 421.89 26.98 423.27 25.28 Q 425.91 22.02 428.86 19.89 Q 430.58 18.65 432.17 20.05 Z M 425.68 25.70 Q 424.76 27.33 426.53 26.80 L 430.65 25.57 A 1.20 1.19 61.2 0 0 431.20 23.65 Q 429.91 22.13 427.77 23.49 Q 426.45 24.33 425.68 25.70 Z"/>
<path fill="rgb(41,16,34)" fill-opacity="0.000" d="M 519.97 21.55 Q 520.71 22.01 520.49 22.86 A 1.26 0.92 -11.2 0 1 519.86 23.54 Q 517.50 24.71 515.40 24.93 Q 513.68 25.11 514.68 23.70 Q 516.13 21.65 518.48 21.31 Q 519.38 21.19 519.97 21.55 Z"/>
<path fill="rgb(41,16,34)" fill-opacity="0.000" d="M 300.46 23.01 Q 301.30 23.56 300.72 24.37 Q 300.43 24.77 299.76 25.05 Q 297.95 25.80 296.14 26.22 Q 294.01 26.71 295.29 24.93 Q 296.89 22.73 299.08 22.66 Q 299.89 22.63 300.46 23.01 Z"/>
<path fill="rgb(41,16,34)" fill-opacity="0.000" d="M 431.20 23.65 A 1.20 1.19 61.2 0 1 430.65 25.57 L 426.53 26.80 Q 424.76 27.33 425.68 25.70 Q 426.45 24.33 427.77 23.49 Q 429.91 22.13 431.20 23.65 Z"/>
<path fill="rgb(0,0,0)" fill-opacity="1.000" d="M 274.81 29.93 Q 275.90 33.40 279.45 34.57 A 1.12 1.12 17.5 0 1 280.18 35.97 Q 279.26 39.00 278.04 42.07 Q 277.25 44.08 277.51 46.06 Q 278.66 54.99 280.73 63.75 Q 283.37 74.93 285.18 86.26 Q 285.88 90.67 284.81 96.06 Q 284.00 100.13 281.23 102.49 Q 280.95 102.73 278.38 103.83 Q 276.74 104.54 276.22 106.36 Q 275.48 108.96 275.44 109.05 Q 271.13 118.68 263.69 123.44 Q 256.60 127.97 248.76 122.95 Q 239.57 117.08 237.87 106.23 Q 237.79 105.68 237.99 105.44 Q 238.16 105.23 238.47 105.22 A 0.81 0.58 76.5 0 1 239.10 105.77 Q 241.28 112.00 242.56 113.69 Q 248.63 121.70 258.25 118.00 Q 267.77 114.33 273.18 105.37 A 0.55 0.52 33.9 0 0 273.02 104.66 Q 270.94 103.13 271.58 100.52 Q 272.14 98.23 272.69 95.92 A 0.89 0.89 18.8 0 1 273.91 95.32 Q 277.50 96.90 281.29 95.73 A 1.65 1.65 -12.2 0 0 282.44 93.95 Q 281.06 82.99 278.57 72.23 Q 274.89 56.34 272.25 40.25 Q 270.75 34.71 273.38 29.79 Q 274.25 28.16 274.81 29.93 Z"/>
<path fill="rgb(0,0,0)" fill-opacity="1.000" d="M 403.78 30.88 Q 404.55 29.31 405.21 30.94 Q 406.56 34.27 409.84 35.53 A 1.28 1.14 20.5 0 1 410.63 37.03 L 407.92 44.49 Q 407.62 45.31 407.72 45.91 Q 410.40 61.59 413.75 76.60 Q 415.48 84.33 416.00 89.25 Q 416.34 92.49 415.70 96.53 Q 414.61 103.36 408.17 105.30 A 0.94 0.93 -89.3 0 0 407.54 105.92 Q 405.26 113.41 399.56 119.81 Q 390.81 129.66 380.79 124.78 Q 375.86 122.37 372.55 117.71 Q 369.24 113.04 368.50 107.25 Q 368.32 105.83 369.27 106.30 A 1.41 0.98 86.4 0 1 369.85 107.03 Q 371.62 112.16 372.75 114.00 Q 375.90 119.13 381.14 119.98 Q 385.30 120.66 390.45 118.27 Q 398.26 114.65 403.70 106.63 A 0.98 0.97 37.7 0 0 403.53 105.35 Q 401.50 103.56 402.09 101.52 Q 402.59 99.81 402.59 99.81 Q 402.83 98.43 403.06 97.05 A 0.99 0.99 17.9 0 1 404.47 96.33 Q 408.41 98.21 411.32 96.93 Q 413.19 96.11 412.90 94.09 Q 411.39 83.34 409.17 73.43 Q 406.95 63.58 406.95 63.56 Q 402.86 44.18 402.44 38.81 Q 402.08 34.33 403.78 30.88 Z"/>
<path fill="rgb(0,0,0)" fill-opacity="1.000" d="M 491.41 31.30 Q 489.26 37.07 483.74 38.97 Q 475.05 41.95 465.99 43.42 A 0.77 0.60 -14.7 0 1 465.22 43.09 Q 464.87 42.33 466.09 41.89 Q 478.98 37.30 490.79 30.77 Q 491.82 30.20 491.41 31.30 Z"/>
<path fill="rgb(0,0,0)" fill-opacity="1.000" d="M 518.72 32.95 Q 519.44 40.02 520.50 46.75 Q 524.05 62.76 526.13 79.02 Q 526.59 82.63 526.41 85.00 Q 526.18 88.00 525.37 90.92 Q 525.00 92.27 524.15 91.79 A 1.03 0.76 -82.3 0 1 523.72 91.01 Q 523.18 82.50 520.75 71.00 Q 518.05 58.19 516.00 45.25 Q 514.58 38.46 517.21 32.70 Q 518.42 30.03 518.72 32.95 Z"/>
<path fill="rgb(0,0,0)" fill-opacity="1.000" d="M 298.50 35.25 Q 299.43 44.17 301.22 52.96 Q 305.28 73.01 307.25 89.25 Q 307.84 94.13 306.35 99.60 Q 306.18 100.25 305.77 100.64 Q 304.51 101.84 304.49 99.50 Q 304.43 94.34 303.47 89.26 Q 300.32 72.46 297.09 55.68 Q 295.88 49.40 295.39 43.02 Q 295.23 40.99 295.77 39.06 Q 296.31 37.11 296.94 35.19 Q 298.11 31.56 298.50 35.25 Z"/>
<path fill="rgb(0,0,0)" fill-opacity="1.000" d="M 429.07 35.34 Q 431.20 52.07 434.31 67.19 Q 437.07 80.60 438.00 91.50 Q 438.34 95.50 437.10 100.11 Q 436.92 100.77 436.55 101.14 Q 435.44 102.24 435.27 100.00 Q 434.88 94.99 434.20 90.02 Q 433.69 86.39 432.38 80.16 Q 428.83 63.29 426.22 46.25 Q 425.34 40.44 427.96 35.15 Q 428.82 33.40 429.07 35.34 Z"/>
<path fill="rgb(0,0,0)" fill-opacity="1.000" d="M 356.59 35.13 Q 357.77 34.76 357.26 35.89 Q 356.33 37.90 355.09 39.44 Q 353.97 40.83 351.74 41.59 Q 331.11 48.59 311.24 58.86 Q 309.49 59.76 310.13 57.90 Q 310.63 56.42 312.17 54.18 Q 313.84 51.76 316.51 50.52 Q 336.22 41.37 356.59 35.13 Z"/>
<path fill="rgb(0,0,0)" fill-opacity="1.000" d="M 399.57 47.95 Q 398.65 50.12 397.29 51.57 Q 396.14 52.81 393.73 53.71 Q 386.95 56.23 379.74 57.15 Q 378.79 57.27 379.24 56.34 A 1.02 1.00 -86.9 0 1 379.82 55.81 Q 389.45 52.49 398.97 47.40 Q 400.05 46.83 399.57 47.95 Z"/>
<path fill="rgb(0,0,0)" fill-opacity="1.000" d="M 360.31 47.51 L 369.42 48.31 A 0.63 0.62 9.8 0 1 369.98 49.08 Q 367.96 56.75 360.64 59.83 Q 359.53 60.30 359.34 59.57 A 0.92 0.67 -29.3 0 1 359.71 58.76 L 363.69 55.69 Q 364.83 54.80 363.56 54.44 Q 360.74 53.63 357.85 53.93 Q 357.31 53.98 356.75 54.33 Q 354.50 55.70 355.76 53.01 Q 356.72 50.97 357.69 48.92 Q 358.45 47.34 360.31 47.51 Z"/>
<path fill="rgb(0,0,0)" fill-opacity="1.000" d="M 487.78 48.61 Q 488.89 52.41 486.25 55.51 Q 484.74 57.27 483.87 56.97 Q 482.22 56.41 480.76 57.35 Q 474.27 61.53 474.25 54.30 A 3.08 3.07 67.3 0 1 475.15 52.10 Q 477.15 50.09 476.51 53.00 Q 476.18 54.54 477.31 55.27 A 1.06 0.93 -37.6 0 0 478.22 55.33 Q 481.04 54.18 481.45 51.03 Q 481.53 50.42 481.79 50.06 Q 482.92 48.51 483.02 51.00 Q 483.12 53.32 484.77 52.85 Q 485.74 52.57 486.18 51.56 Q 486.70 50.37 486.57 48.99 A 1.12 0.56 77.2 0 1 486.79 48.09 Q 487.07 47.85 487.45 48.11 Q 487.68 48.27 487.78 48.61 Z"/>
<path fill="rgb(0,0,0)" fill-opacity="1.000" d="M 267.36 51.13 Q 266.81 52.94 265.94 54.15 Q 264.03 56.81 260.87 57.77 Q 251.32 60.67 248.00 60.75 Q 245.74 60.80 246.93 59.84 Q 247.24 59.59 247.74 59.41 Q 257.55 55.91 266.95 50.79 Q 267.57 50.46 267.36 51.13 Z"/>
<path fill="rgb(0,0,0)" fill-opacity="1.000" d="M 397.13 58.72 Q 398.30 63.48 394.13 66.22 A 1.35 1.31 -53.7 0 1 393.04 66.40 Q 390.85 65.83 389.49 67.42 Q 388.37 68.71 386.67 68.77 Q 382.84 68.89 384.04 63.09 A 3.40 3.36 78.2 0 1 385.35 61.06 Q 386.39 60.30 385.98 62.75 Q 385.61 65.02 387.35 65.07 Q 388.41 65.10 389.25 64.19 Q 390.66 62.68 390.95 60.50 A 1.39 1.00 80.8 0 1 391.37 59.66 Q 392.47 58.78 392.25 60.75 Q 391.97 63.34 393.75 62.75 Q 396.28 61.92 396.06 59.04 Q 395.98 58.05 396.53 58.09 A 0.84 0.60 82.1 0 1 397.13 58.72 Z"/>
<path fill="rgb(0,0,0)" fill-opacity="1.000" d="M 335.47 58.78 Q 342.72 68.09 341.08 80.17 Q 340.99 80.87 340.76 81.27 Q 340.18 82.32 339.50 81.23 Q 339.26 80.83 339.22 80.22 Q 338.82 73.42 335.50 67.60 Q 333.94 64.86 333.78 63.50 Q 333.51 61.21 334.44 58.92 A 0.60 0.60 37.1 0 1 335.47 58.78 Z"/>
<path fill="rgb(0,0,0)" fill-opacity="1.000" d="M 264.91 62.67 Q 265.63 66.77 262.41 69.41 Q 261.21 70.39 259.88 69.81 A 1.75 1.74 31.5 0 0 257.82 70.30 Q 255.99 72.55 253.27 72.21 A 1.87 1.85 86.1 0 1 251.69 70.82 Q 250.85 67.52 253.03 65.01 Q 254.01 63.88 253.85 67.79 A 0.87 0.87 -4.7 0 0 254.89 68.67 Q 258.25 67.99 258.48 64.52 Q 258.52 63.91 258.72 63.53 Q 259.72 61.61 260.00 64.50 Q 260.28 67.43 262.25 66.00 Q 263.74 64.92 263.60 62.99 Q 263.40 60.31 264.54 61.80 Q 264.82 62.17 264.91 62.67 Z"/>
<path fill="rgb(0,0,0)" fill-opacity="1.000" d="M 882.01 63.34 Q 884.56 63.54 888.14 63.93 A 0.65 0.65 -77.0 0 1 888.68 64.80 Q 885.91 72.51 879.65 75.24 Q 879.16 75.46 878.70 75.47 Q 876.93 75.50 878.58 74.08 Q 880.20 72.68 881.95 71.43 Q 883.36 70.42 881.74 69.79 Q 879.59 68.97 876.79 69.37 Q 876.24 69.44 875.31 69.90 Q 873.36 70.87 875.07 67.32 Q 875.63 66.15 876.00 64.90 Q 876.72 62.49 879.52 62.94 Q 881.92 63.33 882.01 63.34 Z"/>
<path fill="rgb(0,0,0)" fill-opacity="1.000" d="M 498.31 65.18 Q 501.64 76.21 504.92 87.26 Q 506.73 93.35 506.54 96.43 Q 506.22 101.53 502.94 105.44 Q 500.88 107.89 497.01 107.40 Q 490.18 106.55 488.17 100.75 Q 487.64 99.21 487.09 100.74 Q 484.44 108.12 476.77 108.92 Q 467.68 109.87 466.50 101.30 A 0.60 0.43 80.0 0 0 465.94 100.76 Q 465.64 100.84 465.50 101.25 Q 464.50 104.27 462.25 104.25 Q 456.02 104.19 448.87 102.57 A 1.07 1.05 18.4 0 1 448.12 101.11 L 451.40 93.88 Q 452.14 92.26 453.99 91.90 Q 459.71 90.80 465.53 88.15 A 2.04 2.04 -3.7 0 0 466.63 86.90 Q 467.97 82.72 468.88 79.67 Q 469.14 78.80 469.77 79.05 A 0.86 0.66 -81.8 0 1 470.19 79.80 Q 470.30 87.40 470.27 95.00 Q 470.26 97.86 472.09 99.41 Q 473.50 100.61 476.20 100.71 Q 480.22 100.86 483.19 99.19 Q 486.60 97.26 485.92 92.72 Q 483.61 77.33 483.50 76.75 Q 482.44 71.28 484.25 66.00 Q 485.36 62.78 485.75 66.25 Q 487.10 78.21 489.61 89.98 Q 491.79 100.18 501.59 99.31 Q 504.41 99.06 503.46 96.39 Q 501.68 91.35 499.93 86.33 Q 496.77 77.28 496.55 76.25 Q 495.36 70.83 496.52 65.26 Q 497.26 61.71 498.31 65.18 Z M 466.14 95.76 Q 466.75 93.34 466.37 91.48 A 0.39 0.37 -20.4 0 0 465.81 91.24 Q 461.60 93.52 458.44 94.69 Q 457.78 94.93 457.74 95.45 A 0.61 0.46 4.8 0 0 458.31 95.96 L 465.08 96.48 A 1.02 0.98 9.6 0 0 466.14 95.76 Z"/>
<path fill="rgb(0,0,0)" fill-opacity="1.000" d="M 365.77 70.71 Q 380.68 82.50 398.06 86.17 A 1.17 1.17 -73.8 0 1 398.91 87.72 Q 397.47 91.55 395.08 90.86 Q 380.30 86.61 365.58 88.43 Q 363.37 88.70 364.76 90.45 Q 369.81 96.77 364.32 101.62 A 1.44 1.39 22.6 0 1 363.45 101.96 Q 357.09 102.24 351.23 99.74 A 0.72 0.72 22.9 0 0 350.29 100.12 Q 346.92 107.89 338.24 108.00 A 1.54 1.52 3.0 0 0 336.74 109.34 Q 336.38 112.24 335.24 114.90 Q 334.24 117.22 331.96 119.51 Q 321.75 129.77 307.31 135.31 Q 283.99 144.27 260.75 146.46 Q 238.74 148.54 216.89 145.93 Q 205.38 144.55 197.13 142.91 Q 183.05 140.10 170.31 134.44 Q 165.83 132.44 162.03 128.99 Q 160.05 127.18 156.08 122.90 Q 152.78 119.35 150.81 116.19 Q 149.75 114.48 151.30 114.80 Q 151.76 114.89 152.23 115.28 Q 161.74 123.10 172.50 127.25 Q 188.03 133.23 205.72 136.19 Q 229.20 140.12 253.00 139.25 Q 284.18 138.11 312.87 126.02 Q 323.44 121.57 332.58 114.10 Q 334.39 112.61 333.96 110.31 Q 333.21 106.29 331.01 102.67 A 1.36 0.91 44.7 0 1 330.82 101.75 L 332.69 95.17 Q 333.27 93.14 334.09 95.19 Q 336.56 101.39 343.75 100.02 Q 349.16 99.00 350.67 94.01 Q 351.31 91.90 351.31 91.90 Q 354.00 85.04 361.67 84.01 Q 367.82 83.19 374.01 83.75 Q 375.34 83.87 374.21 83.17 Q 367.61 79.08 359.78 77.71 Q 358.48 77.48 357.23 77.79 Q 355.97 78.10 354.74 78.50 Q 353.56 78.89 354.01 77.73 Q 355.85 72.97 360.06 70.06 Q 362.67 68.26 365.77 70.71 Z M 353.22 92.32 A 1.20 1.10 -72.8 0 0 353.92 93.80 L 360.78 95.90 Q 362.87 96.54 361.57 94.70 Q 359.56 91.84 356.19 90.97 Q 353.86 90.37 353.22 92.32 Z"/>
<path fill="rgb(0,0,0)" fill-opacity="1.000" d="M 908.56 74.43 Q 911.62 81.81 914.39 89.29 Q 916.55 95.15 916.57 98.03 Q 916.61 102.87 913.60 106.97 Q 912.24 108.81 909.97 108.55 Q 904.85 107.97 900.37 106.20 A 1.39 1.39 -71.8 0 0 898.51 107.14 Q 897.91 109.50 896.28 110.67 Q 894.94 111.62 892.56 111.16 Q 888.43 110.35 884.46 108.92 A 0.72 0.68 -60.0 0 0 883.69 109.15 Q 882.59 110.48 881.19 111.42 Q 879.93 112.27 878.08 112.38 Q 870.63 112.82 863.39 110.47 A 4.84 4.84 -44.4 0 0 860.46 110.44 Q 849.27 113.83 837.97 115.83 Q 808.43 121.06 778.50 123.31 Q 739.69 126.22 700.77 126.88 Q 700.49 126.88 682.22 127.21 Q 634.68 128.08 587.27 124.28 Q 569.11 122.83 551.27 119.17 Q 545.52 117.99 539.87 115.95 Q 537.60 115.13 537.32 117.53 Q 536.99 120.32 534.25 120.00 Q 527.67 118.36 521.04 116.92 A 0.59 0.56 -72.2 0 0 520.38 117.28 Q 519.21 120.20 517.44 121.44 Q 510.31 126.40 499.98 129.36 Q 499.41 129.53 499.01 129.42 Q 498.14 129.18 498.76 128.39 Q 498.98 128.11 499.45 127.83 Q 508.40 122.48 517.31 117.06 Q 519.12 116.19 518.24 114.43 A 2.03 1.34 43.9 0 1 518.03 113.50 Q 518.67 104.99 524.82 99.53 Q 526.26 98.25 527.55 99.68 Q 529.90 102.27 532.88 104.08 Q 541.13 109.08 550.69 110.56 Q 560.07 112.45 569.56 113.68 Q 603.40 118.06 637.50 118.81 Q 711.72 120.43 785.76 115.09 Q 806.72 113.58 827.58 110.98 Q 842.33 109.14 856.73 105.41 Q 862.52 103.92 867.76 100.99 Q 869.61 99.96 869.02 101.96 L 868.43 103.94 A 1.00 0.98 -79.5 0 0 869.29 105.22 Q 875.26 105.66 880.89 104.98 Q 882.89 104.74 883.42 102.81 Q 884.24 99.80 885.56 97.28 Q 885.87 96.68 886.26 96.54 Q 886.97 96.27 887.30 97.42 A 4.24 4.20 -44.8 0 1 887.28 99.80 Q 886.37 102.86 888.50 103.00 Q 889.41 103.06 889.49 103.08 Q 892.13 103.49 894.97 103.77 A 1.69 1.69 9.0 0 0 896.79 102.45 Q 897.25 100.35 897.64 97.73 Q 897.89 96.03 898.91 95.17 Q 900.21 94.08 900.25 95.73 L 900.34 99.45 A 0.73 0.65 -82.1 0 0 900.78 100.11 Q 904.99 101.59 909.50 101.25 Q 915.13 102.12 912.50 97.25 Q 909.65 89.94 906.76 82.65 Q 906.01 80.76 906.27 78.72 Q 906.54 76.56 906.74 74.69 Q 907.14 71.01 908.56 74.43 Z M 529.40 109.23 Q 527.45 107.08 525.37 104.72 A 0.58 0.48 47.0 0 0 524.60 104.62 L 522.09 107.14 A 1.22 1.07 29.6 0 0 522.73 108.99 L 530.74 111.58 Q 532.23 112.06 531.25 110.83 Q 530.90 110.39 530.33 110.01 Q 529.73 109.59 529.40 109.23 Z"/>
<rect fill="rgb(0,0,0)" fill-opacity="1.000" x="-3.76" y="-4.04" width="7.52" height="8.08" rx="1.00" transform="translate(322.86,80.06) rotate(37.6)"/>
<path fill="rgb(0,0,0)" fill-opacity="1.000" d="M 224.32 78.03 Q 243.55 87.31 264.94 88.05 A 0.45 0.39 8.0 0 1 265.38 88.55 L 263.93 93.36 A 1.29 1.08 10.0 0 1 262.63 94.11 Q 246.31 92.79 232.44 98.44 Q 229.28 99.73 224.19 101.01 Q 218.83 102.37 215.70 101.95 Q 210.74 101.29 206.87 97.73 A 1.16 1.14 -41.5 0 0 205.41 97.65 Q 201.29 100.69 197.23 101.93 Q 172.88 109.39 147.43 107.18 Q 135.62 106.16 125.40 101.78 A 1.47 1.47 19.7 0 0 123.41 102.72 Q 122.89 104.49 121.84 105.39 A 1.02 1.01 31.5 0 1 120.95 105.60 L 107.39 102.29 A 1.16 1.07 19.5 0 0 106.11 102.84 Q 104.62 105.87 102.06 107.48 Q 94.42 112.29 85.76 114.85 Q 85.16 115.03 84.73 114.90 Q 83.78 114.61 84.58 113.77 Q 84.84 113.49 85.36 113.19 Q 94.46 107.77 103.39 102.41 A 1.07 1.06 76.2 0 0 103.91 101.55 Q 104.40 90.61 111.20 84.69 A 1.13 1.13 -42.3 0 1 112.75 84.76 Q 121.76 94.18 134.99 96.79 Q 163.35 102.41 191.38 96.19 Q 198.47 94.61 200.71 93.79 Q 205.30 92.11 209.15 88.89 Q 209.86 88.29 210.13 89.02 A 1.53 0.75 -60.2 0 1 210.07 89.97 Q 209.65 91.16 209.75 92.44 A 0.90 0.83 11.1 0 0 210.27 93.15 Q 215.69 95.59 220.00 95.00 Q 230.13 93.61 239.70 90.76 Q 241.30 90.28 239.70 89.81 Q 230.96 87.29 221.99 85.81 Q 217.85 85.13 213.75 86.00 Q 210.61 86.67 212.31 84.31 Q 214.76 80.93 217.69 77.94 Q 219.89 75.68 223.21 77.44 Q 224.26 78.00 224.32 78.03 Z M 116.32 95.95 L 112.21 91.40 A 1.92 1.71 48.9 0 0 109.71 91.08 Q 107.55 92.89 108.00 93.98 Q 108.27 94.61 110.16 95.16 Q 113.33 96.09 115.74 96.91 Q 117.83 97.62 116.32 95.95 Z"/>
<path fill="rgb(41,16,34)" fill-opacity="0.000" d="M 112.21 91.40 L 116.32 95.95 Q 117.83 97.62 115.74 96.91 Q 113.33 96.09 110.16 95.16 Q 108.27 94.61 108.00 93.98 Q 107.55 92.89 109.71 91.08 A 1.92 1.71 48.9 0 1 112.21 91.40 Z"/>
<path fill="rgb(41,16,34)" fill-opacity="0.000" d="M 356.19 90.97 Q 359.56 91.84 361.57 94.70 Q 362.87 96.54 360.78 95.90 L 353.92 93.80 A 1.20 1.10 -72.8 0 1 353.22 92.32 Q 353.86 90.37 356.19 90.97 Z"/>
<path fill="rgb(41,16,34)" fill-opacity="0.000" d="M 466.37 91.48 Q 466.75 93.34 466.14 95.76 A 1.02 0.98 9.6 0 1 465.08 96.48 L 458.31 95.96 A 0.61 0.46 4.8 0 1 457.74 95.45 Q 457.78 94.93 458.44 94.69 Q 461.60 93.52 465.81 91.24 A 0.39 0.37 -20.4 0 1 466.37 91.48 Z"/>
<path fill="rgb(41,16,34)" fill-opacity="0.000" d="M 525.37 104.72 Q 527.45 107.08 529.40 109.23 Q 529.73 109.59 530.33 110.01 Q 530.90 110.39 531.25 110.83 Q 532.23 112.06 530.74 111.58 L 522.73 108.99 A 1.22 1.07 29.6 0 1 522.09 107.14 L 524.60 104.62 A 0.58 0.48 47.0 0 1 525.37 104.72 Z"/>
<path fill="rgb(0,0,0)" fill-opacity="1.000" d="M 230.20 106.77 Q 231.07 106.31 230.75 107.24 Q 230.03 109.38 228.62 111.11 Q 226.10 114.19 222.24 115.35 Q 214.34 117.71 206.22 119.17 Q 205.64 119.27 205.29 119.09 Q 204.66 118.76 205.25 118.11 Q 205.49 117.84 205.97 117.66 Q 218.50 113.06 230.20 106.77 Z"/>
<path fill="rgb(0,0,0)" fill-opacity="1.000" d="M 113.84 111.85 Q 113.35 112.91 112.69 113.87 Q 111.77 115.22 110.65 116.23 Q 109.67 117.11 107.99 117.76 Q 98.94 121.26 89.31 122.62 A 0.80 0.49 -10.5 0 1 88.51 122.31 Q 88.41 122.05 88.63 121.76 Q 88.76 121.58 89.06 121.46 Q 98.92 117.41 108.65 113.11 Q 111.16 112.00 113.31 110.31 Q 114.88 109.58 113.84 111.85 Z"/>
<path fill="rgb(0,0,0)" fill-opacity="1.000" d="M 191.43 111.01 L 195.89 114.51 A 0.96 0.91 -53.0 0 1 196.04 115.79 L 192.71 120.37 A 1.63 1.31 36.9 0 1 190.60 120.44 L 186.70 117.48 A 0.60 0.58 37.5 0 0 185.88 117.57 L 183.43 120.70 A 1.85 1.68 -52.2 0 1 180.98 121.13 L 177.92 118.76 Q 176.35 117.55 177.44 116.08 L 180.69 111.72 A 0.84 0.83 38.1 0 1 181.89 111.58 L 186.14 115.08 A 1.09 1.07 32.2 0 0 187.80 114.72 Q 188.88 112.44 190.60 111.05 A 0.71 0.62 -44.2 0 1 191.43 111.01 Z"/>
<path fill="rgb(0,0,0)" fill-opacity="1.000" d="M 460.75 111.50 Q 461.98 110.46 461.50 112.00 Q 460.83 114.15 459.47 115.94 Q 457.80 118.14 455.21 119.15 Q 446.53 122.55 436.25 124.25 Q 435.27 124.41 435.09 123.80 A 0.67 0.51 -20.2 0 1 435.52 123.13 Q 446.58 118.63 457.41 113.62 Q 459.22 112.79 460.75 111.50 Z"/>
<rect fill="rgb(0,0,0)" fill-opacity="1.000" x="-3.77" y="-4.00" width="7.54" height="8.00" rx="1.09" transform="translate(912.55,119.89) rotate(38.0)"/>
<path fill="rgb(0,0,0)" fill-opacity="1.000" d="M 921.76 126.24 Q 920.97 128.34 919.20 130.51 Q 917.91 132.07 916.03 132.83 Q 907.20 136.35 897.75 137.75 Q 896.52 137.93 896.33 137.31 A 0.69 0.49 -21.3 0 1 896.78 136.62 Q 906.54 132.65 916.15 128.34 Q 918.73 127.19 920.89 125.58 Q 922.42 124.45 921.76 126.24 Z"/>
<path fill="rgb(0,0,0)" fill-opacity="1.000" d="M 533.89 126.52 Q 533.21 129.01 531.69 130.68 Q 529.86 132.68 527.45 133.72 Q 526.89 133.96 522.55 135.26 Q 516.25 137.16 509.76 138.31 Q 507.88 138.65 508.33 137.51 A 1.30 0.94 -5.2 0 1 509.04 136.89 Q 521.67 132.38 533.27 126.03 Q 534.16 125.54 533.89 126.52 Z"/>
<path fill="rgb(0,0,0)" fill-opacity="1.000" d="M 336.75 131.73 Q 336.09 133.91 334.69 135.66 Q 333.01 137.76 330.44 138.70 Q 321.57 141.95 312.24 143.42 A 1.07 0.67 -18.2 0 1 311.35 143.20 Q 311.09 142.89 311.29 142.47 A 1.36 0.78 -7.4 0 1 312.04 141.90 Q 324.55 137.53 336.12 131.22 Q 337.07 130.71 336.75 131.73 Z"/>
</svg>