<?xml version="1.0" encoding="UTF-8" standalone="no"?>
<!DOCTYPE svg PUBLIC "-//W3C//DTD SVG 1.1//EN" "http://www.w3.org/Graphics/SVG/1.1/DTD/svg11.dtd">
<svg xmlns="http://www.w3.org/2000/svg" version="1.1" viewBox="0 0 1600 266">
<path fill="rgb(0,0,0)" fill-opacity="1.000" d="M 858.44 29.31 Q 862.98 32.60 863.04 38.50 Q 863.11 46.25 856.43 50.60 A 1.70 1.68 66.2 0 0 855.73 52.43 Q 856.90 56.89 857.41 61.44 Q 858.23 68.76 858.53 70.52 Q 861.99 90.47 865.63 110.40 Q 866.77 116.62 867.39 122.66 Q 868.02 128.84 868.64 135.01 Q 869.49 143.50 866.56 151.56 Q 865.30 155.03 862.19 156.77 A 1.21 1.21 -51.1 0 1 861.27 156.87 Q 855.29 155.11 855.10 148.50 Q 854.85 139.56 853.16 130.77 Q 848.40 105.92 844.13 80.98 Q 842.67 72.44 843.14 63.82 Q 843.23 62.07 844.07 58.91 Q 844.72 56.47 844.91 53.95 Q 844.95 53.37 844.56 53.57 Q 844.36 53.67 844.29 54.01 Q 843.44 57.80 840.20 58.41 Q 838.20 58.78 836.42 57.80 Q 834.64 56.81 833.62 54.84 Q 832.28 52.23 830.80 49.69 Q 827.78 44.49 829.88 38.11 A 2.89 2.89 -1.3 0 1 831.61 36.30 Q 835.13 34.98 838.41 36.84 A 1.14 1.14 -59.2 0 0 839.94 36.45 Q 843.32 31.08 849.47 28.43 Q 854.33 26.34 858.44 29.31 Z M 843.88 38.64 Q 843.05 39.67 842.25 40.73 Q 839.62 44.25 835.71 40.63 A 1.13 1.13 39.5 0 0 834.03 40.79 Q 832.41 43.02 834.28 46.26 Q 836.48 50.05 838.74 53.81 A 0.38 0.34 49.4 0 0 839.34 53.89 Q 839.79 53.29 839.75 52.50 Q 839.56 48.98 842.64 49.39 Q 843.82 49.54 843.85 49.55 Q 851.20 50.00 856.10 44.60 Q 858.63 41.80 858.57 38.35 Q 858.53 35.76 856.86 34.09 Q 855.25 32.48 852.80 32.12 A 1.64 1.55 -52.5 0 0 851.87 32.27 Q 847.17 34.55 843.88 38.64 Z M 850.47 54.86 Q 847.11 61.49 847.31 68.83 Q 847.33 69.69 849.13 82.70 Q 850.71 94.18 853.16 105.52 Q 858.09 128.42 860.26 151.84 Q 860.42 153.58 861.14 151.99 Q 865.35 142.69 864.20 132.73 Q 862.72 119.89 860.40 107.17 Q 855.69 81.27 851.72 55.06 Q 851.41 53.01 850.47 54.86 Z"/>
<path fill="rgb(0,0,0)" fill-opacity="1.000" d="M 504.25 30.50 Q 512.51 33.80 512.06 41.72 Q 511.85 45.50 509.30 48.53 Q 506.84 51.46 503.32 53.31 A 1.20 1.18 66.9 0 0 502.75 54.75 Q 504.54 60.01 505.17 65.48 Q 506.19 74.41 506.38 75.46 Q 511.55 104.61 516.53 133.80 Q 517.29 138.22 517.55 142.26 Q 517.82 146.50 518.00 150.75 Q 518.16 154.56 517.66 158.29 Q 516.83 164.51 516.40 165.70 Q 514.94 169.74 509.92 169.48 Q 507.70 169.37 506.53 167.98 Q 505.29 166.51 505.00 164.25 Q 504.47 160.18 504.09 156.09 Q 503.68 151.60 502.99 147.96 Q 498.47 123.96 493.92 99.97 Q 491.51 87.30 490.25 74.50 Q 489.35 65.33 493.94 57.19 Q 494.39 56.33 493.78 55.98 A 0.49 0.42 -65.8 0 0 493.15 56.28 Q 490.99 62.22 485.94 60.28 Q 483.97 59.52 482.57 57.14 Q 480.33 53.33 478.44 49.31 Q 475.25 42.55 481.16 38.65 Q 484.10 36.71 486.85 38.54 A 1.33 1.33 -54.2 0 0 488.64 38.25 Q 492.30 33.51 497.58 30.84 Q 500.89 29.16 504.25 30.50 Z M 491.69 41.94 Q 488.39 46.40 484.79 42.92 A 1.04 0.84 58.2 0 0 483.95 42.63 Q 482.00 43.00 481.88 44.71 Q 481.81 45.62 482.52 47.19 Q 484.62 51.92 487.57 56.19 Q 488.27 57.22 488.50 55.99 Q 488.87 54.05 488.82 52.54 A 1.30 1.29 2.0 0 1 490.24 51.22 Q 499.83 52.20 505.49 45.69 Q 507.71 43.14 507.57 40.65 Q 507.39 37.57 504.25 35.50 Q 502.66 34.45 501.01 34.57 Q 499.77 34.66 498.07 35.81 Q 494.35 38.33 491.69 41.94 Z M 498.51 58.49 Q 494.83 64.75 494.78 71.82 Q 494.76 73.78 496.50 85.17 Q 500.64 112.31 506.00 139.25 Q 508.52 151.90 510.00 164.75 Q 510.13 165.62 510.71 165.58 A 1.00 0.66 -73.9 0 0 511.40 164.99 Q 512.98 161.66 513.27 158.06 Q 513.33 157.31 513.29 150.96 Q 513.25 143.58 512.08 136.28 Q 508.86 116.01 505.05 95.84 Q 501.59 77.49 499.54 58.71 Q 499.36 57.05 498.51 58.49 Z"/>
<path fill="rgb(0,0,0)" fill-opacity="1.000" d="M 719.57 35.98 Q 722.27 39.96 720.81 45.52 Q 719.26 51.43 713.02 54.24 A 1.23 1.22 -17.0 0 0 712.31 55.56 Q 718.35 92.53 724.50 128.25 Q 726.36 139.03 727.05 149.91 Q 727.29 153.62 726.94 157.10 Q 726.57 160.68 726.00 164.25 Q 725.43 167.79 723.05 169.42 Q 720.58 171.10 717.81 169.84 Q 714.76 168.45 714.19 164.31 Q 711.61 145.58 707.88 127.02 Q 702.92 102.35 699.31 77.44 Q 697.78 66.81 703.15 57.42 A 0.42 0.29 -49.9 0 0 703.18 57.07 Q 703.13 56.98 703.06 56.91 A 0.49 0.37 -44.1 0 0 702.48 56.98 Q 701.46 57.90 701.29 59.25 A 1.53 1.04 81.4 0 1 700.89 60.09 Q 698.77 62.02 696.30 61.58 Q 694.46 61.25 692.83 59.03 Q 689.93 55.06 687.71 50.64 Q 685.12 45.47 687.84 39.88 Q 688.55 38.42 690.12 37.98 Q 693.77 36.96 697.03 39.15 A 0.62 0.60 39.2 0 0 697.80 39.08 Q 699.83 37.08 701.69 34.94 Q 706.47 29.42 712.38 30.98 Q 717.02 32.21 719.57 35.98 Z M 697.92 53.58 A 2.17 2.17 -78.2 0 1 700.04 52.19 Q 707.31 52.49 712.21 49.22 Q 715.62 46.94 716.55 43.78 Q 717.78 39.63 713.69 36.31 Q 711.69 34.70 709.48 35.11 Q 707.94 35.39 706.03 37.18 Q 702.71 40.30 700.08 44.06 Q 697.60 47.61 694.36 43.30 Q 692.97 41.45 691.57 43.29 Q 690.36 44.88 691.07 47.20 Q 691.39 48.24 692.89 50.48 Q 694.80 53.34 696.31 56.44 Q 697.47 58.80 697.51 56.17 Q 697.53 54.57 697.92 53.58 Z M 707.44 58.93 Q 703.80 66.31 703.86 74.16 Q 703.87 76.16 705.79 89.34 Q 707.48 100.89 709.74 112.35 Q 714.96 138.70 719.07 165.24 Q 719.24 166.35 719.95 166.31 A 0.92 0.66 -77.0 0 0 720.62 165.72 Q 722.96 159.44 722.61 152.69 Q 722.23 145.32 721.06 138.03 Q 714.71 98.51 708.26 59.06 Q 708.04 57.72 707.44 58.93 Z"/>
<path fill="rgb(252,252,252)" fill-opacity="1.000" d="M 852.80 32.12 Q 855.25 32.48 856.86 34.09 Q 858.53 35.76 858.57 38.35 Q 858.63 41.80 856.10 44.60 Q 851.20 50.00 843.85 49.55 Q 843.82 49.54 842.64 49.39 Q 839.56 48.98 839.75 52.50 Q 839.79 53.29 839.34 53.89 A 0.38 0.34 49.4 0 1 838.74 53.81 Q 836.48 50.05 834.28 46.26 Q 832.41 43.02 834.03 40.79 A 1.13 1.13 39.5 0 1 835.71 40.63 Q 839.62 44.25 842.25 40.73 Q 843.05 39.67 843.88 38.64 Q 847.17 34.55 851.87 32.27 A 1.64 1.55 -52.5 0 1 852.80 32.12 Z M 854.5436 38.7878 A 5.09 2.17 -23.9 0 0 849.0109 38.8661 A 5.09 2.17 -23.9 0 0 845.2365 42.9122 A 5.09 2.17 -23.9 0 0 850.7692 42.8339 A 5.09 2.17 -23.9 0 0 854.5436 38.7878 Z"/>
<path fill="rgb(252,252,252)" fill-opacity="1.000" d="M 504.25 35.50 Q 507.39 37.57 507.57 40.65 Q 507.71 43.14 505.49 45.69 Q 499.83 52.20 490.24 51.22 A 1.30 1.29 2.0 0 0 488.82 52.54 Q 488.87 54.05 488.50 55.99 Q 488.27 57.22 487.57 56.19 Q 484.62 51.92 482.52 47.19 Q 481.81 45.62 481.88 44.71 Q 482.00 43.00 483.95 42.63 A 1.04 0.84 58.2 0 1 484.79 42.92 Q 488.39 46.40 491.69 41.94 Q 494.35 38.33 498.07 35.81 Q 499.77 34.66 501.01 34.57 Q 502.66 34.45 504.25 35.50 Z M 494.49 44.29 Q 493.73 45.31 495.01 45.32 Q 498.33 45.34 501.57 43.63 Q 502.78 42.99 503.07 42.05 Q 503.43 40.88 502.38 40.20 Q 501.68 39.74 500.68 39.97 Q 497.09 40.80 494.49 44.29 Z"/>
<path fill="rgb(252,252,252)" fill-opacity="1.000" d="M 713.69 36.31 Q 717.78 39.63 716.55 43.78 Q 715.62 46.94 712.21 49.22 Q 707.31 52.49 700.04 52.19 A 2.17 2.17 -78.2 0 0 697.92 53.58 Q 697.53 54.57 697.51 56.17 Q 697.47 58.80 696.31 56.44 Q 694.80 53.34 692.89 50.48 Q 691.39 48.24 691.07 47.20 Q 690.36 44.88 691.57 43.29 Q 692.97 41.45 694.36 43.30 Q 697.60 47.61 700.08 44.06 Q 702.71 40.30 706.03 37.18 Q 707.94 35.39 709.48 35.11 Q 711.69 34.70 713.69 36.31 Z M 703.61 44.88 Q 702.60 46.51 704.51 46.37 Q 707.87 46.14 711.79 44.13 A 1.28 1.27 -40.0 0 0 711.98 41.97 Q 707.48 38.63 703.61 44.88 Z"/>
<ellipse fill="rgb(0,0,0)" fill-opacity="1.000" cx="0" cy="0" rx="5.09" ry="2.17" transform="translate(849.89,40.85) rotate(-23.9)"/>
<path fill="rgb(0,0,0)" fill-opacity="1.000" d="M 502.38 40.20 Q 503.43 40.88 503.07 42.05 Q 502.78 42.99 501.57 43.63 Q 498.33 45.34 495.01 45.32 Q 493.73 45.31 494.49 44.29 Q 497.09 40.80 500.68 39.97 Q 501.68 39.74 502.38 40.20 Z"/>
<path fill="rgb(0,0,0)" fill-opacity="1.000" d="M 711.98 41.97 A 1.28 1.27 -40.0 0 1 711.79 44.13 Q 707.87 46.14 704.51 46.37 Q 702.60 46.51 703.61 44.88 Q 707.48 38.63 711.98 41.97 Z"/>
<path fill="rgb(0,0,0)" fill-opacity="1.000" d="M 460.75 45.75 Q 464.37 45.76 465.66 48.57 Q 465.66 48.58 466.20 50.48 Q 466.90 52.97 469.47 53.98 Q 474.91 56.11 474.76 61.05 Q 474.71 62.72 473.04 67.18 Q 471.92 70.18 470.91 73.22 Q 470.24 75.22 470.65 77.33 Q 476.03 105.45 481.75 133.50 Q 482.69 138.12 483.27 142.82 Q 483.94 148.26 483.56 152.20 Q 483.09 157.10 481.50 161.75 Q 479.96 166.24 476.86 169.89 Q 475.43 171.57 473.68 172.60 Q 471.94 173.63 469.86 174.39 A 1.51 1.50 0.9 0 0 468.98 175.24 Q 461.28 194.13 446.29 204.64 Q 446.23 204.68 444.40 206.08 Q 442.27 207.71 439.69 208.19 Q 421.56 211.54 409.11 198.13 Q 401.12 189.52 398.71 178.01 Q 397.98 174.49 398.96 171.06 Q 399.81 168.07 403.25 167.75 Q 405.76 167.52 407.26 168.80 Q 408.07 169.49 409.15 172.10 Q 411.35 177.41 414.25 182.36 Q 416.10 185.53 418.02 186.97 Q 420.56 188.88 423.68 189.40 Q 427.19 189.99 432.16 188.29 Q 444.64 184.01 452.76 173.09 A 1.40 1.39 -50.3 0 0 452.59 171.23 Q 451.19 169.94 451.23 168.09 Q 451.24 167.85 451.75 164.91 Q 452.71 159.45 454.90 154.35 Q 456.29 151.10 460.01 151.65 Q 463.26 152.13 465.12 152.99 Q 469.11 154.81 468.57 150.46 Q 467.94 145.46 467.23 140.49 Q 466.57 135.86 465.42 130.59 Q 458.59 99.39 452.60 68.03 Q 450.56 57.39 456.04 48.25 Q 457.54 45.74 460.75 45.75 Z M 460.65 49.99 Q 456.92 55.30 456.83 61.46 Q 456.80 63.25 458.46 73.02 Q 460.01 82.19 461.76 91.33 Q 462.69 96.13 465.60 109.51 Q 469.98 129.65 473.22 150.00 Q 473.52 151.87 473.49 154.23 Q 473.46 156.99 470.74 157.47 Q 465.03 158.47 459.53 156.26 A 0.51 0.50 22.2 0 0 458.87 156.53 Q 456.68 161.81 456.22 167.91 A 1.58 1.57 13.6 0 0 457.19 169.49 Q 458.48 170.03 459.07 171.29 A 1.01 0.87 -44.2 0 1 458.99 172.18 Q 450.17 186.54 434.06 192.56 Q 426.78 195.29 420.28 193.21 Q 415.14 191.57 411.23 186.31 Q 407.34 181.08 405.44 174.56 Q 404.22 170.39 403.06 173.15 Q 402.73 173.93 402.91 174.90 Q 405.41 188.42 415.81 197.42 Q 421.69 202.51 429.50 204.00 Q 434.13 204.88 438.26 203.65 Q 441.45 202.70 445.65 199.41 Q 459.67 188.42 465.27 171.19 A 1.30 1.30 -85.2 0 1 466.31 170.31 Q 472.79 169.37 475.61 163.52 Q 479.55 155.33 479.15 146.70 Q 479.07 144.79 476.27 130.19 Q 473.85 117.53 471.08 104.94 Q 468.50 93.19 466.66 81.30 Q 466.65 81.24 466.05 78.36 Q 465.26 74.57 466.75 70.89 Q 468.72 66.03 470.25 61.00 A 1.47 1.46 -72.0 0 0 469.33 59.19 Q 463.12 57.03 461.39 50.13 Q 461.17 49.25 460.65 49.99 Z"/>
<path fill="rgb(0,0,0)" fill-opacity="1.000" d="M 672.92 49.46 Q 674.32 50.76 675.20 52.52 Q 676.63 55.38 679.66 56.49 Q 684.89 58.39 683.68 63.98 Q 682.72 68.39 681.00 72.50 Q 679.57 75.91 679.72 79.36 Q 679.76 80.20 680.89 86.12 Q 685.68 111.19 690.80 136.19 Q 693.02 147.04 691.42 157.99 Q 690.04 167.41 682.97 173.71 Q 681.28 175.22 679.10 175.49 A 1.30 1.29 -82.8 0 0 678.04 176.32 Q 674.77 184.99 670.49 191.43 Q 665.01 199.70 656.93 205.42 Q 649.53 210.65 641.16 210.47 Q 633.92 210.32 626.22 205.56 Q 611.09 196.19 607.35 177.67 Q 606.88 175.33 607.27 173.81 Q 607.80 171.71 609.37 170.38 Q 611.63 168.46 614.43 169.53 Q 617.69 170.76 618.69 174.81 Q 619.66 178.79 621.63 182.32 Q 623.77 186.15 626.77 188.38 Q 634.28 193.97 643.90 188.99 Q 649.04 186.33 653.81 183.06 Q 658.59 179.78 661.17 175.47 Q 662.09 173.92 661.29 172.32 Q 659.66 169.09 660.68 166.26 Q 661.21 164.76 661.23 164.70 Q 661.74 162.87 662.11 161.01 Q 662.72 157.93 663.50 156.67 Q 666.46 151.91 673.00 154.41 Q 674.70 155.07 676.50 154.75 Q 678.64 154.37 677.81 152.19 Q 674.91 135.45 671.33 118.83 Q 667.67 101.86 665.02 86.33 Q 664.53 83.44 663.28 86.09 Q 661.66 89.55 659.32 91.36 A 1.01 1.00 -44.8 0 0 659.31 92.94 Q 661.14 94.38 661.73 96.47 Q 662.11 97.83 662.17 100.55 Q 662.27 105.10 659.86 109.14 Q 656.22 115.23 649.13 114.76 A 1.88 1.86 -64.1 0 0 647.75 115.25 Q 641.48 121.05 634.95 116.34 Q 633.64 115.39 633.02 114.22 Q 632.32 112.88 632.18 111.37 Q 632.11 110.59 632.09 107.12 Q 632.07 103.54 633.81 100.31 Q 634.25 99.51 633.34 99.59 Q 630.74 99.84 628.09 99.34 Q 625.00 98.75 623.79 96.80 Q 622.51 94.72 623.83 92.43 Q 624.66 90.99 626.88 89.92 Q 634.18 86.40 641.79 83.60 Q 650.32 80.47 656.55 76.18 Q 658.04 75.16 659.82 74.86 Q 662.85 74.36 662.19 71.76 Q 659.44 60.99 664.26 51.04 Q 666.06 47.29 669.63 47.82 Q 671.43 48.08 672.92 49.46 Z M 680.98 158.37 Q 674.63 160.75 668.55 157.78 A 0.60 0.60 22.0 0 0 667.71 158.13 Q 666.11 162.98 665.19 167.96 Q 664.95 169.20 665.31 170.02 Q 665.79 171.14 666.79 171.62 Q 668.63 172.50 667.56 174.24 Q 657.80 190.06 640.19 195.44 Q 634.92 197.04 629.61 195.06 Q 619.82 191.40 616.11 181.59 Q 614.82 178.19 613.60 174.77 Q 613.42 174.25 613.08 173.99 Q 612.13 173.23 612.00 174.50 Q 611.76 176.80 612.39 178.99 Q 612.51 179.43 613.92 183.16 Q 618.95 196.48 631.03 202.90 Q 637.43 206.30 643.49 205.79 Q 651.24 205.13 657.43 199.45 Q 668.64 189.17 673.89 173.59 A 2.30 2.27 0.4 0 1 675.38 172.14 Q 681.39 170.25 684.20 165.04 Q 686.10 161.50 687.12 154.74 Q 688.28 147.03 686.64 139.22 Q 680.35 109.30 674.75 79.25 Q 674.28 76.74 675.28 74.30 Q 677.74 68.30 679.06 62.78 A 1.48 1.46 -65.8 0 0 678.49 61.24 Q 672.64 57.07 669.75 52.45 Q 669.19 51.55 668.71 52.50 Q 666.00 58.02 666.02 63.72 Q 666.03 65.72 667.69 74.87 Q 674.15 110.39 681.50 145.75 Q 682.74 151.71 681.54 157.70 A 0.92 0.91 85.3 0 1 680.98 158.37 Z M 628.54 94.90 A 0.45 0.45 4.2 0 0 629.05 95.49 Q 639.95 93.41 650.56 90.11 Q 655.00 88.72 657.16 86.55 Q 659.96 83.75 661.48 79.60 Q 661.98 78.25 660.78 79.04 Q 655.28 82.69 649.88 85.04 Q 639.57 89.52 629.22 93.89 A 0.97 0.97 -2.1 0 0 628.67 94.48 Q 628.62 94.66 628.54 94.90 Z M 639.94 106.71 Q 639.56 105.14 639.75 103.50 Q 640.13 100.14 638.00 102.76 Q 635.80 105.45 636.29 109.42 Q 636.51 111.23 637.28 112.29 Q 638.36 113.81 640.19 113.81 Q 641.58 113.81 643.88 112.28 Q 645.60 111.13 647.38 110.07 A 1.45 1.33 32.2 0 1 648.31 109.90 Q 654.69 110.86 656.98 104.88 Q 658.53 100.81 656.94 96.81 Q 656.32 95.26 655.71 96.82 Q 655.17 98.22 655.02 99.98 Q 654.81 102.30 652.81 103.78 A 1.36 1.36 -27.7 0 1 650.71 103.13 Q 650.07 101.28 648.93 99.30 Q 648.55 98.65 648.24 99.33 Q 647.00 102.00 645.80 104.56 Q 644.16 108.03 640.55 107.30 A 0.79 0.77 -0.5 0 1 639.94 106.71 Z"/>
<path fill="rgb(0,0,0)" fill-opacity="1.000" d="M 810.29 60.42 Q 805.89 67.81 797.50 70.75 Q 784.71 75.23 771.26 77.32 Q 769.01 77.66 766.77 77.49 Q 764.12 77.28 762.67 76.01 Q 760.72 74.30 761.40 71.64 Q 761.89 69.74 763.69 68.20 Q 765.69 66.50 768.31 65.56 Q 785.86 59.32 802.21 50.40 Q 805.30 48.72 807.65 48.77 Q 812.87 48.87 812.65 53.64 Q 812.50 56.72 810.29 60.42 Z M 804.66 60.40 Q 807.15 57.52 808.17 53.38 Q 808.42 52.38 807.52 52.88 Q 788.30 63.51 767.41 71.10 Q 766.75 71.34 766.40 71.80 Q 765.24 73.38 767.75 73.00 Q 781.10 70.97 794.06 67.19 Q 800.39 65.35 804.66 60.40 Z"/>
<path fill="rgb(254,254,254)" fill-opacity="1.000" d="M 461.39 50.13 Q 463.12 57.03 469.33 59.19 A 1.47 1.46 -72.0 0 1 470.25 61.00 Q 468.72 66.03 466.75 70.89 Q 465.26 74.57 466.05 78.36 Q 466.65 81.24 466.66 81.30 Q 468.50 93.19 471.08 104.94 Q 473.85 117.53 476.27 130.19 Q 479.07 144.79 479.15 146.70 Q 479.55 155.33 475.61 163.52 Q 472.79 169.37 466.31 170.31 A 1.30 1.30 -85.2 0 0 465.27 171.19 Q 459.67 188.42 445.65 199.41 Q 441.45 202.70 438.26 203.65 Q 434.13 204.88 429.50 204.00 Q 421.69 202.51 415.81 197.42 Q 405.41 188.42 402.91 174.90 Q 402.73 173.93 403.06 173.15 Q 404.22 170.39 405.44 174.56 Q 407.34 181.08 411.23 186.31 Q 415.14 191.57 420.28 193.21 Q 426.78 195.29 434.06 192.56 Q 450.17 186.54 458.99 172.18 A 1.01 0.87 -44.2 0 0 459.07 171.29 Q 458.48 170.03 457.19 169.49 A 1.58 1.57 13.6 0 1 456.22 167.91 Q 456.68 161.81 458.87 156.53 A 0.51 0.50 22.2 0 1 459.53 156.26 Q 465.03 158.47 470.74 157.47 Q 473.46 156.99 473.49 154.23 Q 473.52 151.87 473.22 150.00 Q 469.98 129.65 465.60 109.51 Q 462.69 96.13 461.76 91.33 Q 460.01 82.19 458.46 73.02 Q 456.80 63.25 456.83 61.46 Q 456.92 55.30 460.65 49.99 Q 461.17 49.25 461.39 50.13 Z"/>
<path fill="rgb(254,254,254)" fill-opacity="1.000" d="M 669.75 52.45 Q 672.64 57.07 678.49 61.24 A 1.48 1.46 -65.8 0 1 679.06 62.78 Q 677.74 68.30 675.28 74.30 Q 674.28 76.74 674.75 79.25 Q 680.35 109.30 686.64 139.22 Q 688.28 147.03 687.12 154.74 Q 686.10 161.50 684.20 165.04 Q 681.39 170.25 675.38 172.14 A 2.30 2.27 0.4 0 0 673.89 173.59 Q 668.64 189.17 657.43 199.45 Q 651.24 205.13 643.49 205.79 Q 637.43 206.30 631.03 202.90 Q 618.95 196.48 613.92 183.16 Q 612.51 179.43 612.39 178.99 Q 611.76 176.80 612.00 174.50 Q 612.13 173.23 613.08 173.99 Q 613.42 174.25 613.60 174.77 Q 614.82 178.19 616.11 181.59 Q 619.82 191.40 629.61 195.06 Q 634.92 197.04 640.19 195.44 Q 657.80 190.06 667.56 174.24 Q 668.63 172.50 666.79 171.62 Q 665.79 171.14 665.31 170.02 Q 664.95 169.20 665.19 167.96 Q 666.11 162.98 667.71 158.13 A 0.60 0.60 22.0 0 1 668.55 157.78 Q 674.63 160.75 680.98 158.37 A 0.92 0.91 85.3 0 0 681.54 157.70 Q 682.74 151.71 681.50 145.75 Q 674.15 110.39 667.69 74.87 Q 666.03 65.72 666.02 63.72 Q 666.00 58.02 668.71 52.50 Q 669.19 51.55 669.75 52.45 Z"/>
<path fill="rgb(252,252,252)" fill-opacity="1.000" d="M 807.52 52.88 Q 808.42 52.38 808.17 53.38 Q 807.15 57.52 804.66 60.40 Q 800.39 65.35 794.06 67.19 Q 781.10 70.97 767.75 73.00 Q 765.24 73.38 766.40 71.80 Q 766.75 71.34 767.41 71.10 Q 788.30 63.51 807.52 52.88 Z"/>
<path fill="rgb(254,254,254)" fill-opacity="1.000" d="M 851.72 55.06 Q 855.69 81.27 860.40 107.17 Q 862.72 119.89 864.20 132.73 Q 865.35 142.69 861.14 151.99 Q 860.42 153.58 860.26 151.84 Q 858.09 128.42 853.16 105.52 Q 850.71 94.18 849.13 82.70 Q 847.33 69.69 847.31 68.83 Q 847.11 61.49 850.47 54.86 Q 851.41 53.01 851.72 55.06 Z"/>
<path fill="rgb(0,0,0)" fill-opacity="1.000" d="M 596.50 57.22 Q 598.62 59.59 597.31 63.56 Q 595.84 68.05 592.56 71.06 Q 590.86 72.62 587.73 74.03 Q 585.12 75.20 582.44 76.19 Q 550.89 87.79 519.64 103.40 A 3.32 3.31 -51.1 0 1 517.35 103.65 Q 513.42 102.68 513.21 99.18 Q 513.09 97.14 514.54 94.01 Q 516.46 89.90 519.38 86.38 Q 522.12 83.09 525.72 80.97 Q 526.90 80.28 533.22 77.52 Q 559.62 66.02 587.00 57.00 Q 589.66 56.12 592.38 55.89 Q 595.10 55.66 596.50 57.22 Z M 523.46 88.71 Q 519.84 92.53 517.92 97.49 Q 517.20 99.33 518.98 98.47 Q 552.38 82.32 586.62 69.02 Q 591.55 67.10 593.18 61.38 Q 593.59 59.93 592.14 60.38 Q 562.91 69.50 535.25 81.72 Q 535.22 81.74 531.69 83.14 Q 526.98 85.00 523.46 88.71 Z"/>
<path fill="rgb(254,254,254)" fill-opacity="1.000" d="M 499.54 58.71 Q 501.59 77.49 505.05 95.84 Q 508.86 116.01 512.08 136.28 Q 513.25 143.58 513.29 150.96 Q 513.33 157.31 513.27 158.06 Q 512.98 161.66 511.40 164.99 A 1.00 0.66 -73.9 0 1 510.71 165.58 Q 510.13 165.62 510.00 164.75 Q 508.52 151.90 506.00 139.25 Q 500.64 112.31 496.50 85.17 Q 494.76 73.78 494.78 71.82 Q 494.83 64.75 498.51 58.49 Q 499.36 57.05 499.54 58.71 Z"/>
<path fill="rgb(254,254,254)" fill-opacity="1.000" d="M 708.26 59.06 Q 714.71 98.51 721.06 138.03 Q 722.23 145.32 722.61 152.69 Q 722.96 159.44 720.62 165.72 A 0.92 0.66 -77.0 0 1 719.95 166.31 Q 719.24 166.35 719.07 165.24 Q 714.96 138.70 709.74 112.35 Q 707.48 100.89 705.79 89.34 Q 703.87 76.16 703.86 74.16 Q 703.80 66.31 707.44 58.93 Q 708.04 57.72 708.26 59.06 Z"/>
<path fill="rgb(254,254,254)" fill-opacity="1.000" d="M 593.18 61.38 Q 591.55 67.10 586.62 69.02 Q 552.38 82.32 518.98 98.47 Q 517.20 99.33 517.92 97.49 Q 519.84 92.53 523.46 88.71 Q 526.98 85.00 531.69 83.14 Q 535.22 81.74 535.25 81.72 Q 562.91 69.50 592.14 60.38 Q 593.59 59.93 593.18 61.38 Z"/>
<path fill="rgb(0,0,0)" fill-opacity="1.000" d="M 614.22 76.81 Q 617.71 77.20 618.66 80.09 Q 619.39 82.35 617.90 85.72 Q 614.76 92.79 609.31 98.56 Q 604.81 103.32 598.76 103.58 Q 595.59 103.71 593.96 102.49 Q 591.76 100.81 592.36 97.02 A 1.33 1.32 -84.1 0 0 591.12 95.49 Q 587.02 95.30 586.36 92.09 Q 585.99 90.27 587.06 87.13 Q 588.59 82.66 591.10 78.63 Q 592.75 76.00 595.75 75.75 Q 603.55 75.11 611.30 76.47 Q 611.38 76.49 614.22 76.81 Z M 595.27 81.23 Q 592.02 85.67 590.98 90.59 Q 590.71 91.85 591.89 91.32 Q 597.74 88.68 602.85 91.15 A 0.99 0.99 -55.2 0 1 603.13 92.73 Q 600.24 95.75 597.19 98.19 Q 595.00 99.94 597.75 99.50 Q 603.98 98.51 607.73 93.46 Q 611.20 88.78 614.03 83.12 A 1.27 1.26 -73.1 0 0 613.06 81.29 Q 605.55 80.35 598.05 79.92 Q 596.30 79.82 595.27 81.23 Z"/>
<path fill="rgb(0,0,0)" fill-opacity="1.000" d="M 806.61 79.82 Q 808.08 82.84 807.49 86.50 Q 806.71 91.29 804.16 95.42 Q 802.13 98.68 798.19 98.53 Q 794.61 98.39 791.76 100.50 Q 789.67 102.05 787.19 102.44 Q 777.87 103.90 776.34 95.70 Q 775.87 93.18 776.44 90.44 Q 776.98 87.81 778.17 85.40 Q 779.53 82.66 781.37 81.54 Q 783.98 79.96 786.90 81.44 A 1.66 1.65 -61.3 0 0 789.08 80.80 Q 791.15 77.26 794.56 78.19 A 1.80 1.78 37.7 0 0 795.87 78.03 Q 799.51 76.01 802.14 76.23 Q 804.98 76.48 806.61 79.82 Z M 788.07 91.74 Q 784.03 93.44 784.50 87.20 Q 784.77 83.63 782.87 86.66 Q 781.77 88.42 781.03 91.71 Q 780.11 95.84 782.80 97.43 Q 784.84 98.63 787.68 97.36 Q 790.24 96.21 792.38 94.33 A 0.88 0.84 33.7 0 1 793.23 94.18 Q 797.01 95.47 799.71 92.72 Q 804.16 88.20 802.56 81.94 Q 801.76 78.76 800.42 81.75 Q 800.22 82.18 800.23 84.25 Q 800.24 86.76 798.19 87.94 Q 795.55 89.45 795.21 86.43 Q 795.04 84.79 794.30 83.11 Q 793.43 81.12 793.00 83.25 Q 792.41 86.21 791.03 88.83 Q 789.92 90.95 788.07 91.74 Z"/>
<path fill="rgb(252,252,252)" fill-opacity="1.000" d="M 661.48 79.60 Q 659.96 83.75 657.16 86.55 Q 655.00 88.72 650.56 90.11 Q 639.95 93.41 629.05 95.49 A 0.45 0.45 4.2 0 1 628.54 94.90 Q 628.62 94.66 628.67 94.48 A 0.97 0.97 -2.1 0 1 629.22 93.89 Q 639.57 89.52 649.88 85.04 Q 655.28 82.69 660.78 79.04 Q 661.98 78.25 661.48 79.60 Z"/>
<path fill="rgb(254,254,254)" fill-opacity="1.000" d="M 598.05 79.92 Q 605.55 80.35 613.06 81.29 A 1.27 1.26 -73.1 0 1 614.03 83.12 Q 611.20 88.78 607.73 93.46 Q 603.98 98.51 597.75 99.50 Q 595.00 99.94 597.19 98.19 Q 600.24 95.75 603.13 92.73 A 0.99 0.99 -55.2 0 0 602.85 91.15 Q 597.74 88.68 591.89 91.32 Q 590.71 91.85 590.98 90.59 Q 592.02 85.67 595.27 81.23 Q 596.30 79.82 598.05 79.92 Z"/>
<path fill="rgb(0,0,0)" fill-opacity="1.000" d="M 452.90 81.91 Q 455.26 85.83 452.82 90.32 Q 450.75 94.12 448.09 97.01 A 0.92 0.92 -40.5 0 0 448.00 98.14 Q 452.21 104.59 450.05 111.39 Q 447.71 118.72 440.18 120.42 Q 437.29 121.07 434.56 122.31 Q 430.38 124.22 425.73 123.71 Q 422.37 123.34 421.06 120.69 Q 419.65 117.81 419.78 114.54 Q 419.88 112.03 420.19 110.45 Q 420.61 108.36 421.94 106.63 A 1.25 0.69 -42.2 0 0 422.24 105.76 Q 422.11 105.16 421.26 105.32 Q 419.41 105.67 417.57 105.52 Q 415.52 105.35 414.14 104.37 Q 410.87 102.03 413.26 97.56 A 3.09 3.08 -1.6 0 1 414.39 96.37 Q 419.58 93.24 425.34 90.86 Q 435.02 86.86 435.04 86.85 Q 441.12 84.00 446.95 80.67 Q 448.65 79.70 450.38 80.02 Q 451.94 80.31 452.90 81.91 Z M 447.05 90.56 Q 448.92 88.15 449.65 85.35 Q 450.04 83.81 448.75 84.75 Q 443.97 88.24 438.50 90.50 Q 428.31 94.71 418.31 99.33 Q 417.75 99.59 417.39 99.91 Q 415.59 101.45 418.74 100.93 Q 428.67 99.31 438.32 96.48 Q 443.67 94.92 447.05 90.56 Z M 428.93 113.46 Q 426.86 112.95 427.57 110.94 Q 428.47 108.39 427.94 107.61 A 0.54 0.41 -40.1 0 0 427.20 107.65 Q 424.16 110.63 424.50 115.25 Q 424.74 118.61 427.09 119.46 Q 428.84 120.10 431.24 118.87 Q 433.53 117.70 435.44 115.93 A 1.77 1.75 32.1 0 1 437.15 115.55 Q 439.96 116.41 442.19 114.43 Q 447.96 109.31 444.98 102.16 Q 444.35 100.66 444.00 102.25 Q 443.54 104.34 443.20 106.45 Q 442.92 108.15 442.24 108.81 Q 441.39 109.66 440.07 109.70 A 0.87 0.81 73.4 0 1 439.31 109.25 Q 438.27 107.38 437.69 105.31 Q 437.15 103.41 436.49 105.27 Q 435.71 107.45 434.73 109.78 Q 432.80 114.42 428.93 113.46 Z"/>
<path fill="rgb(252,252,252)" fill-opacity="1.000" d="M 800.42 81.75 Q 801.76 78.76 802.56 81.94 Q 804.16 88.20 799.71 92.72 Q 797.01 95.47 793.23 94.18 A 0.88 0.84 33.7 0 0 792.38 94.33 Q 790.24 96.21 787.68 97.36 Q 784.84 98.63 782.80 97.43 Q 780.11 95.84 781.03 91.71 Q 781.77 88.42 782.87 86.66 Q 784.77 83.63 784.50 87.20 Q 784.03 93.44 788.07 91.74 Q 789.92 90.95 791.03 88.83 Q 792.41 86.21 793.00 83.25 Q 793.43 81.12 794.30 83.11 Q 795.04 84.79 795.21 86.43 Q 795.55 89.45 798.19 87.94 Q 800.24 86.76 800.23 84.25 Q 800.22 82.18 800.42 81.75 Z"/>
<path fill="rgb(252,252,252)" fill-opacity="1.000" d="M 449.65 85.35 Q 448.92 88.15 447.05 90.56 Q 443.67 94.92 438.32 96.48 Q 428.67 99.31 418.74 100.93 Q 415.59 101.45 417.39 99.91 Q 417.75 99.59 418.31 99.33 Q 428.31 94.71 438.50 90.50 Q 443.97 88.24 448.75 84.75 Q 450.04 83.81 449.65 85.35 Z"/>
<path fill="rgb(0,0,0)" fill-opacity="1.000" d="M 562.58 95.34 Q 563.85 96.75 564.81 98.44 Q 569.69 106.97 571.71 116.45 Q 572.94 122.27 572.99 125.57 Q 573.05 130.25 571.31 134.77 Q 570.55 136.74 568.92 137.76 Q 567.45 138.68 565.43 138.33 Q 560.60 137.48 560.06 132.45 Q 559.71 129.12 559.70 129.09 Q 557.99 120.27 553.81 112.19 Q 551.91 108.50 551.88 104.32 Q 551.84 99.92 551.86 99.69 Q 552.00 97.25 553.44 95.19 Q 555.96 91.57 559.60 93.09 Q 561.14 93.73 562.58 95.34 Z M 557.35 98.03 Q 554.97 104.15 557.73 109.60 Q 563.47 120.94 565.19 133.52 Q 565.27 134.12 565.55 134.37 Q 565.93 134.70 566.38 134.43 Q 566.66 134.27 566.84 133.84 Q 568.37 130.27 568.25 126.50 Q 567.75 110.36 558.82 97.84 Q 557.91 96.57 557.35 98.03 Z"/>
<path fill="rgb(252,252,252)" fill-opacity="1.000" d="M 656.94 96.81 Q 658.53 100.81 656.98 104.88 Q 654.69 110.86 648.31 109.90 A 1.45 1.33 32.2 0 0 647.38 110.07 Q 645.60 111.13 643.88 112.28 Q 641.58 113.81 640.19 113.81 Q 638.36 113.81 637.28 112.29 Q 636.51 111.23 636.29 109.42 Q 635.80 105.45 638.00 102.76 Q 640.13 100.14 639.75 103.50 Q 639.56 105.14 639.94 106.71 A 0.79 0.77 -0.5 0 0 640.55 107.30 Q 644.16 108.03 645.80 104.56 Q 647.00 102.00 648.24 99.33 Q 648.55 98.65 648.93 99.30 Q 650.07 101.28 650.71 103.13 A 1.36 1.36 -27.7 0 0 652.81 103.78 Q 654.81 102.30 655.02 99.98 Q 655.17 98.22 655.71 96.82 Q 656.32 95.26 656.94 96.81 Z"/>
<path fill="rgb(254,254,254)" fill-opacity="1.000" d="M 558.82 97.84 Q 567.75 110.36 568.25 126.50 Q 568.37 130.27 566.84 133.84 Q 566.66 134.27 566.38 134.43 Q 565.93 134.70 565.55 134.37 Q 565.27 134.12 565.19 133.52 Q 563.47 120.94 557.73 109.60 Q 554.97 104.15 557.35 98.03 Q 557.91 96.57 558.82 97.84 Z"/>
<path fill="rgb(0,0,0)" fill-opacity="1.000" d="M 1448.07 104.12 Q 1449.86 106.67 1447.94 110.44 Q 1444.85 116.50 1440.66 121.75 Q 1437.30 125.95 1434.49 127.30 Q 1430.56 129.17 1425.77 128.14 Q 1422.11 127.35 1422.31 121.94 A 1.12 1.11 -82.0 0 0 1421.47 120.82 Q 1414.63 119.03 1416.60 113.16 Q 1418.11 108.62 1420.65 104.57 Q 1422.83 101.08 1427.25 100.75 Q 1435.38 100.14 1443.26 101.66 Q 1446.82 102.34 1448.07 104.12 Z M 1433.44 117.43 Q 1429.72 120.14 1427.03 123.85 Q 1426.74 124.26 1427.25 124.31 Q 1430.23 124.57 1432.63 122.62 Q 1440.17 116.46 1444.00 107.50 A 1.18 1.18 -75.5 0 0 1443.04 105.86 Q 1436.67 105.19 1428.52 104.69 Q 1426.08 104.54 1424.77 106.60 Q 1422.55 110.06 1420.59 115.69 Q 1420.16 116.93 1421.36 116.38 Q 1427.79 113.45 1433.22 115.62 Q 1434.97 116.32 1433.44 117.43 Z"/>
<path fill="rgb(0,0,0)" fill-opacity="1.000" d="M 822.35 103.51 Q 823.40 105.28 823.96 107.31 Q 827.16 118.96 830.74 130.51 Q 830.74 130.52 832.90 136.94 Q 835.77 145.49 836.65 154.51 Q 837.82 166.28 830.20 175.20 Q 827.34 178.56 823.33 179.33 Q 820.29 179.92 815.66 179.39 Q 810.67 178.82 806.43 175.98 Q 806.26 175.87 804.45 174.13 Q 802.84 172.59 801.33 174.30 Q 799.91 175.92 799.90 175.93 Q 789.79 185.08 776.69 181.73 Q 773.16 180.83 770.97 179.26 Q 768.55 177.52 766.53 174.70 A 1.44 1.43 60.7 0 0 764.80 174.21 Q 760.88 175.89 756.96 175.30 Q 754.03 174.86 754.02 174.86 Q 747.94 174.22 741.96 173.00 Q 737.32 172.06 735.65 170.20 Q 732.94 167.18 735.17 162.18 Q 736.65 158.84 738.38 155.64 Q 738.42 155.58 739.82 152.64 Q 742.18 147.69 747.76 146.28 Q 755.40 144.34 762.75 141.50 A 3.25 3.25 87.9 0 0 764.70 139.40 Q 766.32 134.06 768.46 128.88 Q 769.70 125.89 773.00 125.76 Q 778.96 125.53 778.97 131.50 Q 779.00 141.65 779.00 151.80 Q 779.00 151.86 778.88 154.20 Q 778.57 160.34 785.25 160.26 Q 788.84 160.22 792.08 158.60 Q 795.03 157.12 794.55 153.98 Q 794.24 151.93 794.24 151.89 Q 793.61 143.54 792.42 135.26 Q 791.26 127.15 791.11 124.09 Q 790.82 118.45 791.22 112.81 Q 791.40 110.38 792.34 108.23 Q 793.31 106.00 795.21 104.68 Q 799.61 101.63 802.89 106.62 Q 803.61 107.70 803.77 108.99 Q 805.89 125.45 808.44 140.06 Q 809.57 146.56 812.63 152.34 Q 813.89 154.73 815.69 155.95 Q 817.83 157.42 820.20 157.83 Q 822.54 158.24 821.75 156.00 Q 816.52 141.22 812.21 126.15 Q 809.08 115.22 813.22 104.70 Q 815.13 99.85 819.29 101.02 Q 821.20 101.56 822.35 103.51 Z M 767.29 165.29 Q 767.82 163.86 768.07 165.36 Q 769.08 171.45 772.99 174.73 Q 776.31 177.51 782.28 177.81 Q 796.96 178.57 801.70 164.39 Q 802.20 162.91 802.94 164.28 Q 808.66 174.73 819.00 175.50 Q 821.87 175.71 824.34 173.80 Q 832.93 167.17 832.25 156.50 Q 831.64 146.86 828.51 137.62 Q 823.20 121.95 818.75 106.00 Q 818.13 103.78 817.33 105.94 Q 815.34 111.32 815.56 117.18 Q 815.70 120.96 817.80 128.14 Q 822.38 143.84 827.69 159.31 Q 828.52 161.74 826.02 162.30 Q 818.16 164.07 811.98 158.76 Q 807.06 154.53 805.70 148.16 Q 801.56 128.75 799.07 109.07 Q 798.99 108.42 798.65 108.07 Q 797.79 107.19 797.31 108.56 Q 794.15 117.56 795.57 127.03 Q 797.57 140.35 798.99 153.75 Q 799.35 157.21 797.67 159.78 Q 796.27 161.89 793.10 163.33 Q 788.28 165.51 782.75 165.05 Q 778.16 164.66 776.08 161.48 Q 774.77 159.49 774.68 154.74 Q 774.47 143.60 774.23 131.64 Q 774.17 129.06 772.37 130.91 Q 771.96 131.33 771.40 133.47 Q 770.21 138.07 768.39 142.78 A 3.62 3.61 -2.2 0 1 766.56 144.75 Q 758.07 148.74 748.76 150.81 Q 745.74 151.48 744.37 154.19 Q 741.37 160.13 738.75 166.25 A 1.01 1.01 18.7 0 0 739.43 167.62 Q 746.15 169.32 753.18 170.13 Q 759.30 170.83 760.82 170.65 Q 765.52 170.08 767.29 165.29 Z"/>
<path fill="rgb(252,252,252)" fill-opacity="1.000" d="M 444.98 102.16 Q 447.96 109.31 442.19 114.43 Q 439.96 116.41 437.15 115.55 A 1.77 1.75 32.1 0 0 435.44 115.93 Q 433.53 117.70 431.24 118.87 Q 428.84 120.10 427.09 119.46 Q 424.74 118.61 424.50 115.25 Q 424.16 110.63 427.20 107.65 A 0.54 0.41 -40.1 0 1 427.94 107.61 Q 428.47 108.39 427.57 110.94 Q 426.86 112.95 428.93 113.46 Q 432.80 114.42 434.73 109.78 Q 435.71 107.45 436.49 105.27 Q 437.15 103.41 437.69 105.31 Q 438.27 107.38 439.31 109.25 A 0.87 0.81 73.4 0 0 440.07 109.70 Q 441.39 109.66 442.24 108.81 Q 442.92 108.15 443.20 106.45 Q 443.54 104.34 444.00 102.25 Q 444.35 100.66 444.98 102.16 Z"/>
<path fill="rgb(254,254,254)" fill-opacity="1.000" d="M 1428.52 104.69 Q 1436.67 105.19 1443.04 105.86 A 1.18 1.18 -75.5 0 1 1444.00 107.50 Q 1440.17 116.46 1432.63 122.62 Q 1430.23 124.57 1427.25 124.31 Q 1426.74 124.26 1427.03 123.85 Q 1429.72 120.14 1433.44 117.43 Q 1434.97 116.32 1433.22 115.62 Q 1427.79 113.45 1421.36 116.38 Q 1420.16 116.93 1420.59 115.69 Q 1422.55 110.06 1424.77 106.60 Q 1426.08 104.54 1428.52 104.69 Z"/>
<path fill="rgb(254,254,254)" fill-opacity="1.000" d="M 818.75 106.00 Q 823.20 121.95 828.51 137.62 Q 831.64 146.86 832.25 156.50 Q 832.93 167.17 824.34 173.80 Q 821.87 175.71 819.00 175.50 Q 808.66 174.73 802.94 164.28 Q 802.20 162.91 801.70 164.39 Q 796.96 178.57 782.28 177.81 Q 776.31 177.51 772.99 174.73 Q 769.08 171.45 768.07 165.36 Q 767.82 163.86 767.29 165.29 Q 765.52 170.08 760.82 170.65 Q 759.30 170.83 753.18 170.13 Q 746.15 169.32 739.43 167.62 A 1.01 1.01 18.7 0 1 738.75 166.25 Q 741.37 160.13 744.37 154.19 Q 745.74 151.48 748.76 150.81 Q 758.07 148.74 766.56 144.75 A 3.62 3.61 -2.2 0 0 768.39 142.78 Q 770.21 138.07 771.40 133.47 Q 771.96 131.33 772.37 130.91 Q 774.17 129.06 774.23 131.64 Q 774.47 143.60 774.68 154.74 Q 774.77 159.49 776.08 161.48 Q 778.16 164.66 782.75 165.05 Q 788.28 165.51 793.10 163.33 Q 796.27 161.89 797.67 159.78 Q 799.35 157.21 798.99 153.75 Q 797.57 140.35 795.57 127.03 Q 794.15 117.56 797.31 108.56 Q 797.79 107.19 798.65 108.07 Q 798.99 108.42 799.07 109.07 Q 801.56 128.75 805.70 148.16 Q 807.06 154.53 811.98 158.76 Q 818.16 164.07 826.02 162.30 Q 828.52 161.74 827.69 159.31 Q 822.38 143.84 817.80 128.14 Q 815.70 120.96 815.56 117.18 Q 815.34 111.32 817.33 105.94 Q 818.13 103.78 818.75 106.00 Z M 767.69 156.97 Q 768.58 154.50 768.47 150.45 A 0.98 0.98 75.8 0 0 767.05 149.60 Q 761.24 152.57 755.06 155.31 Q 753.24 156.12 754.89 156.98 Q 755.40 157.24 756.15 157.31 Q 760.53 157.71 766.40 157.85 A 1.34 1.34 10.6 0 0 767.69 156.97 Z"/>
<path fill="rgb(0,0,0)" fill-opacity="1.000" d="M 610.67 114.01 Q 621.22 120.59 632.10 126.62 Q 644.67 133.57 658.79 136.31 Q 661.79 136.90 664.14 138.86 Q 666.16 140.54 666.00 142.81 Q 665.90 144.08 664.81 146.65 Q 662.16 152.93 656.07 153.57 Q 654.01 153.78 646.04 152.10 Q 629.56 148.62 613.24 149.64 A 1.10 1.09 -14.1 0 0 612.31 151.19 Q 613.69 154.18 613.87 157.37 Q 614.03 160.41 612.82 163.50 Q 609.30 172.49 599.34 171.51 Q 599.12 171.49 593.14 170.55 Q 589.87 170.04 586.97 169.41 Q 585.21 169.02 584.10 170.44 Q 577.18 179.28 566.83 181.26 A 2.52 2.51 2.7 0 0 564.89 183.02 Q 561.55 194.35 553.12 201.87 Q 545.01 209.11 535.67 214.65 Q 522.93 222.22 509.07 227.22 Q 501.58 229.93 489.99 233.19 Q 471.84 238.31 453.18 241.00 Q 444.14 242.30 433.27 242.85 Q 413.87 243.85 394.44 243.43 Q 388.44 243.30 381.59 242.68 Q 375.17 242.11 368.75 241.50 Q 334.70 238.27 302.45 227.14 Q 283.57 220.62 270.19 205.81 Q 265.08 200.16 260.70 193.97 Q 258.55 190.93 258.22 188.61 Q 257.56 183.97 262.07 183.04 Q 264.48 182.55 267.11 183.85 Q 269.45 185.01 271.56 186.69 Q 283.88 196.47 298.34 202.38 Q 305.23 205.20 317.25 208.88 Q 329.53 212.64 342.19 215.06 Q 356.82 217.86 371.57 219.86 Q 373.84 220.17 377.45 220.37 Q 380.41 220.54 383.36 220.88 Q 389.22 221.57 392.19 221.71 Q 401.22 222.13 410.25 222.50 Q 419.70 222.89 429.13 222.20 Q 436.38 221.67 447.88 220.28 Q 482.04 216.15 514.25 203.50 Q 533.73 195.85 550.30 183.24 A 1.67 1.46 -13.7 0 0 550.85 182.46 Q 551.84 179.35 550.08 176.43 Q 548.41 173.66 547.59 170.59 Q 546.83 167.71 547.28 164.36 Q 547.98 159.21 550.20 154.44 Q 551.53 151.57 554.50 150.75 Q 558.21 149.73 560.07 153.12 Q 561.49 155.71 563.72 157.45 Q 566.02 159.25 568.82 159.34 Q 572.86 159.46 575.82 156.62 Q 577.07 155.43 578.11 153.03 Q 578.96 151.05 579.81 149.06 Q 582.63 142.45 588.46 138.41 Q 590.62 136.91 593.98 135.89 Q 596.98 134.99 599.87 134.27 Q 601.36 133.90 599.94 133.31 Q 597.41 132.27 594.74 132.98 Q 591.10 133.94 587.43 133.06 Q 585.04 132.48 584.54 130.08 Q 583.86 126.80 585.38 123.69 Q 588.65 116.97 594.86 112.82 Q 598.88 110.13 603.23 110.67 Q 605.86 111.01 610.67 114.01 Z M 606.98 145.54 Q 607.72 145.31 610.24 145.11 Q 632.37 143.34 655.11 149.63 A 2.59 2.58 -58.4 0 0 657.52 149.05 Q 660.06 146.75 661.07 142.55 A 0.49 0.49 -76.8 0 0 660.70 141.95 Q 636.03 136.29 614.81 122.50 Q 610.02 119.39 605.25 116.25 Q 603.37 115.02 601.39 115.11 Q 599.84 115.19 597.87 116.53 Q 591.94 120.56 589.00 127.25 Q 587.76 130.07 590.68 129.11 Q 593.97 128.04 597.93 128.29 Q 600.91 128.47 604.95 129.83 Q 613.13 132.60 620.63 136.94 A 0.89 0.50 26.1 0 1 621.14 137.68 Q 621.02 138.17 619.75 138.00 Q 608.14 136.44 597.11 139.74 Q 591.48 141.42 588.60 144.01 Q 584.89 147.34 583.50 152.55 Q 580.88 162.36 570.75 163.78 Q 563.96 164.74 559.60 159.66 Q 557.91 157.70 556.34 155.42 A 0.88 0.88 40.8 0 0 554.83 155.53 Q 552.29 160.74 551.38 166.95 A 1.64 1.55 37.5 0 0 551.53 167.88 Q 554.12 173.35 555.81 179.19 Q 557.12 183.68 553.84 186.35 Q 537.51 199.62 518.17 207.37 Q 511.15 210.17 499.27 213.93 Q 455.01 227.95 408.48 226.69 Q 399.64 226.45 388.51 225.76 Q 363.97 224.24 339.80 219.49 Q 319.32 215.46 299.97 207.89 Q 289.96 203.97 282.56 199.65 Q 274.23 194.80 266.65 188.67 Q 265.45 187.70 263.97 187.24 Q 262.00 186.63 262.55 188.31 Q 262.73 188.83 263.23 189.47 Q 266.71 193.89 270.19 198.31 Q 277.74 207.93 287.71 214.43 Q 294.40 218.79 305.67 223.12 Q 321.75 229.29 338.72 232.64 Q 391.35 243.02 444.73 237.27 Q 472.95 234.23 500.01 225.65 Q 523.01 218.36 542.66 204.40 Q 547.45 201.00 551.62 196.88 Q 559.40 189.18 561.01 178.62 A 2.14 2.14 -88.1 0 1 562.93 176.82 Q 575.70 175.69 582.30 164.57 Q 583.21 163.04 584.87 163.66 Q 593.64 166.94 603.94 166.70 A 1.33 1.27 21.8 0 0 604.81 166.35 Q 612.37 159.37 605.75 148.90 Q 604.18 146.42 606.98 145.54 Z"/>
<path fill="rgb(254,254,254)" fill-opacity="1.000" d="M 605.25 116.25 Q 610.02 119.39 614.81 122.50 Q 636.03 136.29 660.70 141.95 A 0.49 0.49 -76.8 0 1 661.07 142.55 Q 660.06 146.75 657.52 149.05 A 2.59 2.58 -58.4 0 1 655.11 149.63 Q 632.37 143.34 610.24 145.11 Q 607.72 145.31 606.98 145.54 Q 604.18 146.42 605.75 148.90 Q 612.37 159.37 604.81 166.35 A 1.33 1.27 21.8 0 1 603.94 166.70 Q 593.64 166.94 584.87 163.66 Q 583.21 163.04 582.30 164.57 Q 575.70 175.69 562.93 176.82 A 2.14 2.14 -88.1 0 0 561.01 178.62 Q 559.40 189.18 551.62 196.88 Q 547.45 201.00 542.66 204.40 Q 523.01 218.36 500.01 225.65 Q 472.95 234.23 444.73 237.27 Q 391.35 243.02 338.72 232.64 Q 321.75 229.29 305.67 223.12 Q 294.40 218.79 287.71 214.43 Q 277.74 207.93 270.19 198.31 Q 266.71 193.89 263.23 189.47 Q 262.73 188.83 262.55 188.31 Q 262.00 186.63 263.97 187.24 Q 265.45 187.70 266.65 188.67 Q 274.23 194.80 282.56 199.65 Q 289.96 203.97 299.97 207.89 Q 319.32 215.46 339.80 219.49 Q 363.97 224.24 388.51 225.76 Q 399.64 226.45 408.48 226.69 Q 455.01 227.95 499.27 213.93 Q 511.15 210.17 518.17 207.37 Q 537.51 199.62 553.84 186.35 Q 557.12 183.68 555.81 179.19 Q 554.12 173.35 551.53 167.88 A 1.64 1.55 37.5 0 1 551.38 166.95 Q 552.29 160.74 554.83 155.53 A 0.88 0.88 40.8 0 1 556.34 155.42 Q 557.91 157.70 559.60 159.66 Q 563.96 164.74 570.75 163.78 Q 580.88 162.36 583.50 152.55 Q 584.89 147.34 588.60 144.01 Q 591.48 141.42 597.11 139.74 Q 608.14 136.44 619.75 138.00 Q 621.02 138.17 621.14 137.68 A 0.89 0.50 26.1 0 0 620.63 136.94 Q 613.13 132.60 604.95 129.83 Q 600.91 128.47 597.93 128.29 Q 593.97 128.04 590.68 129.11 Q 587.76 130.07 589.00 127.25 Q 591.94 120.56 597.87 116.53 Q 599.84 115.19 601.39 115.11 Q 603.37 115.02 605.25 116.25 Z M 587.19 151.19 A 1.32 1.32 -55.2 0 0 587.57 153.31 Q 593.62 156.15 600.82 157.30 Q 601.46 157.40 601.19 156.82 Q 599.06 152.27 594.79 150.10 Q 592.71 149.05 590.93 149.27 Q 588.81 149.54 587.19 151.19 Z"/>
<path fill="rgb(0,0,0)" fill-opacity="1.000" d="M 1478.69 119.06 Q 1487.11 135.67 1492.18 153.66 Q 1496.51 169.02 1484.99 179.63 Q 1483.10 181.37 1480.53 181.58 Q 1473.15 182.16 1464.99 179.50 Q 1462.91 178.82 1462.06 180.83 Q 1460.22 185.12 1456.35 186.18 Q 1454.06 186.80 1449.16 185.93 Q 1443.75 184.96 1438.47 183.39 A 0.95 0.90 -56.1 0 0 1437.61 183.58 Q 1434.89 185.84 1431.72 187.25 Q 1428.70 188.59 1424.55 188.60 Q 1414.75 188.62 1405.24 186.03 Q 1401.00 184.88 1396.75 186.00 Q 1376.05 191.48 1354.95 195.02 Q 1347.58 196.25 1335.17 198.07 Q 1298.52 203.44 1261.50 205.75 Q 1233.38 207.50 1205.25 209.11 Q 1204.65 209.14 1200.26 209.56 Q 1197.75 209.80 1195.24 209.74 Q 1190.42 209.64 1187.78 209.88 Q 1180.53 210.54 1173.26 210.60 Q 1164.29 210.66 1158.75 210.96 Q 1149.76 211.45 1140.75 211.50 Q 1101.04 211.72 1061.33 211.53 Q 1061.25 211.53 1049.68 211.61 Q 1038.59 211.69 1027.50 210.75 Q 1020.58 210.16 1013.61 210.33 Q 1009.19 210.44 1005.39 210.16 Q 1001.30 209.85 997.19 209.69 Q 981.41 209.04 965.69 207.54 Q 953.57 206.38 945.79 205.53 Q 922.16 202.96 898.93 197.84 Q 892.64 196.46 886.86 194.61 A 1.27 1.26 -70.6 0 0 885.30 195.36 Q 883.86 199.11 880.31 199.49 Q 880.06 199.52 877.19 199.54 Q 875.63 199.55 874.07 199.46 Q 872.09 199.33 869.49 198.64 Q 864.26 197.25 858.98 195.99 A 1.77 1.77 20.2 0 0 857.01 196.90 Q 855.39 200.04 851.92 202.40 Q 839.09 211.12 824.12 214.98 Q 821.32 215.70 819.82 215.41 Q 817.37 214.94 816.06 212.69 Q 814.05 209.22 816.05 206.48 Q 816.97 205.21 820.46 203.13 Q 832.89 195.74 844.43 188.98 Q 845.94 188.09 846.09 186.36 Q 847.60 169.02 859.57 159.32 Q 861.78 157.52 864.34 157.61 Q 866.24 157.67 868.62 159.49 Q 870.95 161.28 873.15 163.22 Q 875.93 165.66 877.75 166.82 Q 887.11 172.79 898.00 175.00 Q 935.54 182.62 973.76 185.65 Q 983.08 186.39 992.36 187.47 Q 994.29 187.69 997.15 187.73 Q 999.56 187.76 1001.95 188.01 Q 1006.21 188.45 1009.09 188.42 Q 1016.17 188.33 1023.22 188.84 Q 1033.01 189.55 1037.31 189.62 Q 1055.65 189.94 1073.99 190.14 Q 1083.10 190.25 1094.00 190.01 Q 1122.49 189.39 1150.98 189.49 Q 1153.42 189.49 1157.47 188.93 Q 1160.71 188.47 1164.00 188.50 Q 1185.52 188.69 1207.01 187.63 Q 1246.05 185.70 1285.00 182.52 Q 1316.45 179.95 1347.74 175.92 Q 1368.43 173.25 1388.75 168.50 Q 1397.73 166.40 1405.99 162.50 Q 1410.28 160.47 1412.34 160.66 Q 1416.67 161.07 1417.22 166.88 A 0.67 0.66 -2.3 0 0 1417.89 167.49 Q 1423.38 167.51 1426.73 167.89 Q 1430.86 168.36 1432.00 164.25 Q 1433.19 159.96 1435.50 156.07 Q 1437.18 153.25 1440.51 152.80 Q 1443.00 152.47 1444.45 153.94 Q 1445.56 155.05 1445.86 157.35 Q 1446.12 159.38 1445.94 161.85 A 2.14 2.14 -78.8 0 0 1447.41 164.05 Q 1449.56 164.76 1451.50 164.75 A 1.68 1.68 -85.1 0 0 1453.16 163.35 Q 1454.00 158.48 1455.93 153.77 A 2.73 2.73 -85.4 0 1 1457.77 152.17 Q 1466.43 149.89 1467.01 158.92 A 2.05 2.05 1.9 0 0 1468.79 160.82 Q 1471.78 161.22 1475.46 161.71 Q 1477.85 162.02 1477.01 159.77 Q 1473.58 150.65 1469.90 141.65 Q 1465.53 131.00 1469.09 120.37 Q 1470.10 117.34 1472.26 116.20 Q 1476.18 114.11 1478.69 119.06 Z M 1441.28 167.19 Q 1441.01 163.34 1441.50 159.50 Q 1442.20 153.94 1439.49 158.84 Q 1437.23 162.94 1435.10 168.68 Q 1434.17 171.17 1431.53 171.52 Q 1422.37 172.73 1412.50 172.00 A 1.22 1.21 -79.3 0 1 1411.43 170.43 Q 1412.05 168.44 1412.52 165.88 Q 1412.82 164.28 1411.39 165.04 Q 1400.97 170.56 1389.04 173.40 Q 1374.90 176.78 1360.49 178.67 Q 1289.50 188.01 1218.00 191.32 Q 1215.78 191.42 1198.01 192.22 Q 1109.15 196.24 1020.25 193.35 Q 1009.60 193.00 1000.27 192.34 Q 954.80 189.10 909.75 182.00 Q 900.58 180.56 891.75 177.90 Q 883.33 175.38 877.34 171.89 Q 870.44 167.87 864.78 162.40 A 1.31 1.30 -42.0 0 0 863.06 162.31 Q 853.78 169.67 851.35 181.32 Q 850.68 184.52 851.30 188.04 Q 851.62 189.85 850.07 190.83 Q 836.13 199.62 821.23 208.18 Q 820.44 208.64 820.01 209.10 Q 818.61 210.61 820.73 210.69 Q 821.33 210.72 822.13 210.52 Q 831.35 208.23 839.80 204.00 Q 846.16 200.81 848.65 198.83 Q 852.54 195.73 855.38 190.84 A 1.04 1.04 -66.0 0 1 856.60 190.37 Q 867.30 193.83 878.00 195.50 Q 880.07 195.82 880.80 193.86 Q 881.68 191.50 883.45 189.67 A 0.94 0.92 27.5 0 1 884.30 189.41 Q 887.16 189.99 890.00 190.75 Q 921.41 199.14 953.77 202.00 Q 957.31 202.31 973.72 203.51 Q 1018.79 206.81 1064.00 207.25 Q 1171.82 208.29 1279.28 200.04 Q 1290.58 199.17 1299.20 198.25 Q 1330.46 194.91 1361.40 189.23 Q 1381.03 185.63 1399.58 180.44 Q 1401.38 179.93 1403.16 180.48 Q 1413.66 183.67 1424.38 183.78 Q 1428.07 183.81 1430.02 183.05 Q 1432.83 181.96 1434.69 179.44 Q 1436.60 176.84 1439.31 178.44 Q 1446.42 181.16 1454.60 181.80 A 2.06 2.04 -72.6 0 0 1456.53 180.78 Q 1458.49 177.39 1460.76 173.83 A 0.63 0.62 -63.9 0 1 1461.50 173.57 Q 1470.14 176.64 1479.49 177.30 A 3.26 3.26 23.2 0 0 1482.15 176.24 Q 1488.09 169.73 1488.38 161.88 Q 1488.56 157.28 1485.10 147.44 Q 1480.36 133.97 1474.54 120.87 Q 1473.96 119.59 1473.53 120.93 Q 1472.07 125.38 1472.24 130.16 Q 1472.36 133.70 1474.28 139.11 Q 1477.61 148.49 1481.26 157.75 Q 1482.51 160.92 1483.17 163.91 A 1.11 1.11 -10.6 0 1 1482.25 165.25 Q 1475.28 166.29 1468.35 165.26 Q 1465.52 164.85 1465.16 164.72 Q 1463.99 164.30 1463.28 163.27 Q 1462.79 162.56 1462.59 161.12 Q 1462.28 158.94 1462.01 156.79 A 0.86 0.86 -20.5 0 0 1460.69 156.19 Q 1459.31 157.08 1458.91 158.73 Q 1457.65 163.94 1456.54 169.19 A 0.58 0.56 -82.4 0 1 1455.95 169.66 Q 1448.81 169.26 1441.81 167.79 A 0.66 0.65 4.1 0 1 1441.28 167.19 Z"/>
<path fill="rgb(0,0,0)" fill-opacity="1.000" d="M 539.54 119.48 Q 543.65 121.59 547.02 124.68 Q 549.76 127.18 550.43 128.33 Q 551.88 130.83 550.31 133.81 Q 548.12 137.97 544.71 141.26 Q 542.49 143.40 542.48 143.41 Q 541.14 144.47 539.46 144.51 Q 537.84 144.55 535.45 143.05 Q 532.50 141.19 529.67 139.13 Q 527.64 137.66 526.92 136.30 Q 525.90 134.37 526.20 132.23 Q 526.48 130.30 528.72 127.30 Q 531.29 123.86 534.04 120.56 Q 536.33 117.82 539.54 119.48 Z M 546.6656 131.2444 A 1.00 1.00 0 0 0 546.4810 129.8423 L 538.5634 123.7669 A 1.00 1.00 0 0 0 537.1612 123.9515 L 530.5744 132.5356 A 1.00 1.00 0 0 0 530.7590 133.9377 L 538.6767 140.0131 A 1.00 1.00 0 0 0 540.0788 139.8285 L 546.6656 131.2444 Z"/>
<path fill="rgb(254,254,254)" fill-opacity="1.000" d="M 1474.54 120.87 Q 1480.36 133.97 1485.10 147.44 Q 1488.56 157.28 1488.38 161.88 Q 1488.09 169.73 1482.15 176.24 A 3.26 3.26 23.2 0 1 1479.49 177.30 Q 1470.14 176.64 1461.50 173.57 A 0.63 0.62 -63.9 0 0 1460.76 173.83 Q 1458.49 177.39 1456.53 180.78 A 2.06 2.04 -72.6 0 1 1454.60 181.80 Q 1446.42 181.16 1439.31 178.44 Q 1436.60 176.84 1434.69 179.44 Q 1432.83 181.96 1430.02 183.05 Q 1428.07 183.81 1424.38 183.78 Q 1413.66 183.67 1403.16 180.48 Q 1401.38 179.93 1399.58 180.44 Q 1381.03 185.63 1361.40 189.23 Q 1330.46 194.91 1299.20 198.25 Q 1290.58 199.17 1279.28 200.04 Q 1171.82 208.29 1064.00 207.25 Q 1018.79 206.81 973.72 203.51 Q 957.31 202.31 953.77 202.00 Q 921.41 199.14 890.00 190.75 Q 887.16 189.99 884.30 189.41 A 0.94 0.92 27.5 0 0 883.45 189.67 Q 881.68 191.50 880.80 193.86 Q 880.07 195.82 878.00 195.50 Q 867.30 193.83 856.60 190.37 A 1.04 1.04 -66.0 0 0 855.38 190.84 Q 852.54 195.73 848.65 198.83 Q 846.16 200.81 839.80 204.00 Q 831.35 208.23 822.13 210.52 Q 821.33 210.72 820.73 210.69 Q 818.61 210.61 820.01 209.10 Q 820.44 208.64 821.23 208.18 Q 836.13 199.62 850.07 190.83 Q 851.62 189.85 851.30 188.04 Q 850.68 184.52 851.35 181.32 Q 853.78 169.67 863.06 162.31 A 1.31 1.30 -42.0 0 1 864.78 162.40 Q 870.44 167.87 877.34 171.89 Q 883.33 175.38 891.75 177.90 Q 900.58 180.56 909.75 182.00 Q 954.80 189.10 1000.27 192.34 Q 1009.60 193.00 1020.25 193.35 Q 1109.15 196.24 1198.01 192.22 Q 1215.78 191.42 1218.00 191.32 Q 1289.50 188.01 1360.49 178.67 Q 1374.90 176.78 1389.04 173.40 Q 1400.97 170.56 1411.39 165.04 Q 1412.82 164.28 1412.52 165.88 Q 1412.05 168.44 1411.43 170.43 A 1.22 1.21 -79.3 0 0 1412.50 172.00 Q 1422.37 172.73 1431.53 171.52 Q 1434.17 171.17 1435.10 168.68 Q 1437.23 162.94 1439.49 158.84 Q 1442.20 153.94 1441.50 159.50 Q 1441.01 163.34 1441.28 167.19 A 0.66 0.65 4.1 0 0 1441.81 167.79 Q 1448.81 169.26 1455.95 169.66 A 0.58 0.56 -82.4 0 0 1456.54 169.19 Q 1457.65 163.94 1458.91 158.73 Q 1459.31 157.08 1460.69 156.19 A 0.86 0.86 -20.5 0 1 1462.01 156.79 Q 1462.28 158.94 1462.59 161.12 Q 1462.79 162.56 1463.28 163.27 Q 1463.99 164.30 1465.16 164.72 Q 1465.52 164.85 1468.35 165.26 Q 1475.28 166.29 1482.25 165.25 A 1.11 1.11 -10.6 0 0 1483.17 163.91 Q 1482.51 160.92 1481.26 157.75 Q 1477.61 148.49 1474.28 139.11 Q 1472.36 133.70 1472.24 130.16 Q 1472.07 125.38 1473.53 120.93 Q 1473.96 119.59 1474.54 120.87 Z M 857.77 174.73 Q 856.99 175.58 856.67 176.71 A 0.59 0.55 19.3 0 0 857.02 177.38 Q 864.32 180.49 872.00 182.50 Q 873.38 182.86 872.45 181.79 Q 867.81 176.41 862.60 171.10 A 0.69 0.66 53.1 0 0 861.81 170.97 Q 860.40 171.74 859.39 172.95 Q 859.27 173.10 857.77 174.73 Z"/>
<path fill="rgb(0,0,0)" fill-opacity="1.000" d="M 380.36 123.57 Q 382.93 124.44 385.44 125.56 Q 408.44 135.83 433.41 139.07 Q 433.65 139.10 440.60 139.67 Q 444.21 139.96 447.75 140.75 Q 452.66 141.85 451.56 146.81 Q 450.54 151.43 448.41 155.70 Q 446.93 158.65 443.50 158.59 Q 434.48 158.41 425.48 158.94 Q 417.77 159.39 410.68 161.11 Q 403.38 162.87 396.25 165.25 Q 387.14 168.29 377.79 170.48 Q 365.71 173.30 355.32 167.15 Q 355.30 167.14 353.89 166.11 Q 351.95 164.69 350.00 166.19 Q 348.84 167.09 348.83 167.09 Q 346.61 168.53 344.19 169.44 Q 330.59 174.50 316.31 177.06 Q 314.35 177.42 315.86 178.71 Q 317.71 180.30 319.66 181.82 A 1.00 1.00 31.0 0 0 321.19 181.44 Q 323.48 176.23 327.94 176.82 Q 330.57 177.17 334.16 180.08 Q 337.12 182.47 339.69 185.31 Q 341.35 187.15 340.37 189.43 Q 338.54 193.64 335.03 197.76 Q 329.05 204.79 321.72 198.37 A 1.20 1.20 -53.4 0 0 319.91 198.64 Q 317.02 203.25 312.52 202.39 Q 309.84 201.88 306.54 199.15 Q 303.68 196.79 301.88 194.05 Q 300.28 191.62 301.42 188.94 Q 303.54 183.94 307.32 180.30 Q 309.10 178.59 306.63 178.53 Q 304.89 178.49 302.53 178.87 Q 299.22 179.40 298.45 179.49 Q 274.22 182.18 250.03 178.92 Q 236.46 177.09 224.65 172.36 Q 222.95 171.68 222.08 173.28 Q 220.61 175.97 218.03 176.96 Q 216.09 177.70 212.95 177.10 Q 210.41 176.62 207.93 175.81 Q 205.23 174.93 207.40 176.76 Q 209.64 178.66 208.61 182.71 Q 206.22 192.13 197.26 195.94 Q 186.78 200.40 175.62 202.53 Q 175.50 202.56 170.45 203.76 Q 167.73 204.41 164.93 204.39 Q 161.91 204.37 160.47 202.92 Q 158.45 200.88 159.97 197.38 Q 161.08 194.82 163.59 193.63 Q 171.90 189.72 180.43 186.33 Q 187.94 183.35 195.07 179.56 Q 195.10 179.54 198.17 177.58 Q 200.01 176.41 202.18 175.90 Q 202.96 175.71 203.00 175.05 A 0.70 0.56 8.8 0 0 202.45 174.45 Q 199.32 173.75 195.98 172.93 A 1.37 1.37 -66.5 0 0 194.51 173.51 Q 192.23 177.01 189.07 179.25 Q 187.96 180.04 182.29 183.09 Q 171.50 188.91 159.69 192.19 Q 156.74 193.01 154.65 191.42 Q 152.79 190.00 152.46 187.41 Q 151.94 183.33 156.19 180.94 Q 168.67 173.90 180.83 166.32 Q 180.84 166.31 182.09 165.63 Q 184.29 164.43 184.36 161.91 Q 184.44 159.13 184.44 159.10 Q 186.44 146.13 195.99 136.99 Q 198.88 134.23 202.27 134.71 Q 204.23 134.99 206.98 137.49 Q 218.27 147.73 233.00 152.25 Q 245.62 156.13 258.75 157.23 Q 260.25 157.36 266.75 157.45 Q 270.77 157.50 274.75 158.00 Q 281.28 158.81 287.77 158.16 Q 292.24 157.72 296.75 157.50 Q 313.93 156.68 330.61 152.51 Q 339.44 150.30 341.85 149.40 Q 347.40 147.31 352.04 143.46 Q 352.76 142.86 354.06 142.31 Q 355.17 141.84 356.08 141.03 A 1.58 1.23 79.2 0 0 356.51 140.19 Q 357.12 136.61 359.50 133.75 Q 362.31 130.38 365.37 127.25 Q 367.79 124.77 369.63 123.86 Q 372.17 122.60 375.03 122.55 Q 377.22 122.50 380.36 123.57 Z M 186.42 168.31 Q 173.17 176.47 158.75 184.91 Q 157.93 185.39 157.50 185.87 Q 156.09 187.43 158.25 187.51 Q 158.90 187.53 159.70 187.29 Q 172.17 183.46 183.44 176.97 Q 186.83 175.02 188.91 172.72 Q 191.10 170.31 192.81 167.49 A 0.65 0.63 23.3 0 1 193.54 167.21 Q 204.38 170.51 215.50 172.65 A 1.40 1.13 30.8 0 0 216.43 172.52 Q 218.79 171.16 219.54 167.99 Q 220.12 165.61 222.40 166.51 Q 235.95 171.88 249.74 173.83 Q 293.20 179.97 335.25 167.75 Q 344.07 165.19 351.31 159.56 A 0.92 0.91 46.3 0 1 352.47 159.59 Q 360.57 166.52 370.47 166.67 Q 375.12 166.74 386.25 163.38 Q 393.82 161.10 401.41 158.91 Q 411.04 156.14 416.77 155.31 Q 428.70 153.57 441.62 154.61 A 2.47 2.47 -70.1 0 0 443.83 153.57 Q 445.74 150.84 446.74 146.44 A 1.22 1.21 8.5 0 0 445.64 144.96 Q 411.35 142.62 379.60 128.10 Q 377.16 126.98 374.67 127.25 Q 372.61 127.48 370.33 129.23 Q 364.67 133.60 361.31 140.07 Q 360.27 142.08 362.50 141.71 Q 372.90 139.99 383.45 142.27 Q 394.54 144.66 405.13 147.72 Q 406.50 148.12 405.15 148.55 Q 390.28 153.24 375.49 155.16 Q 369.18 155.98 363.11 154.38 Q 359.65 153.47 359.00 152.91 Q 357.34 151.49 358.05 147.86 Q 358.52 145.44 356.26 146.45 Q 355.31 146.87 353.82 148.03 Q 352.28 149.21 351.46 149.71 Q 345.49 153.37 338.68 155.14 Q 295.90 166.23 252.00 161.00 Q 242.71 159.89 233.76 157.32 Q 223.97 154.50 216.85 150.41 Q 208.84 145.79 202.25 139.13 A 0.89 0.89 -41.4 0 0 201.06 139.06 Q 189.05 148.78 188.49 164.75 Q 188.41 167.09 186.42 168.31 Z M 386.88 147.58 Q 376.09 144.80 364.02 145.83 A 1.08 1.07 -86.7 0 0 363.06 146.69 Q 362.57 149.19 364.56 149.80 Q 366.90 150.51 369.32 150.81 Q 371.34 151.05 374.17 150.71 Q 380.59 149.92 387.00 149.00 Q 388.55 148.78 387.67 147.97 Q 387.38 147.70 386.88 147.58 Z M 201.60 186.84 Q 203.99 183.96 204.61 180.30 Q 204.70 179.81 204.25 180.04 Q 185.20 190.18 165.03 197.89 A 1.55 1.25 0.3 0 0 164.28 198.49 Q 163.32 200.08 165.50 199.75 Q 176.83 198.02 187.72 194.52 Q 193.83 192.56 195.24 191.87 Q 198.90 190.09 201.60 186.84 Z M 319.54 191.84 A 0.76 0.75 -52.0 0 1 320.55 191.71 Q 324.54 194.57 328.34 197.44 A 0.57 0.55 39.8 0 0 329.09 197.38 Q 332.68 193.47 335.87 188.59 A 0.77 0.77 38.0 0 0 335.75 187.61 Q 332.32 184.38 328.16 181.48 A 0.96 0.95 -52.5 0 0 326.89 181.65 Q 324.16 184.91 321.75 187.92 A 1.28 1.28 -51.0 0 1 319.94 188.11 Q 316.20 185.05 312.49 181.94 A 0.62 0.61 39.5 0 0 311.62 182.02 Q 308.52 185.83 305.47 190.60 A 1.37 1.36 37.1 0 0 305.72 192.37 Q 309.21 195.42 312.66 198.27 A 1.09 1.09 40.1 0 0 314.19 198.14 Q 316.76 195.13 319.54 191.84 Z"/>
<rect fill="rgb(254,254,254)" fill-opacity="1.000" x="-5.99" y="-6.41" width="11.98" height="12.82" rx="1.00" transform="translate(538.62,131.89) rotate(37.5)"/>
<path fill="rgb(254,254,254)" fill-opacity="1.000" d="M 379.60 128.10 Q 411.35 142.62 445.64 144.96 A 1.22 1.21 8.5 0 1 446.74 146.44 Q 445.74 150.84 443.83 153.57 A 2.47 2.47 -70.1 0 1 441.62 154.61 Q 428.70 153.57 416.77 155.31 Q 411.04 156.14 401.41 158.91 Q 393.82 161.10 386.25 163.38 Q 375.12 166.74 370.47 166.67 Q 360.57 166.52 352.47 159.59 A 0.92 0.91 46.3 0 0 351.31 159.56 Q 344.07 165.19 335.25 167.75 Q 293.20 179.97 249.74 173.83 Q 235.95 171.88 222.40 166.51 Q 220.12 165.61 219.54 167.99 Q 218.79 171.16 216.43 172.52 A 1.40 1.13 30.8 0 1 215.50 172.65 Q 204.38 170.51 193.54 167.21 A 0.65 0.63 23.3 0 0 192.81 167.49 Q 191.10 170.31 188.91 172.72 Q 186.83 175.02 183.44 176.97 Q 172.17 183.46 159.70 187.29 Q 158.90 187.53 158.25 187.51 Q 156.09 187.43 157.50 185.87 Q 157.93 185.39 158.75 184.91 Q 173.17 176.47 186.42 168.31 Q 188.41 167.09 188.49 164.75 Q 189.05 148.78 201.06 139.06 A 0.89 0.89 -41.4 0 1 202.25 139.13 Q 208.84 145.79 216.85 150.41 Q 223.97 154.50 233.76 157.32 Q 242.71 159.89 252.00 161.00 Q 295.90 166.23 338.68 155.14 Q 345.49 153.37 351.46 149.71 Q 352.28 149.21 353.82 148.03 Q 355.31 146.87 356.26 146.45 Q 358.52 145.44 358.05 147.86 Q 357.34 151.49 359.00 152.91 Q 359.65 153.47 363.11 154.38 Q 369.18 155.98 375.49 155.16 Q 390.28 153.24 405.15 148.55 Q 406.50 148.12 405.13 147.72 Q 394.54 144.66 383.45 142.27 Q 372.90 139.99 362.50 141.71 Q 360.27 142.08 361.31 140.07 Q 364.67 133.60 370.33 129.23 Q 372.61 127.48 374.67 127.25 Q 377.16 126.98 379.60 128.10 Z M 194.74 154.49 Q 201.46 157.02 208.25 158.63 Q 208.75 158.75 208.47 158.33 Q 205.35 153.69 200.61 148.99 A 1.50 1.50 -40.9 0 0 198.67 148.85 Q 196.32 150.59 194.41 153.48 A 0.68 0.68 27.0 0 0 194.74 154.49 Z"/>
<path fill="rgb(0,0,0)" fill-opacity="1.000" d="M 198.67 148.85 A 1.50 1.50 -40.9 0 1 200.61 148.99 Q 205.35 153.69 208.47 158.33 Q 208.75 158.75 208.25 158.63 Q 201.46 157.02 194.74 154.49 A 0.68 0.68 27.0 0 1 194.41 153.48 Q 196.32 150.59 198.67 148.85 Z"/>
<path fill="rgb(0,0,0)" fill-opacity="1.000" d="M 594.79 150.10 Q 599.06 152.27 601.19 156.82 Q 601.46 157.40 600.82 157.30 Q 593.62 156.15 587.57 153.31 A 1.32 1.32 -55.2 0 1 587.19 151.19 Q 588.81 149.54 590.93 149.27 Q 592.71 149.05 594.79 150.10 Z"/>
<path fill="rgb(0,0,0)" fill-opacity="1.000" d="M 767.05 149.60 A 0.98 0.98 75.8 0 1 768.47 150.45 Q 768.58 154.50 767.69 156.97 A 1.34 1.34 10.6 0 1 766.40 157.85 Q 760.53 157.71 756.15 157.31 Q 755.40 157.24 754.89 156.98 Q 753.24 156.12 755.06 155.31 Q 761.24 152.57 767.05 149.60 Z"/>
<path fill="rgb(0,0,0)" fill-opacity="1.000" d="M 394.38 169.32 Q 397.65 170.77 396.31 175.06 Q 393.72 183.38 387.11 188.60 Q 384.39 190.74 379.71 192.14 Q 370.03 195.01 360.25 197.50 Q 355.43 198.73 350.59 198.33 Q 347.31 198.06 346.01 196.35 Q 344.15 193.90 346.82 190.26 Q 348.23 188.34 350.47 187.51 Q 368.11 180.96 384.88 172.13 Q 384.88 172.13 387.43 170.63 Q 388.72 169.87 390.13 169.36 Q 392.51 168.50 394.38 169.32 Z M 350.19 193.44 Q 349.40 194.71 350.88 194.48 Q 366.97 191.98 382.25 186.00 Q 385.17 184.86 386.90 182.38 Q 389.36 178.87 391.20 175.28 Q 392.68 172.40 390.06 174.31 Q 385.38 177.74 380.07 180.08 Q 366.02 186.26 351.81 192.07 Q 350.77 192.49 350.19 193.44 Z"/>
<path fill="rgb(0,0,0)" fill-opacity="1.000" d="M 862.60 171.10 Q 867.81 176.41 872.45 181.79 Q 873.38 182.86 872.00 182.50 Q 864.32 180.49 857.02 177.38 A 0.59 0.55 19.3 0 1 856.67 176.71 Q 856.99 175.58 857.77 174.73 Q 859.27 173.10 859.39 172.95 Q 860.40 171.74 861.81 170.97 A 0.69 0.66 53.1 0 1 862.60 171.10 Z"/>
<path fill="rgb(252,252,252)" fill-opacity="1.000" d="M 391.20 175.28 Q 389.36 178.87 386.90 182.38 Q 385.17 184.86 382.25 186.00 Q 366.97 191.98 350.88 194.48 Q 349.40 194.71 350.19 193.44 Q 350.77 192.49 351.81 192.07 Q 366.02 186.26 380.07 180.08 Q 385.38 177.74 390.06 174.31 Q 392.68 172.40 391.20 175.28 Z"/>
<path fill="rgb(0,0,0)" fill-opacity="1.000" d="M 763.94 178.31 Q 765.96 181.19 764.57 184.89 Q 760.12 196.72 748.01 200.52 Q 737.19 203.92 726.06 206.07 Q 722.73 206.71 719.38 206.49 Q 716.13 206.27 714.57 204.91 Q 712.05 202.71 714.55 198.76 Q 716.40 195.83 719.75 194.75 Q 740.17 188.19 758.82 177.62 Q 762.13 175.74 763.94 178.31 Z M 718.59 200.95 Q 717.61 202.52 719.45 202.29 Q 729.95 200.95 739.89 198.04 Q 749.20 195.31 752.02 193.60 Q 757.95 190.00 760.19 182.71 Q 760.66 181.17 759.31 182.06 Q 753.17 186.15 746.42 189.15 Q 733.78 194.76 720.74 199.35 Q 719.25 199.87 718.59 200.95 Z"/>
<path fill="rgb(252,252,252)" fill-opacity="1.000" d="M 204.61 180.30 Q 203.99 183.96 201.60 186.84 Q 198.90 190.09 195.24 191.87 Q 193.83 192.56 187.72 194.52 Q 176.83 198.02 165.50 199.75 Q 163.32 200.08 164.28 198.49 A 1.55 1.25 0.3 0 1 165.03 197.89 Q 185.20 190.18 204.25 180.04 Q 204.70 179.81 204.61 180.30 Z"/>
<path fill="rgb(254,254,254)" fill-opacity="1.000" d="M 328.16 181.48 Q 332.32 184.38 335.75 187.61 A 0.77 0.77 38.0 0 1 335.87 188.59 Q 332.68 193.47 329.09 197.38 A 0.57 0.55 39.8 0 1 328.34 197.44 Q 324.54 194.57 320.55 191.71 A 0.76 0.75 -52.0 0 0 319.54 191.84 Q 316.76 195.13 314.19 198.14 A 1.09 1.09 40.1 0 1 312.66 198.27 Q 309.21 195.42 305.72 192.37 A 1.37 1.36 37.1 0 1 305.47 190.60 Q 308.52 185.83 311.62 182.02 A 0.62 0.61 39.5 0 1 312.49 181.94 Q 316.20 185.05 319.94 188.11 A 1.28 1.28 -51.0 0 0 321.75 187.92 Q 324.16 184.91 326.89 181.65 A 0.96 0.95 -52.5 0 1 328.16 181.48 Z"/>
<path fill="rgb(252,252,252)" fill-opacity="1.000" d="M 760.19 182.71 Q 757.95 190.00 752.02 193.60 Q 749.20 195.31 739.89 198.04 Q 729.95 200.95 719.45 202.29 Q 717.61 202.52 718.59 200.95 Q 719.25 199.87 720.74 199.35 Q 733.78 194.76 746.42 189.15 Q 753.17 186.15 759.31 182.06 Q 760.66 181.17 760.19 182.71 Z"/>
<path fill="rgb(0,0,0)" fill-opacity="1.000" d="M 1485.28 184.23 Q 1488.97 186.74 1492.18 189.80 Q 1494.42 191.94 1494.67 193.93 Q 1495.01 196.61 1492.97 198.98 Q 1491.95 200.16 1491.87 201.04 Q 1491.76 202.29 1492.69 201.44 Q 1496.06 198.33 1498.89 200.67 Q 1500.40 201.92 1500.80 203.85 Q 1501.19 205.76 1500.51 207.75 Q 1498.53 213.51 1494.26 217.29 Q 1491.17 220.03 1484.44 222.23 Q 1474.86 225.36 1465.02 227.59 Q 1460.94 228.51 1456.75 228.41 Q 1451.27 228.28 1451.28 223.74 Q 1451.28 221.65 1452.60 220.07 Q 1453.91 218.50 1455.93 217.66 Q 1467.20 213.00 1478.56 208.56 Q 1480.09 207.97 1478.76 207.01 Q 1475.00 204.29 1471.22 200.77 Q 1469.52 199.18 1469.26 197.06 Q 1469.05 195.40 1470.44 193.40 Q 1472.74 190.07 1475.30 186.93 Q 1477.68 184.00 1479.34 183.31 Q 1482.20 182.13 1485.28 184.23 Z M 1490.3580 194.9158 A 0.75 0.75 0 0 0 1490.2269 193.8633 L 1481.8468 187.3396 A 0.75 0.75 0 0 0 1480.7943 187.4707 L 1473.9020 196.3242 A 0.75 0.75 0 0 0 1474.0331 197.3767 L 1482.4132 203.9004 A 0.75 0.75 0 0 0 1483.4657 203.7693 L 1490.3580 194.9158 Z M 1492.38 212.63 Q 1495.42 209.31 1496.69 205.19 Q 1497.22 203.49 1495.75 204.50 Q 1488.38 209.59 1480.07 212.93 Q 1468.61 217.54 1457.20 222.30 Q 1456.49 222.60 1456.17 223.12 Q 1455.19 224.72 1457.75 224.25 Q 1469.00 222.18 1479.93 218.81 Q 1486.39 216.81 1486.58 216.73 Q 1489.88 215.35 1492.38 212.63 Z"/>
<rect fill="rgb(254,254,254)" fill-opacity="1.000" x="-6.06" y="-6.36" width="12.12" height="12.72" rx="0.75" transform="translate(1482.13,195.62) rotate(37.9)"/>
<path fill="rgb(0,0,0)" fill-opacity="1.000" d="M 877.33 200.95 Q 879.42 201.39 880.36 203.21 Q 881.25 204.93 880.74 207.37 Q 880.29 209.50 879.13 211.40 Q 872.54 222.13 860.05 224.72 Q 850.37 226.73 840.75 229.00 Q 838.27 229.58 835.90 229.25 Q 833.18 228.87 831.88 226.99 Q 830.04 224.35 832.16 220.98 A 4.52 4.45 3.2 0 1 834.06 219.31 Q 845.29 214.14 856.83 209.70 Q 862.42 207.54 867.50 204.50 Q 870.57 202.66 873.87 201.41 Q 875.89 200.65 877.33 200.95 Z M 872.41 213.15 Q 875.46 209.71 876.33 205.69 Q 876.71 203.92 875.25 205.00 Q 870.75 208.32 865.64 210.57 Q 851.00 217.03 836.36 223.50 Q 835.88 223.71 835.61 224.00 Q 834.58 225.09 836.76 224.79 Q 851.16 222.79 864.91 218.11 Q 869.33 216.62 872.41 213.15 Z"/>
<path fill="rgb(252,252,252)" fill-opacity="1.000" d="M 1496.69 205.19 Q 1495.42 209.31 1492.38 212.63 Q 1489.88 215.35 1486.58 216.73 Q 1486.39 216.81 1479.93 218.81 Q 1469.00 222.18 1457.75 224.25 Q 1455.19 224.72 1456.17 223.12 Q 1456.49 222.60 1457.20 222.30 Q 1468.61 217.54 1480.07 212.93 Q 1488.38 209.59 1495.75 204.50 Q 1497.22 203.49 1496.69 205.19 Z"/>
<path fill="rgb(252,252,252)" fill-opacity="1.000" d="M 876.33 205.69 Q 875.46 209.71 872.41 213.15 Q 869.33 216.62 864.91 218.11 Q 851.16 222.79 836.76 224.79 Q 834.58 225.09 835.61 224.00 Q 835.88 223.71 836.36 223.50 Q 851.00 217.03 865.64 210.57 Q 870.75 208.32 875.25 205.00 Q 876.71 203.92 876.33 205.69 Z"/>
<path fill="rgb(0,0,0)" fill-opacity="1.000" d="M 564.27 217.14 Q 560.83 227.48 549.75 231.00 Q 537.67 234.83 525.24 237.18 Q 522.92 237.61 520.60 237.47 Q 517.89 237.30 516.42 235.88 Q 513.95 233.50 516.03 229.72 Q 516.95 228.06 518.68 227.31 Q 528.90 222.85 538.47 218.88 Q 543.98 216.60 547.79 214.73 Q 552.39 212.48 556.91 210.08 Q 559.32 208.80 560.94 208.91 Q 563.79 209.10 564.64 211.79 Q 565.33 213.97 564.27 217.14 Z M 557.08 221.08 Q 559.55 218.27 560.69 214.68 Q 561.45 212.29 559.37 213.71 Q 553.10 217.99 544.99 221.22 Q 533.27 225.89 521.75 231.00 Q 517.50 232.88 521.96 232.94 Q 522.64 232.95 523.40 232.82 Q 533.51 231.16 543.29 228.18 Q 549.74 226.22 550.70 225.79 Q 554.35 224.17 557.08 221.08 Z"/>
<path fill="rgb(252,252,252)" fill-opacity="1.000" d="M 559.37 213.71 Q 561.45 212.29 560.69 214.68 Q 559.55 218.27 557.08 221.08 Q 554.35 224.17 550.70 225.79 Q 549.74 226.22 543.29 228.18 Q 533.51 231.16 523.40 232.82 Q 522.64 232.95 521.96 232.94 Q 517.50 232.88 521.75 231.00 Q 533.27 225.89 544.99 221.22 Q 553.10 217.99 559.37 213.71 Z"/>
</svg>