<?xml version="1.0" encoding="UTF-8" standalone="no"?>
<!DOCTYPE svg PUBLIC "-//W3C//DTD SVG 1.1//EN" "http://www.w3.org/Graphics/SVG/1.1/DTD/svg11.dtd">
<svg xmlns="http://www.w3.org/2000/svg" version="1.1" viewBox="0 0 961 411">
<path fill="rgb(0,0,0)" fill-opacity="1.000" d="M 913.77 5.10 Q 913.32 12.62 910.59 19.22 Q 908.30 24.78 903.57 31.65 Q 898.91 38.43 892.72 43.99 Q 888.77 47.53 884.07 51.73 A 1.96 1.96 -29.9 0 0 883.51 53.79 Q 885.73 60.73 884.15 69.04 Q 883.95 70.07 883.43 69.15 L 877.85 59.33 A 0.63 0.35 65.1 0 0 877.38 58.99 L 877.22 59.01 A 0.22 0.17 85.5 0 0 877.07 59.23 Q 878.44 76.27 880.75 115.75 Q 883.43 161.49 885.80 208.17 A 4.16 4.13 22.5 0 0 886.89 210.78 Q 897.15 222.01 907.09 233.91 Q 921.26 250.88 931.07 270.68 Q 936.71 282.06 939.30 294.49 Q 942.37 309.24 938.56 323.83 Q 938.04 325.81 937.72 323.79 Q 933.86 299.77 920.83 279.60 Q 917.70 274.76 909.10 263.41 Q 899.07 250.16 888.61 238.23 Q 887.03 236.43 887.20 238.81 Q 890.37 282.97 888.25 326.50 Q 888.05 330.54 887.20 333.26 Q 886.42 335.74 886.41 335.78 Q 883.53 346.63 879.61 357.16 Q 879.47 357.54 879.25 357.39 A 0.67 0.38 -82.0 0 1 879.06 356.91 Q 878.55 332.94 877.50 315.50 Q 874.62 267.88 871.74 220.16 A 3.59 3.56 -68.0 0 0 870.81 217.94 Q 845.60 190.05 818.29 163.68 Q 817.26 162.68 817.38 164.11 Q 820.67 204.59 823.61 245.80 Q 823.62 245.88 824.43 256.68 Q 827.26 294.29 826.00 332.00 Q 826.44 339.29 824.58 346.11 Q 822.79 352.65 818.23 358.47 Q 805.39 374.87 783.50 375.75 Q 776.41 376.04 770.03 372.96 Q 764.40 370.26 759.49 364.75 Q 753.91 358.48 750.81 350.44 Q 747.40 341.60 745.75 332.25 Q 743.40 324.49 735.94 328.94 Q 729.85 332.57 726.87 335.85 Q 719.00 344.49 714.57 355.32 Q 709.63 367.38 707.11 380.17 Q 705.19 389.93 700.50 397.75 Q 697.67 402.47 692.51 405.73 Q 688.66 408.16 684.52 407.76 Q 681.75 407.49 676.96 405.48 Q 670.79 402.88 666.69 398.31 Q 659.00 389.75 655.75 377.25 Q 651.27 360.00 652.72 338.49 A 1.02 0.98 23.3 0 0 652.38 337.68 Q 648.19 333.99 647.34 328.86 Q 647.00 326.83 647.33 319.14 Q 648.39 294.26 662.62 273.61 Q 668.25 265.44 674.18 258.01 A 1.16 1.15 42.4 0 0 674.11 256.49 Q 649.66 231.30 626.84 205.63 Q 626.14 204.85 626.20 205.90 Q 628.09 239.01 629.37 271.52 Q 629.81 282.58 629.76 291.49 Q 629.65 309.38 628.75 327.25 Q 628.84 329.38 627.81 333.06 Q 621.46 355.75 620.44 357.19 Q 619.49 358.53 619.48 356.50 Q 619.39 337.61 618.27 318.75 Q 614.45 254.62 610.37 188.42 Q 610.25 186.47 608.99 184.99 Q 596.86 170.82 584.74 155.24 Q 579.99 149.13 575.72 142.70 Q 574.05 140.19 567.75 129.47 Q 556.57 110.45 542.54 94.13 A 3.68 3.65 -64.2 0 1 541.67 91.60 L 542.81 66.93 Q 542.83 66.37 543.30 66.68 Q 559.41 77.19 573.42 90.33 Q 579.51 96.05 584.43 102.79 Q 586.02 104.98 586.55 106.54 Q 587.25 108.59 587.25 110.89 A 0.50 0.49 -79.0 0 1 586.57 111.36 L 576.52 107.26 Q 574.44 106.41 575.31 108.43 Q 576.49 111.19 578.25 113.60 Q 580.01 116.02 580.05 116.07 Q 592.90 134.82 607.31 153.63 Q 608.47 155.13 608.35 153.24 Q 605.06 98.97 601.75 43.25 Q 601.46 38.45 600.40 34.99 A 1.35 1.19 52.3 0 1 600.46 34.06 L 610.78 13.12 Q 611.36 11.95 611.81 13.18 Q 619.71 34.57 624.69 56.81 Q 626.16 63.39 624.64 69.02 Q 624.49 69.56 624.22 69.08 L 618.85 59.70 Q 617.57 57.47 617.75 59.98 Q 621.82 117.18 624.56 174.44 Q 624.65 176.35 627.81 178.94 Q 656.30 211.79 686.16 243.39 A 0.47 0.46 -45.4 0 0 686.84 243.38 Q 707.09 221.23 727.31 199.06 Q 730.16 197.11 729.67 193.83 Q 729.43 192.22 729.43 192.15 Q 720.27 87.14 716.25 42.25 Q 715.96 38.99 714.89 35.24 A 1.40 1.27 52.0 0 1 714.96 34.30 L 725.06 13.32 Q 725.58 12.23 726.02 13.37 Q 734.31 35.08 739.45 57.26 Q 740.85 63.33 739.60 68.74 Q 739.28 70.14 738.57 68.88 L 733.38 59.59 Q 732.46 57.96 732.61 59.83 L 742.05 181.71 Q 742.15 183.04 743.07 182.07 L 790.95 131.14 A 0.95 0.95 -41.3 0 0 791.03 129.94 Q 776.48 109.80 763.22 88.34 Q 757.18 78.56 748.90 70.28 A 1.34 1.30 22.1 0 1 748.51 69.40 L 747.26 42.66 Q 747.21 41.53 748.07 42.27 Q 770.82 61.72 792.50 81.44 Q 793.15 82.03 793.69 82.86 Q 794.19 83.62 794.75 84.40 Q 795.83 85.90 795.65 84.07 Q 793.65 62.75 791.85 41.08 Q 791.76 39.99 790.84 37.22 Q 790.01 34.73 791.06 32.56 Q 795.61 23.19 800.32 13.06 Q 800.89 11.83 801.40 13.09 Q 810.25 35.29 815.67 57.77 Q 816.65 61.84 816.00 66.00 Q 816.22 71.01 813.94 67.03 Q 811.71 63.14 809.73 59.50 Q 808.20 56.67 808.49 59.89 L 812.74 106.77 Q 812.86 108.09 813.77 107.14 Q 836.92 82.79 861.50 59.67 A 1.84 1.84 -23.3 0 0 862.08 58.22 L 861.12 42.35 Q 860.96 39.76 860.30 37.35 Q 859.67 35.05 860.10 33.38 Q 860.13 33.27 861.81 30.00 Q 866.09 21.64 870.16 13.25 Q 870.72 12.08 871.18 13.30 Q 875.94 25.89 879.89 39.50 Q 880.15 40.40 880.77 39.72 L 912.65 4.64 Q 913.88 3.29 913.77 5.10 Z M 869.49 191.63 Q 869.97 192.15 869.93 191.45 L 862.84 73.06 Q 862.81 72.56 862.45 72.92 Q 837.92 97.08 814.65 122.45 A 1.25 1.09 -28.1 0 0 814.32 123.32 L 814.71 129.65 A 3.40 2.47 31.4 0 0 815.43 131.38 Q 819.69 136.79 823.59 141.17 Q 846.09 166.51 869.49 191.63 Z M 783.39 87.34 L 796.83 106.95 Q 797.53 107.98 797.42 106.73 Q 796.72 98.62 796.03 90.31 Q 795.99 89.94 795.80 89.74 Q 795.47 89.41 795.11 89.65 A 0.81 0.58 -40.9 0 1 794.33 89.72 Q 789.44 86.49 784.00 86.27 Q 782.61 86.21 783.39 87.34 Z M 732.56 287.02 Q 732.72 263.03 732.81 238.75 Q 732.85 228.60 731.50 216.23 A 1.14 1.12 60.3 0 1 731.70 215.47 Q 732.13 214.87 731.49 214.77 A 1.06 0.78 -58.6 0 0 730.67 215.11 L 695.67 252.49 A 0.88 0.87 -44.0 0 0 695.64 253.66 Q 704.15 263.47 707.62 274.92 Q 712.94 292.41 706.96 308.81 Q 704.47 315.64 700.22 320.89 Q 695.75 326.42 689.81 330.31 Q 678.98 337.42 665.76 339.35 Q 660.56 340.11 656.04 338.89 A 0.70 0.69 4.8 0 0 655.17 339.62 Q 656.86 358.64 663.85 375.42 Q 667.12 383.27 672.56 387.19 Q 678.50 391.46 684.94 388.69 Q 693.15 385.15 696.25 376.25 Q 698.76 369.05 701.44 358.59 Q 704.13 348.09 705.62 344.08 Q 708.12 337.37 711.75 330.25 Q 718.76 316.49 730.39 307.53 Q 735.93 303.26 739.03 302.07 Q 745.25 299.68 749.92 304.51 Q 752.15 306.81 754.13 311.61 Q 755.83 315.73 756.75 319.50 Q 759.20 329.53 763.96 337.96 Q 766.33 342.16 768.85 344.40 Q 772.04 347.24 776.00 348.50 Q 785.84 351.63 796.34 348.68 Q 806.70 345.76 816.02 338.78 A 1.90 1.88 69.8 0 0 816.78 337.11 Q 813.08 288.60 808.88 240.49 Q 804.68 192.53 800.69 144.56 Q 800.44 142.47 798.95 140.49 A 0.69 0.68 47.5 0 0 797.90 140.44 Q 770.48 170.03 744.33 199.87 A 1.23 1.23 -26.4 0 0 744.03 200.75 Q 744.92 216.91 746.75 233.00 Q 747.25 245.98 744.99 258.75 Q 742.25 274.24 733.55 287.32 Q 732.55 288.83 732.56 287.02 Z M 658.19 311.81 Q 661.04 313.78 665.49 313.20 Q 681.02 311.16 693.80 302.28 Q 693.86 302.24 695.90 300.96 Q 698.28 299.47 699.46 297.03 Q 700.44 295.00 699.61 292.41 Q 698.28 288.22 695.56 283.94 Q 690.04 275.23 683.54 267.43 A 0.55 0.55 90.0 0 0 682.70 267.43 Q 671.32 280.70 661.94 295.44 Q 658.83 300.32 656.73 305.70 Q 655.16 309.72 658.19 311.81 Z"/>
<path fill="rgb(0,0,0)" fill-opacity="1.000" d="M 940.01 9.48 Q 948.88 37.69 955.42 65.76 Q 956.08 68.59 955.79 70.79 Q 955.47 73.07 954.72 75.80 Q 954.51 76.56 954.16 75.85 L 949.99 67.48 Q 949.25 66.00 949.34 67.67 Q 953.75 148.97 960.00 230.75 Q 960.49 237.16 961.00 252.06 Q 961.00 259.69 961.00 267.31 Q 960.68 276.35 959.25 290.75 Q 956.41 319.35 943.40 344.92 Q 937.69 356.14 928.35 364.59 Q 916.17 375.63 901.14 382.33 Q 877.19 393.01 851.25 397.00 Q 848.80 397.96 848.28 395.93 A 0.65 0.61 -20.2 0 1 848.64 395.22 Q 885.29 377.55 915.94 352.69 Q 924.52 345.72 932.22 335.99 Q 947.29 316.93 948.50 292.50 Q 948.58 290.98 948.53 282.67 Q 948.51 277.85 948.17 272.85 Q 940.45 159.31 933.00 45.75 Q 932.46 40.93 929.88 36.36 Q 928.98 34.77 929.67 33.09 L 939.29 9.45 Q 939.69 8.46 940.01 9.48 Z"/>
<path fill="rgb(0,0,0)" fill-opacity="1.000" d="M 108.14 10.98 Q 116.65 33.56 121.49 56.74 Q 122.03 59.34 121.85 61.80 Q 121.66 64.39 121.33 66.90 Q 121.14 68.33 120.44 67.08 L 115.19 57.64 Q 114.02 55.54 114.22 57.92 Q 117.73 99.58 120.00 141.05 A 1.14 1.13 81.5 0 0 121.40 142.09 Q 136.11 138.54 143.81 124.81 Q 147.55 118.16 148.95 113.74 Q 152.87 101.43 152.86 88.72 Q 152.85 80.48 151.53 68.78 Q 150.00 55.15 145.50 42.75 Q 144.14 39.00 144.70 35.74 Q 146.36 26.12 150.41 17.62 Q 151.40 15.56 152.15 17.72 Q 159.17 37.95 161.55 58.74 Q 162.87 70.25 164.25 81.75 Q 164.66 93.85 168.63 105.05 Q 171.57 113.35 175.80 118.62 Q 180.71 124.73 187.83 128.66 Q 194.09 132.11 201.25 132.04 Q 213.50 131.92 220.69 123.19 Q 222.86 120.55 221.48 116.72 Q 207.16 77.30 195.50 37.00 Q 193.52 32.61 194.00 30.25 Q 195.94 20.73 199.89 11.64 A 0.88 0.87 31.5 0 1 201.25 11.32 Q 205.23 14.62 208.19 19.36 Q 214.29 29.13 219.09 39.60 Q 219.58 40.66 219.71 41.47 Q 219.89 42.57 219.76 43.47 Q 219.50 45.18 218.44 43.82 Q 216.17 40.92 212.74 39.50 A 0.90 0.89 13.4 0 0 211.50 40.26 Q 211.33 42.70 212.15 45.00 Q 219.58 65.69 225.92 86.73 Q 232.69 109.20 224.98 131.33 Q 221.32 141.85 213.81 148.06 Q 209.19 151.89 203.04 153.03 Q 197.50 154.05 191.49 152.68 Q 182.13 150.55 175.15 143.35 Q 167.58 135.54 163.18 125.56 Q 159.47 117.13 157.19 108.19 Q 157.03 107.55 156.67 107.35 Q 156.39 107.19 156.05 107.21 A 0.76 0.61 -83.1 0 0 155.45 107.80 Q 151.73 123.63 146.44 134.69 Q 141.47 145.07 135.31 152.06 Q 129.73 158.40 122.10 162.23 A 1.17 1.17 -15.3 0 0 121.46 163.35 Q 123.92 201.55 125.77 239.27 Q 126.30 250.01 126.14 259.26 Q 125.92 272.88 125.25 286.50 Q 125.36 291.20 123.78 295.55 Q 122.49 299.09 122.48 299.12 Q 119.87 307.23 117.28 314.48 Q 116.03 317.98 116.00 314.26 Q 115.87 297.11 114.75 280.00 Q 111.01 223.08 106.85 166.19 A 0.58 0.57 89.4 0 0 106.32 165.66 Q 83.74 164.45 76.31 144.19 Q 68.41 122.64 74.02 98.66 Q 75.39 92.82 75.39 92.82 Q 77.49 83.19 77.81 82.31 Q 79.41 77.89 78.81 73.68 Q 78.40 70.80 76.07 72.55 Q 73.49 74.50 71.64 77.15 Q 66.79 84.11 63.84 92.07 Q 58.17 107.37 56.75 119.25 Q 55.07 133.38 50.69 145.94 Q 49.44 149.53 47.44 153.23 Q 45.29 157.23 42.92 159.78 Q 32.39 171.08 18.19 160.56 Q 13.52 157.11 10.84 149.43 Q 7.80 140.72 7.38 131.49 Q 6.18 105.68 12.19 80.56 A 1.48 1.08 85.7 0 1 12.69 79.76 Q 13.93 78.89 13.69 80.94 Q 11.81 91.65 10.88 102.49 Q 9.87 114.16 11.25 126.75 Q 12.26 136.03 16.66 143.66 Q 22.63 154.02 34.25 153.00 Q 38.10 152.66 41.05 150.09 Q 43.17 148.24 45.16 144.30 Q 48.68 137.32 50.00 129.50 Q 52.47 118.14 54.75 106.75 Q 57.58 92.63 65.96 73.83 Q 73.29 57.41 85.44 44.19 Q 88.85 40.47 88.75 45.00 Q 88.52 55.17 86.01 65.00 Q 81.84 81.36 79.00 98.00 Q 77.46 105.18 77.87 112.39 Q 78.32 120.27 81.27 126.20 Q 87.89 139.52 104.54 142.34 A 0.53 0.53 2.6 0 0 105.16 141.78 Q 101.80 91.59 98.38 40.99 Q 98.14 37.39 96.85 33.26 A 2.11 2.03 -41.2 0 1 96.98 31.71 L 107.37 10.94 Q 107.80 10.08 108.14 10.98 Z"/>
<path fill="rgb(0,0,0)" fill-opacity="1.000" d="M 555.61 11.47 Q 557.47 9.81 556.26 11.99 Q 549.87 23.46 547.10 36.27 Q 546.21 40.35 547.56 43.69 Q 549.08 47.44 553.48 47.01 Q 558.92 46.48 560.99 41.39 Q 562.10 38.66 562.23 41.32 Q 562.26 41.73 562.18 42.17 Q 560.90 49.67 557.19 55.44 Q 552.28 63.07 544.06 58.44 Q 542.28 57.43 541.24 55.38 Q 540.46 53.85 540.24 51.49 Q 539.69 45.50 541.69 39.19 Q 545.47 27.21 551.76 16.33 Q 553.49 13.35 555.61 11.47 Z"/>
<path fill="rgb(0,0,0)" fill-opacity="1.000" d="M 242.13 12.23 Q 251.13 33.36 257.00 55.25 Q 258.73 61.71 257.42 67.70 Q 257.31 68.23 257.04 67.77 L 251.17 57.99 A 1.09 0.70 69.4 0 0 250.47 57.47 Q 249.83 57.41 250.11 58.01 Q 250.26 58.31 250.28 58.53 Q 258.72 134.15 264.86 211.32 Q 264.93 212.32 265.67 211.64 Q 268.45 209.07 270.40 206.47 Q 271.86 204.51 273.70 200.38 Q 277.57 191.68 280.31 187.31 Q 282.69 183.52 284.06 182.56 Q 286.37 180.95 287.95 182.21 Q 289.07 183.10 289.12 185.16 Q 289.21 189.09 287.50 192.75 Q 286.08 203.17 296.51 204.45 Q 302.57 205.19 308.56 204.20 Q 312.15 203.60 312.57 203.48 Q 314.59 202.91 316.20 201.43 A 1.93 1.87 -31.5 0 0 316.72 199.41 L 312.85 188.42 A 1.80 1.65 48.3 0 1 312.87 187.15 L 321.51 166.73 Q 322.14 165.23 322.49 166.82 Q 325.89 182.36 325.00 198.50 Q 324.36 210.15 317.31 221.56 Q 311.44 231.08 301.21 231.62 Q 293.67 232.01 287.52 227.82 Q 281.19 223.51 278.56 215.68 Q 278.30 214.91 277.94 215.64 Q 273.12 225.63 266.87 233.42 A 1.31 1.26 -29.4 0 0 266.60 234.31 Q 268.07 254.19 268.25 260.25 Q 268.47 267.81 266.46 276.60 Q 264.56 284.88 261.57 292.78 Q 258.77 300.15 253.79 307.69 Q 231.05 342.06 197.19 365.19 Q 166.67 386.03 130.34 393.49 Q 119.13 395.79 110.52 395.60 Q 96.39 395.28 84.31 390.19 Q 70.99 384.57 63.43 373.30 A 2.65 2.65 70.3 0 0 60.98 372.14 Q 34.47 374.82 9.50 374.97 Q 9.24 374.98 9.25 374.78 A 0.40 0.29 -11.6 0 1 9.52 374.49 Q 33.10 366.06 55.82 356.17 A 0.59 0.59 -16.0 0 0 56.17 355.54 Q 53.02 336.00 56.08 317.51 Q 60.84 288.75 71.70 261.69 Q 72.88 258.74 72.23 261.96 Q 72.19 262.18 72.12 262.40 Q 66.41 280.92 64.85 300.24 Q 63.81 313.15 65.49 326.00 Q 67.02 337.62 71.93 347.91 A 0.95 0.95 64.5 0 0 73.19 348.36 Q 96.61 337.21 118.37 324.42 Q 147.69 307.19 173.07 284.57 Q 182.96 275.76 190.57 265.68 Q 192.00 263.78 191.33 261.81 L 187.24 249.76 A 0.86 0.81 -21.1 0 0 186.10 249.30 Q 172.98 254.96 159.00 255.11 Q 148.97 255.22 143.44 252.19 Q 138.10 249.28 135.37 243.63 Q 133.25 239.24 133.23 232.55 Q 133.20 221.86 136.83 211.65 Q 140.94 200.09 150.50 193.25 Q 153.87 190.84 158.03 189.62 Q 161.90 188.48 165.99 189.44 Q 176.01 191.77 182.89 199.87 Q 190.25 208.54 194.26 219.05 A 0.38 0.38 64.6 0 0 194.81 219.25 Q 200.05 216.20 204.44 212.66 Q 206.15 211.29 212.75 204.53 Q 218.34 198.81 224.84 194.10 Q 227.19 192.39 229.82 191.79 Q 231.97 191.30 232.25 193.48 Q 232.81 197.89 231.39 202.09 Q 229.93 206.41 232.09 210.45 Q 237.18 219.99 249.53 218.33 A 1.17 1.16 83.4 0 0 250.53 217.06 Q 241.85 128.75 233.36 40.74 Q 233.05 37.54 231.89 35.31 A 2.34 2.29 43.7 0 1 231.82 33.30 L 241.24 12.21 Q 241.70 11.20 242.13 12.23 Z M 169.92 222.59 Q 164.22 217.41 156.64 216.64 Q 153.45 216.31 151.06 217.54 Q 148.43 218.88 146.55 221.33 Q 145.13 223.18 146.73 224.88 Q 148.40 226.65 151.40 227.23 Q 162.43 229.38 173.45 227.28 A 0.43 0.42 -16.4 0 0 173.77 226.71 Q 173.14 225.15 171.84 224.11 Q 169.94 222.61 169.92 222.59 Z M 212.26 231.26 Q 207.35 236.13 201.37 240.89 A 1.02 1.02 69.9 0 0 200.98 241.73 Q 201.70 261.83 195.01 280.09 Q 193.34 284.62 190.30 288.70 Q 177.78 305.54 158.81 321.06 Q 127.08 347.04 89.83 364.49 Q 88.34 365.18 89.85 365.86 Q 100.41 370.57 112.75 369.71 Q 139.71 367.84 164.58 357.36 Q 183.09 349.56 199.59 338.11 Q 227.42 318.80 248.55 292.47 Q 253.57 286.22 254.59 283.82 Q 256.59 279.13 256.00 273.00 Q 254.59 258.34 253.12 244.27 A 0.59 0.59 76.4 0 0 252.32 243.78 Q 243.41 247.17 236.32 244.06 Q 230.47 241.50 226.64 234.44 Q 223.26 228.21 222.69 220.79 Q 222.57 219.31 221.67 220.50 Q 217.43 226.13 212.26 231.26 Z"/>
<path fill="rgb(0,0,0)" fill-opacity="1.000" d="M 510.23 12.71 Q 513.11 14.91 514.83 17.43 Q 522.87 29.17 528.71 42.15 Q 529.10 43.01 529.04 43.81 Q 528.83 46.64 527.00 44.53 Q 526.21 43.62 525.71 43.24 Q 524.17 42.11 522.44 41.31 Q 519.46 39.94 520.50 43.25 Q 524.25 55.23 528.43 67.06 Q 532.65 79.02 535.80 91.30 Q 541.43 113.24 533.26 134.29 Q 531.89 137.82 529.98 141.05 Q 527.99 144.39 525.42 146.96 Q 515.11 157.26 501.24 154.27 Q 494.00 152.71 487.68 147.91 Q 481.53 143.23 477.44 136.56 Q 469.72 124.00 466.06 109.05 A 0.97 0.72 86.3 0 0 465.48 108.37 Q 464.61 108.14 464.36 109.32 Q 461.37 124.05 454.06 138.81 Q 448.66 149.72 440.57 157.32 Q 431.68 165.66 419.49 166.64 Q 401.76 168.06 391.67 156.21 Q 386.75 150.42 384.05 141.40 Q 381.72 133.62 381.25 124.75 Q 380.66 113.53 382.32 104.76 Q 384.63 92.54 387.75 80.50 Q 388.33 77.77 388.00 74.98 Q 387.65 72.06 385.34 73.89 Q 380.37 77.81 377.14 84.35 Q 368.05 102.80 365.50 123.25 Q 363.53 139.17 357.44 152.94 Q 355.52 157.27 351.79 161.55 Q 346.38 167.75 338.02 166.59 Q 327.50 165.13 322.38 155.90 Q 319.24 150.26 317.81 143.94 Q 316.64 138.72 316.22 131.00 Q 315.88 124.95 316.26 117.99 Q 317.24 100.18 320.93 82.70 Q 321.07 82.00 321.48 81.59 Q 322.77 80.27 322.77 82.36 Q 322.77 82.86 322.64 83.63 Q 319.58 100.67 319.53 118.00 Q 319.50 131.63 324.31 142.94 Q 326.25 147.49 330.19 150.57 Q 334.14 153.65 338.70 154.42 Q 344.22 155.36 348.83 152.30 Q 351.83 150.32 354.09 146.24 Q 356.12 142.56 357.19 138.69 Q 359.62 129.91 361.59 119.07 Q 366.42 92.56 378.65 68.58 Q 382.70 60.64 387.82 53.35 Q 391.06 48.74 395.28 45.09 Q 397.77 42.93 397.75 46.23 Q 397.69 55.76 395.36 64.96 Q 391.64 79.61 389.00 94.50 Q 386.87 103.14 387.00 111.91 Q 387.14 121.09 389.86 127.13 Q 393.29 134.76 400.56 139.19 Q 406.66 142.90 414.31 143.89 Q 420.52 144.70 426.20 144.13 Q 432.35 143.52 437.81 140.85 Q 444.74 137.47 449.95 130.64 Q 454.72 124.39 457.56 116.31 Q 461.61 104.82 461.90 94.25 Q 462.63 67.28 453.83 41.49 Q 453.30 39.96 453.56 38.35 Q 455.20 28.37 459.25 19.50 Q 460.43 16.91 461.36 19.60 Q 464.89 29.75 467.23 40.01 Q 468.85 47.13 470.52 59.72 Q 473.44 81.65 473.75 87.25 Q 474.67 103.57 482.31 116.44 Q 487.69 125.49 498.13 130.55 Q 512.42 137.48 526.06 128.31 Q 529.98 125.68 530.73 121.93 Q 531.21 119.53 529.48 114.76 Q 514.94 74.76 503.51 34.67 Q 502.95 32.68 503.38 30.66 Q 505.37 21.29 509.11 13.00 A 0.74 0.74 -59.4 0 1 510.23 12.71 Z"/>
<path fill="rgb(0,0,0)" fill-opacity="1.000" d="M 406.96 17.32 Q 414.18 22.41 418.97 30.50 Q 427.46 44.84 421.69 60.44 Q 421.57 60.75 421.30 60.87 Q 420.79 61.09 420.89 60.44 Q 424.28 38.67 406.11 27.08 A 0.97 0.76 21.7 0 1 405.66 26.31 L 406.19 17.66 Q 406.24 16.82 406.96 17.32 Z"/>
<path fill="rgb(0,0,0)" fill-opacity="1.000" d="M 23.94 21.17 Q 18.89 30.59 15.81 40.81 Q 14.19 46.18 15.15 51.01 Q 15.73 53.88 17.60 55.21 Q 19.94 56.86 22.94 55.94 Q 27.00 54.69 28.90 49.99 Q 29.10 49.48 29.38 49.25 Q 30.11 48.65 30.23 49.81 Q 30.26 50.18 30.18 50.69 Q 28.63 59.80 23.69 66.19 Q 21.40 69.15 17.01 68.90 Q 12.22 68.63 9.84 65.35 Q 7.99 62.79 7.99 58.29 Q 7.99 53.06 9.94 46.94 Q 13.67 35.17 20.04 24.60 Q 21.53 22.12 23.22 20.61 Q 25.20 18.83 23.94 21.17 Z"/>
<path fill="rgb(0,0,0)" fill-opacity="1.000" d="M 674.71 20.11 Q 677.49 20.79 679.84 23.15 Q 683.48 26.81 679.09 30.72 A 0.63 0.63 -32.4 0 1 678.09 30.50 Q 676.96 27.82 674.46 26.69 A 1.18 1.12 -43.6 0 0 673.54 26.69 Q 669.03 28.67 667.75 33.25 Q 664.84 43.67 664.25 54.50 Q 663.62 55.98 662.30 55.80 A 0.63 0.55 -87.0 0 1 661.82 55.18 Q 661.92 45.90 656.52 38.06 A 3.09 3.05 78.0 0 0 654.60 36.80 Q 650.43 35.96 649.04 33.99 Q 646.12 29.83 646.63 25.75 Q 647.06 22.24 649.93 24.31 Q 658.83 30.72 662.72 41.01 Q 662.93 41.55 663.35 41.50 A 0.80 0.56 -86.6 0 0 663.88 40.83 Q 664.86 33.76 667.30 27.06 Q 668.32 24.25 670.52 21.52 Q 672.17 19.49 674.71 20.11 Z"/>
<path fill="rgb(0,0,0)" fill-opacity="1.000" d="M 337.64 25.51 Q 339.70 30.67 339.23 36.53 A 3.15 3.13 -64.3 0 0 340.06 38.92 Q 344.70 43.85 345.86 49.85 Q 346.60 53.67 345.28 59.08 Q 343.98 64.40 342.19 67.94 Q 338.41 75.40 337.00 83.00 Q 336.44 85.99 339.02 86.86 A 1.02 0.98 -52.3 0 0 339.91 86.73 Q 342.14 85.18 342.63 82.49 Q 342.87 81.17 343.36 80.71 Q 344.37 79.75 345.46 81.10 A 1.39 1.18 -66.3 0 1 345.73 82.00 Q 345.44 88.15 341.69 93.44 Q 340.19 95.55 338.11 95.42 Q 336.40 95.31 335.07 93.56 Q 333.68 91.73 333.25 89.50 Q 332.04 83.17 334.87 77.05 Q 338.62 68.93 340.80 60.26 Q 342.75 52.48 338.45 45.42 Q 337.62 44.06 337.02 45.53 Q 332.27 57.10 323.94 67.44 Q 318.43 74.28 311.39 78.26 Q 309.58 79.29 304.27 81.92 Q 300.69 83.69 296.96 85.14 Q 296.53 85.30 296.51 85.06 A 0.56 0.32 -27.6 0 1 296.76 84.67 Q 303.64 79.91 309.83 74.33 Q 317.55 67.35 321.60 62.59 Q 329.05 53.81 332.94 42.68 A 1.39 1.39 -67.0 0 0 332.25 40.97 Q 328.71 39.18 326.00 36.03 Q 321.84 31.19 325.23 25.71 Q 326.69 23.36 329.20 22.21 Q 335.23 19.44 337.64 25.51 Z M 332.38 32.96 Q 334.71 34.28 333.98 30.74 Q 333.69 29.34 333.14 28.49 Q 331.36 25.68 327.81 28.02 A 1.37 1.37 -44.9 0 0 327.80 30.30 Q 329.16 31.21 330.40 31.83 Q 330.53 31.90 332.38 32.96 Z"/>
<path fill="rgb(0,0,0)" fill-opacity="1.000" d="M 271.36 33.92 Q 282.15 41.32 286.36 54.50 Q 289.89 65.59 285.69 76.69 Q 285.55 77.07 285.31 77.18 Q 284.77 77.45 284.90 76.69 Q 288.46 54.87 270.17 43.51 A 0.94 0.73 21.3 0 1 269.72 42.76 L 270.21 34.43 Q 270.29 33.18 271.36 33.92 Z"/>
<path fill="rgb(0,0,0)" fill-opacity="1.000" d="M 180.91 40.32 Q 180.66 46.51 182.78 52.37 Q 184.01 55.78 187.37 55.98 Q 189.82 56.12 188.94 53.82 Q 187.84 50.96 186.69 48.14 Q 185.41 45.01 186.95 41.92 Q 188.38 39.04 189.35 42.11 Q 190.16 44.65 191.40 47.54 Q 192.65 50.47 192.58 52.69 Q 192.49 55.27 191.81 58.06 Q 190.33 64.13 184.25 62.00 Q 182.98 61.56 180.09 58.38 A 0.36 0.35 38.1 0 0 179.52 58.44 Q 177.46 62.18 174.44 63.19 Q 169.09 64.97 167.00 59.25 Q 164.46 52.30 168.45 45.11 Q 168.69 44.68 169.05 44.35 Q 171.48 42.19 169.94 45.44 Q 168.30 48.89 169.64 53.78 Q 171.21 59.53 176.40 55.55 A 2.80 2.79 -18.7 0 0 177.50 53.33 Q 177.50 49.50 177.55 46.25 Q 177.60 42.39 180.53 40.11 Q 180.93 39.80 180.91 40.32 Z"/>
<path fill="rgb(0,0,0)" fill-opacity="1.000" d="M 698.15 49.04 A 0.35 0.35 83.9 0 1 698.62 49.42 Q 698.01 53.75 694.42 55.31 Q 673.63 64.36 653.00 73.75 Q 646.18 76.74 640.93 80.83 Q 639.19 82.19 641.09 83.06 L 645.58 85.11 A 1.15 1.05 12.9 0 1 646.25 86.08 L 646.32 90.07 A 0.62 0.55 -80.1 0 1 645.55 90.68 L 638.91 87.81 A 2.52 1.84 -87.1 0 1 637.72 86.00 Q 636.77 79.57 639.73 76.09 Q 640.88 74.74 647.52 71.29 Q 672.13 58.47 698.15 49.04 Z"/>
<path fill="rgb(0,0,0)" fill-opacity="1.000" d="M 422.81 67.46 Q 423.55 75.35 426.12 82.82 Q 427.04 85.51 428.62 86.74 Q 430.66 88.34 433.22 88.47 Q 436.50 88.64 435.50 85.51 Q 433.87 80.44 431.63 75.78 Q 430.62 73.68 430.89 72.03 Q 431.17 70.29 432.01 68.69 A 1.66 1.63 -34.5 0 0 432.19 67.76 Q 431.89 64.20 435.21 65.16 A 0.89 0.82 90.0 0 1 435.80 65.80 Q 437.22 71.64 439.85 77.03 Q 441.10 79.58 441.15 81.75 Q 441.27 87.76 439.24 93.37 Q 438.16 96.35 435.96 97.57 Q 431.45 100.08 426.58 96.39 Q 423.73 94.24 421.90 91.61 A 0.46 0.46 -48.7 0 0 421.12 91.66 Q 419.24 95.09 416.64 97.25 Q 413.60 99.78 410.27 99.98 Q 407.11 100.17 404.68 98.06 Q 402.85 96.47 401.78 93.32 Q 399.03 85.20 401.48 76.63 Q 402.69 72.38 406.16 69.48 Q 407.78 68.13 406.95 70.07 Q 404.30 76.28 405.23 82.32 Q 405.77 85.81 406.37 87.15 Q 407.17 88.89 408.87 89.83 Q 410.39 90.68 412.24 90.16 Q 415.45 89.25 417.47 86.41 A 1.76 1.28 70.8 0 0 417.75 85.49 L 418.22 69.74 A 1.83 1.67 -29.3 0 1 418.52 68.84 Q 419.50 67.43 420.69 66.19 Q 423.71 61.73 422.90 66.05 Q 422.75 66.81 422.81 67.46 Z"/>
<path fill="rgb(0,0,0)" fill-opacity="1.000" d="M 177.60 78.11 Q 177.75 76.55 179.01 77.57 Q 190.93 87.24 194.17 99.23 Q 197.02 109.74 193.13 119.91 Q 192.95 120.36 192.68 120.39 A 0.51 0.35 -86.5 0 1 192.32 119.79 Q 195.59 97.99 177.24 86.70 A 0.85 0.78 19.9 0 1 176.84 85.93 L 177.60 78.11 Z"/>
<path fill="rgb(0,0,0)" fill-opacity="1.000" d="M 676.40 111.09 Q 677.60 109.93 677.00 111.49 Q 676.32 113.28 676.59 115.18 Q 677.61 122.37 679.77 129.29 Q 680.73 132.34 682.20 133.60 Q 684.16 135.29 687.09 135.51 Q 690.52 135.77 689.32 132.70 L 684.71 120.95 A 1.91 1.17 51.2 0 1 684.59 120.01 Q 685.18 117.04 686.19 114.19 Q 686.54 111.03 689.13 112.43 A 1.26 1.10 -86.1 0 1 689.69 113.17 Q 691.11 118.70 693.62 123.82 Q 694.82 126.26 694.90 128.46 Q 695.14 135.24 693.44 140.19 Q 691.23 146.61 685.14 145.58 Q 682.22 145.08 679.74 143.08 Q 677.37 141.17 675.81 138.43 Q 675.17 137.31 674.74 138.52 Q 672.46 144.86 664.88 147.00 Q 663.79 147.30 662.69 147.04 Q 659.26 146.24 657.28 143.84 Q 655.76 142.00 655.01 138.34 Q 653.22 129.67 656.55 121.23 Q 657.66 118.41 660.01 116.49 Q 661.97 114.89 660.78 117.13 Q 657.52 123.30 659.28 131.10 Q 661.73 141.91 670.60 134.34 A 3.36 3.35 -21.1 0 0 671.77 131.71 Q 671.61 125.01 671.88 119.00 Q 671.99 116.62 673.22 114.86 Q 674.70 112.74 676.40 111.09 Z"/>
<path fill="rgb(0,0,0)" fill-opacity="1.000" d="M 892.51 111.51 Q 897.76 115.18 902.16 119.85 Q 920.33 139.11 914.20 165.44 Q 913.59 168.07 912.54 169.41 Q 911.37 170.92 911.67 169.03 Q 916.02 141.54 894.05 126.46 Q 892.72 125.55 891.54 124.64 A 0.82 0.78 20.9 0 1 891.22 123.97 L 892.00 111.74 Q 892.04 111.18 892.51 111.51 Z"/>
<path fill="rgb(0,0,0)" fill-opacity="1.000" d="M 307.96 124.78 Q 308.75 124.29 308.61 125.21 Q 307.60 132.29 302.26 135.55 Q 282.49 147.61 262.98 159.71 Q 261.31 160.74 262.24 159.01 L 265.85 152.30 Q 266.59 150.93 267.90 150.11 L 307.96 124.78 Z"/>
<path fill="rgb(0,0,0)" fill-opacity="1.000" d="M 563.04 151.95 Q 565.02 157.40 561.81 163.31 Q 552.99 179.55 536.51 185.57 Q 536.17 185.70 535.84 185.72 Q 534.16 185.82 535.74 184.77 Q 542.01 180.60 547.86 175.87 Q 552.35 172.25 555.36 167.34 Q 558.48 162.26 553.67 159.05 Q 552.04 157.96 550.28 158.83 Q 547.23 160.32 544.57 163.30 Q 543.26 164.77 543.09 163.31 A 1.50 1.16 -37.7 0 1 543.33 162.39 Q 545.34 159.19 547.78 156.30 Q 551.31 152.10 556.03 149.30 Q 558.49 147.83 560.55 148.82 Q 562.18 149.61 563.04 151.95 Z"/>
<path fill="rgb(0,0,0)" fill-opacity="1.000" d="M 720.36 159.32 Q 719.68 165.24 716.26 168.74 Q 715.36 169.67 708.17 174.14 Q 682.85 189.88 657.23 205.77 Q 655.95 206.56 656.45 205.15 L 659.07 197.76 A 3.54 3.28 -7.9 0 1 660.51 196.00 L 719.92 159.04 Q 720.42 158.73 720.36 159.32 Z"/>
<path fill="rgb(0,0,0)" fill-opacity="1.000" d="M 387.28 168.34 Q 393.00 176.73 397.55 185.64 Q 401.01 192.41 406.08 203.74 Q 422.97 241.48 426.75 283.00 Q 426.73 296.72 428.87 310.27 Q 431.27 325.43 438.06 335.94 Q 442.77 343.21 452.15 352.10 Q 453.61 353.48 454.87 353.44 Q 456.45 353.39 457.00 351.73 Q 457.23 351.05 457.17 349.24 Q 456.97 342.73 460.94 336.69 Q 467.61 326.52 477.45 321.46 Q 500.92 309.40 526.44 302.69 Q 526.65 302.57 526.70 302.40 A 0.33 0.26 7.3 0 0 526.36 302.06 L 430.29 302.94 A 0.23 0.22 -84.7 0 1 430.07 302.67 Q 432.08 291.72 434.72 280.89 Q 435.25 278.72 436.73 277.12 Q 446.37 266.70 459.19 257.94 Q 482.56 241.96 508.27 230.51 A 1.36 1.36 -33.3 0 0 508.72 228.35 Q 504.03 223.26 502.96 216.93 Q 502.03 211.42 504.42 204.79 Q 507.39 196.55 513.62 190.29 Q 516.70 187.21 519.77 186.62 Q 523.53 185.90 527.31 187.69 Q 530.14 188.77 532.79 190.23 Q 549.91 199.68 563.49 213.74 A 0.74 0.73 -58.7 0 1 563.66 214.47 L 557.29 234.88 A 1.14 1.13 3.0 0 1 556.42 235.66 Q 542.36 238.56 528.83 242.55 A 0.46 0.45 -9.6 0 0 528.50 243.01 Q 528.62 245.26 529.11 247.47 Q 530.52 253.78 528.82 259.96 A 1.20 1.02 87.4 0 1 528.26 260.68 Q 526.38 261.64 525.96 259.01 Q 524.87 252.25 521.21 246.48 A 0.64 0.63 -26.0 0 0 520.46 246.23 Q 496.19 254.78 474.43 268.50 Q 467.03 273.16 460.90 279.48 Q 459.85 280.56 461.36 280.56 L 610.57 280.50 A 0.59 0.59 -77.1 0 1 611.10 281.35 L 601.93 300.67 A 2.23 2.19 -83.5 0 1 600.44 301.88 Q 557.15 312.18 514.26 326.03 Q 496.35 331.82 479.31 339.81 Q 472.16 343.17 465.66 347.65 Q 463.74 348.98 463.41 350.29 Q 462.89 352.38 465.26 353.98 Q 473.34 359.44 485.50 363.25 Q 494.88 366.19 505.13 369.18 A 0.85 0.84 -81.2 0 1 505.74 370.02 L 504.98 394.16 A 0.64 0.64 -29.5 0 1 504.32 394.78 Q 492.19 394.24 480.56 392.23 Q 469.12 390.25 461.48 386.52 Q 448.99 380.43 440.81 369.94 Q 426.49 351.58 421.00 327.75 Q 417.23 311.42 416.29 297.56 Q 416.24 296.86 415.94 296.52 Q 415.47 295.99 414.89 296.47 Q 414.58 296.73 414.48 297.27 Q 412.82 306.77 409.70 315.86 Q 408.74 318.65 406.75 320.98 Q 389.29 341.42 368.57 358.57 Q 359.65 365.96 349.89 372.19 Q 339.82 378.63 328.52 382.56 Q 322.37 384.70 315.97 384.92 Q 309.59 385.13 305.28 383.14 Q 300.13 380.76 296.88 375.60 Q 293.48 370.21 291.82 363.25 A 0.43 0.43 65.0 0 0 291.14 363.00 Q 277.94 373.14 263.94 381.94 Q 261.97 383.18 258.37 384.51 Q 240.80 391.01 222.60 395.45 Q 200.15 400.94 177.35 405.53 Q 174.34 406.14 177.05 404.69 Q 235.92 373.14 290.97 335.34 A 2.38 2.38 79.3 0 0 291.93 333.93 Q 294.18 324.37 296.62 316.58 Q 301.92 299.67 312.56 285.53 Q 313.80 283.89 313.31 285.81 Q 312.66 288.39 309.44 294.43 Q 300.47 311.22 297.76 329.56 Q 297.61 330.55 298.42 329.96 Q 315.52 317.52 330.84 304.07 Q 337.76 298.01 344.20 291.44 Q 353.13 282.35 356.44 277.69 Q 359.62 273.21 356.69 267.56 Q 356.23 266.68 333.43 208.21 A 1.61 1.56 42.2 0 1 333.37 207.26 L 339.69 182.29 A 0.38 0.37 22.9 0 1 340.25 182.07 Q 342.46 183.44 344.50 186.25 Q 353.18 198.20 359.08 209.28 Q 360.63 212.18 361.34 214.94 Q 362.13 218.05 362.49 220.98 Q 362.67 222.48 361.70 221.32 Q 358.63 217.69 355.37 214.25 Q 355.14 214.01 354.94 213.97 Q 354.60 213.90 354.52 214.26 Q 354.48 214.46 354.60 214.71 Q 364.26 234.32 367.25 255.00 Q 368.49 263.58 367.74 273.52 Q 366.80 286.03 360.44 295.94 Q 355.05 304.33 346.72 313.23 Q 326.49 334.87 303.08 353.50 A 1.14 1.13 41.8 0 0 303.19 355.36 Q 308.54 358.70 314.75 358.76 Q 325.42 358.87 335.12 355.37 Q 342.46 352.72 352.49 345.61 Q 367.44 335.01 383.19 319.94 Q 399.10 304.70 413.51 288.39 A 1.27 1.26 58.2 0 0 413.78 287.22 Q 407.29 263.68 400.26 241.01 Q 400.25 241.00 397.98 233.33 Q 395.00 223.26 390.51 213.74 Q 385.37 202.86 380.51 191.19 A 3.42 3.42 40.6 0 1 380.35 189.12 L 385.20 168.72 Q 385.80 166.17 387.28 168.34 Z M 510.92 208.45 Q 509.04 209.83 510.64 211.52 Q 515.87 217.07 521.03 224.13 A 1.09 1.09 -27.5 0 0 522.25 224.51 L 540.60 218.38 A 0.57 0.56 -31.4 0 0 540.83 217.45 Q 533.33 209.90 523.27 206.58 Q 516.52 204.35 510.92 208.45 Z"/>
<path fill="rgb(0,0,0)" fill-opacity="1.000" d="M 50.30 171.47 Q 55.62 173.22 59.40 177.36 Q 63.91 182.30 67.08 188.21 Q 69.67 193.03 68.31 199.81 Q 66.94 206.69 60.54 203.36 Q 57.88 201.98 55.06 200.39 A 0.77 0.77 26.4 0 0 53.98 200.75 Q 50.81 207.82 45.16 213.41 Q 27.94 230.40 4.35 235.48 Q 0.75 236.25 3.99 234.51 Q 23.03 224.24 39.56 210.31 Q 44.21 206.40 49.45 199.40 A 0.39 0.34 -63.6 0 0 49.30 198.80 L 44.44 197.75 A 1.61 1.09 2.6 0 1 43.29 196.89 Q 41.00 189.56 44.77 182.95 A 0.98 0.97 47.2 0 0 44.80 182.05 Q 43.70 179.81 43.27 177.73 Q 42.75 175.21 43.61 173.33 Q 45.24 169.79 50.30 171.47 Z M 60.44 188.28 Q 58.38 186.61 56.31 184.94 Q 53.69 182.82 54.78 185.49 Q 55.00 186.04 55.03 186.57 Q 55.26 190.45 55.64 194.31 A 0.74 0.63 -88.4 0 0 56.16 194.96 L 63.53 196.24 Q 66.89 196.82 65.07 193.70 Q 63.24 190.56 60.44 188.28 Z M 50.30 184.68 Q 48.08 183.04 47.07 185.13 L 45.11 189.20 A 1.50 1.26 33.3 0 0 45.61 190.86 Q 48.61 193.22 51.75 193.69 A 0.71 0.69 16.7 0 0 52.48 193.31 Q 54.99 188.14 50.30 184.68 Z"/>
<path fill="rgb(0,0,0)" fill-opacity="1.000" d="M 452.25 177.99 Q 451.32 180.57 452.00 183.25 Q 453.14 189.73 455.05 196.03 Q 455.94 198.96 457.61 200.21 Q 459.68 201.77 462.52 202.00 Q 465.88 202.28 464.66 199.23 L 459.95 187.45 A 1.97 1.46 46.9 0 1 459.84 186.50 Q 460.41 183.41 461.44 180.44 Q 461.61 177.40 464.31 178.76 A 1.18 1.05 -85.8 0 1 464.87 179.49 Q 466.36 185.52 469.46 191.39 Q 470.24 192.87 470.25 194.54 Q 470.30 200.61 468.56 206.36 Q 467.64 209.41 465.67 210.76 Q 463.15 212.48 460.11 212.03 Q 457.51 211.63 454.93 209.48 Q 452.78 207.69 450.93 205.16 Q 450.27 204.26 449.88 205.31 Q 448.03 210.28 442.62 212.53 Q 437.84 214.52 434.40 212.13 Q 431.83 210.34 430.55 205.91 Q 428.22 197.82 430.87 189.41 Q 432.24 185.05 435.30 182.98 Q 437.02 181.81 436.12 183.69 Q 431.76 192.83 436.19 201.81 Q 437.68 204.85 441.50 203.75 Q 444.02 203.02 446.43 200.14 A 1.50 1.43 67.2 0 0 446.77 199.25 Q 447.03 192.32 447.20 185.39 Q 447.26 183.09 448.38 181.43 Q 449.78 179.35 451.57 177.55 Q 452.89 176.23 452.25 177.99 Z"/>
<path fill="rgb(0,0,0)" fill-opacity="1.000" d="M 82.23 212.99 Q 82.05 216.90 80.13 220.09 Q 78.71 222.46 74.87 224.83 Q 46.94 242.13 19.41 259.25 Q 17.74 260.28 18.43 258.45 L 21.14 251.32 A 2.96 2.93 -6.0 0 1 22.34 249.86 L 81.83 212.76 Q 82.26 212.49 82.23 212.99 Z"/>
<path fill="rgb(0,0,0)" fill-opacity="1.000" d="M 594.02 221.75 Q 595.97 221.55 596.81 223.32 Q 599.72 229.44 597.23 235.43 A 1.30 1.30 22.3 0 0 597.94 237.12 Q 600.01 237.97 599.71 240.03 Q 599.48 241.63 599.08 244.47 Q 598.96 245.35 598.32 244.79 L 594.94 241.78 A 0.78 0.72 36.0 0 0 593.79 241.92 Q 584.41 258.09 567.26 263.64 Q 565.27 264.29 563.16 264.43 Q 561.05 264.58 558.94 264.56 Q 557.76 264.66 558.11 264.07 Q 558.26 263.83 558.63 263.71 Q 567.42 260.80 575.13 255.66 Q 584.79 249.20 590.41 239.65 A 1.86 1.85 34.7 0 0 589.97 237.26 Q 587.01 234.91 586.46 231.71 Q 584.89 222.67 594.02 221.75 Z M 593.66 232.65 Q 595.95 226.45 590.74 227.75 A 0.72 0.70 -24.1 0 0 590.31 228.84 L 593.00 232.74 Q 593.41 233.33 593.66 232.65 Z"/>
<path fill="rgb(0,0,0)" fill-opacity="1.000" d="M 785.98 232.25 Q 794.57 238.25 799.06 248.19 Q 801.76 254.16 799.56 259.90 Q 798.72 262.06 797.53 262.85 Q 795.86 263.96 793.51 262.97 Q 790.79 261.82 787.45 259.62 A 1.56 1.55 27.7 0 0 785.15 260.33 Q 782.58 266.74 776.84 272.34 Q 759.56 289.20 735.50 294.50 Q 734.93 294.63 734.62 294.45 Q 734.12 294.17 734.75 293.83 Q 750.47 285.45 764.67 274.70 Q 773.93 267.69 780.95 258.42 A 0.80 0.73 22.9 0 0 780.41 257.24 L 775.54 256.34 A 1.00 0.79 82.5 0 1 774.89 255.71 Q 772.34 248.32 776.57 241.80 A 0.79 0.79 0.0 0 0 776.57 240.94 Q 774.68 238.05 774.51 234.57 Q 774.33 230.94 777.81 230.06 Q 779.85 229.55 782.19 230.26 Q 783.88 230.77 785.98 232.25 Z M 778.02 244.84 Q 777.32 246.13 776.73 247.55 A 1.91 1.91 29.4 0 0 777.37 249.83 Q 780.14 251.84 783.21 252.73 A 0.66 0.65 -70.1 0 0 783.99 252.36 Q 786.32 246.90 782.14 243.90 Q 779.54 242.04 778.02 244.84 Z M 791.41 246.57 Q 789.19 244.80 787.41 243.43 Q 786.16 242.47 786.30 244.11 L 787.00 252.56 A 1.36 1.19 -84.6 0 0 787.83 253.71 Q 792.04 255.05 795.51 255.00 Q 798.22 254.96 796.80 252.66 Q 794.64 249.17 791.41 246.57 Z"/>
<path fill="rgb(0,0,0)" fill-opacity="1.000" d="M 83.24 235.99 Q 74.45 254.95 74.06 256.31 Q 73.97 256.65 73.87 256.64 A 0.26 0.14 -75.0 0 1 73.80 256.33 Q 77.12 245.76 82.74 236.22 Q 82.87 236.00 83.04 235.84 Q 83.52 235.39 83.24 235.99 Z"/>
<path fill="rgb(0,0,0)" fill-opacity="1.000" d="M 312.91 243.90 Q 316.13 244.74 318.16 247.33 Q 319.70 249.29 319.30 250.98 Q 318.87 252.76 316.72 254.44 A 0.50 0.49 -29.7 0 1 315.95 254.23 Q 314.90 251.56 313.00 250.76 Q 311.21 250.02 309.24 251.66 Q 306.47 253.97 305.50 257.25 Q 302.86 266.21 302.29 277.35 Q 302.23 278.49 301.73 278.97 Q 301.12 279.56 300.22 279.39 A 0.66 0.57 -84.8 0 1 299.76 278.74 Q 299.95 268.59 293.51 260.94 A 1.33 1.18 -14.2 0 0 292.68 260.51 Q 286.26 259.70 285.00 253.71 Q 284.57 251.70 284.43 250.30 Q 284.11 247.03 287.04 247.80 Q 288.25 248.12 289.60 249.25 Q 297.04 255.49 300.81 264.94 Q 300.94 265.25 301.25 265.27 A 0.60 0.44 -84.0 0 0 301.74 264.73 Q 302.82 255.58 306.86 247.34 Q 307.77 245.47 309.38 244.40 Q 310.93 243.37 312.91 243.90 Z"/>
<path fill="rgb(0,0,0)" fill-opacity="1.000" d="M 27.21 275.31 Q 19.69 288.00 17.50 301.75 Q 16.94 305.27 18.76 307.85 Q 20.46 310.27 23.71 310.47 Q 29.34 310.82 31.56 304.81 Q 32.00 303.63 32.61 303.93 A 0.87 0.63 -76.9 0 1 32.95 304.75 Q 31.92 314.73 26.31 320.81 Q 22.15 325.33 16.19 322.56 Q 12.29 320.75 11.31 316.74 Q 10.31 312.66 11.15 308.53 Q 13.34 297.65 18.36 287.83 Q 21.09 282.47 21.94 281.02 Q 23.89 277.67 26.56 274.80 Q 26.99 274.33 27.24 274.54 A 0.71 0.43 -56.6 0 1 27.21 275.31 Z"/>
<path fill="rgb(0,0,0)" fill-opacity="1.000" d="M 602.56 339.06 Q 599.46 344.13 597.10 349.58 Q 594.94 354.56 595.78 359.70 Q 596.16 362.09 598.13 363.52 Q 600.68 365.37 602.00 362.10 Q 602.89 359.90 602.97 362.27 Q 603.16 367.53 599.33 371.09 Q 598.02 372.31 596.56 371.26 Q 593.30 368.91 592.60 365.70 Q 592.20 363.87 592.80 359.29 Q 594.28 347.99 601.75 339.15 Q 601.83 339.06 602.04 338.67 Q 602.21 338.35 602.48 338.51 A 0.42 0.35 -58.8 0 1 602.56 339.06 Z"/>
<path fill="rgb(0,0,0)" fill-opacity="1.000" d="M 411.71 339.35 Q 417.50 340.62 417.46 347.34 Q 417.45 349.41 416.03 351.38 Q 414.59 353.38 413.32 354.92 Q 412.19 356.29 410.42 356.27 Q 406.20 356.22 403.23 357.46 Q 401.31 358.25 400.53 359.88 Q 399.67 361.67 400.00 363.75 Q 400.60 367.50 403.00 378.25 Q 405.11 387.71 403.32 395.47 Q 403.24 395.80 403.05 395.95 Q 402.63 396.25 402.44 395.56 Q 401.50 389.59 399.77 383.79 Q 396.71 373.51 395.93 362.86 Q 395.67 359.34 396.85 356.85 Q 400.36 349.41 409.18 348.25 A 0.68 0.53 -5.1 0 0 409.77 347.69 Q 409.74 347.04 408.97 346.72 Q 404.98 345.11 402.85 348.44 Q 401.54 350.48 401.66 348.06 Q 401.90 343.20 404.83 340.77 Q 407.63 338.45 411.71 339.35 Z"/>
<path fill="rgb(0,0,0)" fill-opacity="1.000" d="M 562.31 345.44 Q 565.34 346.69 563.96 349.10 Q 563.37 350.13 561.59 351.43 Q 556.39 355.22 551.06 358.81 Q 547.27 361.75 543.92 365.16 Q 542.35 366.74 542.17 368.12 Q 541.87 370.39 544.25 371.50 Q 547.81 373.16 553.00 372.71 Q 566.42 371.52 576.77 363.05 Q 577.32 362.61 577.36 362.99 Q 577.38 363.18 577.06 363.56 Q 568.06 374.56 557.44 379.44 Q 551.49 382.17 544.84 380.26 Q 540.58 379.03 538.59 376.37 Q 536.93 374.14 536.72 371.22 Q 536.54 368.76 537.97 366.17 Q 540.29 361.96 544.11 358.87 Q 549.25 354.70 554.39 351.24 Q 555.00 350.83 554.26 350.78 Q 549.00 350.41 545.10 351.04 Q 542.39 351.48 540.62 353.37 Q 539.69 354.37 539.50 353.01 Q 538.96 349.12 541.15 346.79 Q 542.72 345.12 546.43 344.27 Q 554.84 342.35 562.31 345.44 Z"/>
<path fill="rgb(0,0,0)" fill-opacity="1.000" d="M 728.01 351.79 Q 732.51 355.03 736.20 359.31 Q 740.00 363.74 742.10 368.60 Q 747.33 380.73 743.09 394.07 Q 742.86 394.80 742.30 395.06 Q 741.80 395.29 741.90 394.70 Q 745.39 373.12 726.90 361.63 A 0.89 0.86 18.2 0 1 726.48 360.84 L 727.07 352.23 Q 727.14 351.17 728.01 351.79 Z"/>
<path fill="rgb(0,0,0)" fill-opacity="1.000" d="M 864.44 357.04 Q 863.65 361.01 861.15 364.05 Q 859.34 366.25 855.02 368.33 Q 824.17 383.15 793.33 398.24 Q 791.26 399.25 792.27 397.18 L 795.38 390.81 A 3.45 3.41 -0.2 0 1 796.98 389.22 L 863.87 356.60 Q 864.60 356.24 864.44 357.04 Z"/>
</svg>