<?xml version="1.0" encoding="UTF-8" standalone="no"?>
<!DOCTYPE svg PUBLIC "-//W3C//DTD SVG 1.1//EN" "http://www.w3.org/Graphics/SVG/1.1/DTD/svg11.dtd">
<svg xmlns="http://www.w3.org/2000/svg" version="1.1" viewBox="0 0 961 411">
<path fill="rgb(84,47,66)" fill-opacity="0.000" d="M 0.00 0.00 Q 480.50 0.00 961.00 0.00 Q 961.00 126.78 961.00 253.56 Q 960.53 237.48 959.75 227.25 Q 953.65 147.21 949.33 67.46 Q 949.25 65.99 949.93 67.30 L 954.38 75.93 Q 954.72 76.58 954.88 75.87 Q 955.54 72.96 955.81 70.65 Q 956.08 68.34 955.39 65.41 Q 949.12 38.83 940.91 12.78 Q 940.36 11.05 940.29 9.90 Q 940.14 7.57 939.26 9.72 L 929.56 33.40 A 3.02 2.92 42.2 0 0 929.73 35.98 Q 931.96 39.97 933.00 44.75 Q 940.05 155.02 947.69 265.25 Q 948.33 274.49 948.50 283.75 Q 950.06 316.34 928.51 340.28 Q 920.16 349.56 911.69 356.19 Q 882.99 378.65 849.01 394.85 A 1.45 1.02 -8.6 0 0 848.33 395.50 Q 847.88 396.57 848.95 397.03 Q 849.55 397.28 850.57 397.13 Q 875.75 393.29 899.94 382.94 Q 918.98 374.79 932.68 360.21 Q 937.81 354.74 941.71 347.94 Q 945.52 341.30 948.40 334.17 Q 958.01 310.41 959.81 284.81 Q 960.91 269.21 961.00 266.56 Q 961.00 338.78 961.00 411.00 Q 480.50 411.00 0.00 411.00 Q 0.00 205.50 0.00 0.00 Z M 879.93 39.71 Q 876.09 26.33 871.21 13.37 Q 870.71 12.04 870.09 13.32 Q 865.95 21.89 861.67 30.18 Q 861.65 30.23 860.74 31.76 Q 859.45 33.92 860.00 36.25 Q 860.85 39.89 860.86 40.00 Q 861.62 48.70 862.04 58.18 A 2.06 2.04 67.3 0 1 861.40 59.76 Q 836.34 83.34 813.54 107.44 Q 812.87 108.15 812.78 107.17 L 808.40 58.98 Q 808.22 56.95 809.22 58.70 L 814.82 68.45 Q 815.42 69.50 815.66 68.32 Q 816.25 65.49 816.22 62.40 Q 816.20 59.95 815.37 56.55 Q 810.05 34.74 801.35 13.00 Q 800.89 11.85 800.36 12.97 L 790.72 33.34 A 2.82 2.77 -43.4 0 0 790.64 35.60 Q 792.00 38.98 792.00 43.00 Q 793.93 63.74 795.46 84.51 Q 795.50 85.00 795.18 84.63 Q 791.83 80.69 789.31 78.44 Q 769.02 60.33 747.71 41.93 Q 747.18 41.48 747.21 42.17 L 748.48 69.25 A 1.28 1.26 -69.0 0 0 748.85 70.10 Q 754.38 75.76 756.94 79.31 Q 760.71 84.55 766.41 93.55 Q 772.67 103.44 775.69 107.92 Q 783.20 119.02 790.88 129.64 A 1.35 1.35 -41.3 0 1 790.77 131.35 L 743.24 181.99 Q 742.18 183.12 742.06 181.58 L 732.44 58.72 Q 732.38 58.02 732.73 58.63 L 738.64 69.01 Q 739.28 70.13 739.56 68.88 Q 740.69 63.98 739.51 58.55 Q 734.55 35.67 725.93 13.14 Q 725.60 12.27 725.19 13.11 L 715.17 33.69 A 2.48 2.42 52.3 0 0 714.98 35.31 Q 716.28 41.12 716.65 46.18 Q 716.91 49.79 716.91 49.80 Q 723.36 122.65 729.77 195.73 A 1.65 1.64 -26.4 0 1 729.35 196.97 L 686.96 243.34 A 0.52 0.52 -45.7 0 1 686.19 243.35 Q 654.52 209.90 625.15 175.82 A 1.48 1.47 23.0 0 1 624.79 174.94 L 617.72 59.11 Q 617.63 57.70 618.31 58.93 L 623.92 69.16 Q 624.31 69.86 624.52 69.10 Q 626.12 63.27 625.01 58.25 Q 619.98 35.28 611.75 13.24 Q 611.28 11.98 610.69 13.18 L 600.47 34.04 A 1.49 1.48 51.7 0 0 600.36 35.00 Q 600.78 36.93 601.44 38.81 Q 604.95 95.77 608.32 154.02 Q 608.39 155.21 607.68 154.26 Q 591.74 133.18 576.38 110.64 Q 575.41 109.21 575.32 108.26 A 0.98 0.95 9.1 0 1 576.68 107.31 L 586.15 111.29 A 0.85 0.82 -81.0 0 0 587.28 110.44 Q 587.03 106.63 585.09 103.88 Q 578.66 94.80 570.34 87.41 Q 557.63 76.12 543.42 66.78 Q 542.99 66.49 542.96 67.00 L 541.76 92.75 A 1.31 1.21 27.2 0 0 542.08 93.63 Q 557.41 111.17 565.94 126.56 Q 574.63 142.26 587.44 158.56 Q 601.42 176.37 608.50 184.50 Q 611.03 187.41 610.50 190.75 Q 614.70 257.58 618.52 324.43 Q 619.00 332.67 619.24 341.08 Q 619.73 357.69 619.75 357.75 Q 619.82 357.99 619.96 358.01 A 0.39 0.23 -75.3 0 0 620.26 357.71 Q 624.20 345.66 627.75 333.50 Q 628.77 330.59 628.75 327.50 Q 629.91 305.51 629.68 283.50 Q 629.59 275.39 629.06 263.52 Q 627.77 234.99 626.25 206.43 Q 626.16 204.84 627.22 206.03 Q 649.90 231.56 674.20 256.58 A 0.99 0.99 -47.3 0 1 674.25 257.91 Q 666.40 267.32 660.00 277.86 Q 654.24 287.34 651.50 295.91 Q 647.62 308.06 647.27 320.97 Q 647.09 327.65 647.46 329.50 Q 648.34 333.87 652.04 337.14 A 2.29 2.29 -67.3 0 1 652.80 338.99 Q 651.53 358.21 655.59 376.23 Q 656.27 379.25 658.75 385.50 Q 664.97 401.16 679.72 406.42 Q 684.93 408.28 688.94 407.29 Q 693.74 406.11 697.19 401.94 Q 704.56 393.00 706.85 381.70 Q 707.74 377.36 707.74 377.33 Q 709.89 368.11 712.50 360.50 Q 716.04 350.19 722.65 340.66 Q 728.26 332.55 737.94 327.94 Q 740.32 326.80 742.25 327.51 Q 743.89 328.11 744.94 330.30 Q 745.87 332.20 746.25 334.50 Q 748.17 345.99 753.90 356.64 Q 758.36 364.92 764.56 369.69 Q 773.87 376.84 786.49 375.45 Q 808.53 373.03 820.16 355.74 Q 823.81 350.33 825.07 343.95 Q 826.32 337.59 826.00 331.00 Q 826.46 310.87 826.18 290.75 Q 826.06 281.46 825.33 270.76 Q 821.72 217.19 817.36 164.19 Q 817.24 162.66 818.34 163.73 Q 845.85 190.31 870.93 218.03 A 3.21 3.20 -68.0 0 1 871.75 219.98 Q 874.22 261.50 876.84 302.99 Q 878.50 329.35 879.01 356.07 Q 879.07 359.28 880.09 356.24 Q 883.37 346.44 886.39 336.36 Q 887.77 331.74 888.07 326.95 Q 890.20 293.49 888.44 259.99 Q 887.86 249.00 887.24 237.82 Q 887.16 236.46 888.06 237.49 Q 902.57 254.32 916.12 272.65 Q 932.93 295.38 937.69 323.32 Q 938.11 325.80 938.71 323.36 Q 942.21 309.04 939.23 294.50 Q 936.95 283.37 932.12 273.09 Q 923.42 254.57 910.67 238.57 Q 899.12 224.08 886.47 210.34 A 2.43 2.41 22.5 0 1 885.83 208.81 Q 883.29 159.12 880.62 110.99 Q 879.18 85.01 877.15 60.13 Q 876.94 57.58 878.18 59.80 L 883.57 69.45 Q 884.03 70.28 884.20 69.35 Q 885.72 61.22 883.39 53.23 A 0.83 0.83 -30.3 0 1 883.61 52.40 Q 889.74 46.38 896.06 40.56 Q 905.21 31.21 910.54 19.27 Q 913.69 12.23 913.75 5.00 Q 913.76 3.29 912.64 4.59 Q 896.95 22.74 880.41 39.83 A 0.29 0.28 -30.6 0 1 879.93 39.71 Z M 11.44 150.31 Q 15.48 161.08 25.12 164.37 Q 30.39 166.16 34.97 165.02 Q 40.13 163.73 43.65 159.13 Q 47.81 153.68 49.94 147.94 Q 55.04 134.15 56.81 118.56 Q 58.45 104.12 66.21 86.27 Q 69.73 78.16 76.36 72.27 Q 78.13 70.70 78.64 73.01 Q 79.16 75.35 79.00 77.25 Q 76.73 86.48 74.73 95.77 Q 72.18 107.66 71.92 114.52 Q 71.54 124.66 73.65 134.55 Q 76.14 146.22 81.05 152.96 Q 89.66 164.76 106.18 165.55 A 0.81 0.81 89.2 0 1 106.95 166.30 Q 109.36 200.42 111.59 234.02 Q 111.98 239.96 113.07 253.97 Q 115.40 284.07 116.00 314.27 Q 116.06 317.30 117.16 314.47 Q 120.22 306.61 123.05 297.47 Q 123.07 297.42 124.05 294.55 Q 125.59 290.07 125.25 285.25 Q 126.99 256.83 125.29 228.45 Q 124.35 212.62 124.34 212.53 Q 123.06 188.07 121.47 163.22 A 0.79 0.77 -16.2 0 1 121.89 162.47 Q 133.50 156.17 140.48 145.01 Q 151.02 128.14 155.11 108.66 Q 155.29 107.82 155.60 107.43 Q 156.39 106.40 157.25 108.00 Q 161.21 126.42 172.94 141.06 Q 183.13 153.78 198.83 153.23 Q 205.78 152.99 211.13 149.83 Q 217.03 146.35 220.44 140.44 Q 230.62 122.78 228.64 101.26 Q 227.70 91.02 224.49 81.25 Q 218.24 62.21 211.83 43.22 Q 211.27 41.56 211.51 40.12 A 0.72 0.71 -75.6 0 1 212.45 39.56 Q 216.55 40.98 218.50 43.80 Q 219.48 45.21 219.75 43.51 Q 220.04 41.64 219.28 39.99 Q 214.38 29.32 208.16 19.38 Q 205.49 15.10 201.35 11.39 A 0.89 0.88 33.4 0 0 199.96 11.67 Q 196.12 19.89 194.24 29.18 Q 193.79 31.38 194.45 33.65 Q 206.78 75.98 221.81 117.44 Q 222.44 122.52 218.45 125.70 Q 204.20 137.04 187.91 128.51 Q 177.54 123.07 172.00 112.75 Q 167.19 103.77 165.75 94.25 Q 164.53 86.16 163.27 73.75 Q 161.79 59.22 159.22 44.85 Q 156.78 31.16 152.25 17.99 Q 151.36 15.42 150.23 17.89 Q 146.11 26.93 144.58 36.77 Q 144.22 39.05 144.99 41.23 Q 150.89 57.84 152.16 75.26 Q 153.06 87.71 152.65 95.24 Q 151.83 110.02 144.79 123.02 Q 140.49 130.97 135.17 135.24 Q 129.04 140.16 120.78 142.19 A 0.43 0.43 -8.9 0 1 120.24 141.80 L 114.18 57.38 Q 114.08 56.00 114.77 57.19 L 120.44 67.08 Q 121.14 68.29 121.33 66.92 Q 121.68 64.40 121.86 61.81 Q 122.03 59.36 121.49 56.74 Q 116.62 33.55 108.00 10.59 Q 107.78 10.01 107.49 10.57 L 96.79 31.87 A 1.29 1.29 -40.2 0 0 96.71 32.80 Q 98.01 37.07 98.50 44.25 Q 101.82 93.13 105.25 142.01 A 0.23 0.23 1.1 0 1 104.99 142.25 Q 90.84 140.53 83.52 130.08 Q 79.29 124.04 78.20 115.53 Q 77.21 107.79 78.69 99.69 Q 82.28 79.97 86.39 63.18 Q 87.58 58.35 88.00 54.22 Q 88.45 49.87 88.82 45.14 Q 89.02 42.49 86.56 43.48 Q 85.02 44.09 83.17 46.42 Q 79.56 50.97 76.27 55.74 Q 73.00 60.48 70.28 65.64 Q 58.28 88.42 53.26 113.70 Q 51.15 124.36 51.06 124.76 Q 49.83 130.26 48.45 135.74 Q 46.94 141.72 43.67 146.92 Q 39.93 152.86 32.81 153.05 Q 26.89 153.21 22.81 150.44 Q 15.62 145.54 13.14 136.28 Q 11.07 128.56 10.75 122.25 Q 9.74 102.37 13.65 81.27 Q 13.76 80.71 13.57 80.24 Q 12.82 78.37 12.18 81.04 Q 5.82 107.67 7.68 134.99 Q 8.12 141.49 11.44 150.31 Z M 542.69 57.06 Q 546.59 61.08 551.21 59.96 Q 554.46 59.16 557.03 55.43 Q 561.37 49.12 562.33 41.26 Q 562.45 40.21 561.93 40.12 A 0.84 0.53 -70.1 0 0 561.24 40.65 Q 559.76 43.95 557.81 45.56 Q 554.58 48.23 551.20 46.99 Q 548.33 45.93 547.28 42.64 Q 546.29 39.51 547.07 36.06 Q 549.85 23.65 556.19 12.61 Q 557.44 10.44 555.99 11.09 Q 555.59 11.27 555.28 11.70 Q 547.14 22.86 542.51 35.92 Q 540.10 42.74 540.02 50.00 Q 539.97 54.26 542.69 57.06 Z M 72.46 261.00 Q 74.18 255.20 72.00 260.96 Q 64.81 278.78 60.00 297.39 Q 55.91 313.20 54.75 329.50 Q 53.87 341.83 56.18 355.04 A 1.13 1.13 -17.0 0 1 55.52 356.28 Q 32.63 366.19 9.67 374.44 Q 7.89 375.08 9.79 375.06 Q 34.49 374.68 62.11 372.20 A 1.18 1.17 70.6 0 1 63.21 372.73 Q 67.24 378.94 73.07 383.59 Q 78.25 387.72 85.70 390.62 Q 104.01 397.73 123.50 394.75 Q 146.66 391.21 169.46 380.65 Q 211.19 361.34 240.25 325.75 Q 248.18 316.04 254.40 306.68 Q 258.81 300.05 261.38 293.19 Q 264.52 284.79 266.51 276.00 Q 268.81 265.86 268.00 255.50 Q 267.36 244.77 266.60 234.06 A 1.25 1.21 -28.4 0 1 266.88 233.18 Q 273.21 225.58 277.95 215.61 Q 278.30 214.88 278.59 215.63 Q 280.81 221.26 284.57 225.18 Q 291.86 232.78 302.49 231.39 Q 310.31 230.37 315.27 224.27 Q 319.17 219.48 321.19 214.19 Q 325.94 201.73 325.24 188.36 Q 325.03 184.29 324.26 177.63 Q 323.65 172.31 322.52 166.98 Q 322.18 165.37 321.55 166.87 L 312.93 187.53 A 1.36 1.17 49.9 0 0 312.92 188.47 L 316.84 199.76 A 1.48 1.47 -32.5 0 1 316.50 201.26 Q 314.97 202.82 312.81 203.41 Q 312.73 203.43 308.72 204.20 Q 303.48 205.20 298.25 204.61 Q 292.06 203.90 289.20 200.85 Q 285.17 196.54 288.61 189.35 Q 289.37 187.77 289.25 186.01 Q 288.85 180.07 284.99 182.17 Q 283.44 183.02 281.93 185.22 Q 276.63 192.94 273.13 201.66 Q 270.67 207.78 265.35 211.53 Q 264.94 211.82 264.90 211.31 Q 258.76 134.79 250.24 58.38 Q 250.01 56.39 251.03 58.10 L 256.84 67.84 Q 257.32 68.65 257.50 67.73 Q 258.76 61.42 257.06 55.23 Q 250.97 33.10 242.08 11.97 Q 241.69 11.06 241.29 11.96 L 231.85 33.14 A 2.11 2.08 -42.8 0 0 231.78 34.68 Q 233.04 38.21 233.28 40.75 Q 241.86 128.88 250.56 217.62 A 0.76 0.75 86.1 0 1 249.84 218.45 Q 247.41 218.55 244.83 218.51 Q 241.95 218.46 239.92 217.69 Q 231.94 214.67 230.90 206.06 Q 230.70 204.37 231.53 201.57 Q 232.47 198.41 232.36 195.11 Q 232.30 193.08 231.23 192.25 Q 229.75 191.12 227.50 192.50 Q 219.67 197.32 213.71 203.58 Q 208.01 209.57 207.96 209.61 Q 202.15 214.97 194.82 219.25 A 0.39 0.39 -25.2 0 1 194.26 219.05 Q 190.15 208.29 182.52 199.49 Q 175.27 191.13 164.68 189.18 Q 161.53 188.60 158.43 189.63 Q 144.17 194.32 138.10 208.65 Q 132.64 221.55 133.25 235.25 Q 133.56 242.32 137.69 247.34 Q 141.11 251.50 146.93 253.58 Q 152.30 255.50 158.25 255.26 Q 172.76 254.66 186.29 249.43 A 0.55 0.55 65.5 0 1 186.98 249.69 Q 189.92 255.45 191.37 262.31 Q 191.75 264.11 190.64 265.59 Q 183.24 275.41 173.75 284.00 Q 156.94 299.23 138.07 311.83 Q 107.45 332.28 73.09 348.26 A 0.92 0.92 65.5 0 1 71.86 347.80 Q 65.18 332.54 64.56 316.24 Q 64.27 308.35 65.40 296.26 Q 67.08 278.31 72.46 261.00 Z M 326.31 146.25 Q 323.58 142.28 322.27 137.49 Q 320.32 130.37 319.97 122.99 Q 319.03 102.95 322.71 83.24 Q 323.20 80.64 321.75 81.31 A 1.11 0.94 86.9 0 0 321.20 82.04 Q 316.52 102.35 316.13 123.19 Q 315.97 131.77 317.16 140.26 Q 318.32 148.53 322.06 155.44 Q 327.76 165.95 339.15 166.75 Q 343.45 167.05 346.64 165.51 Q 350.14 163.82 352.69 160.44 Q 356.53 155.34 358.52 150.12 Q 363.02 138.36 365.15 126.01 Q 367.60 111.82 367.91 110.58 Q 369.52 104.14 372.25 95.50 Q 375.68 84.65 383.00 75.99 Q 384.09 74.69 385.60 73.68 Q 387.40 72.48 387.77 74.61 Q 388.39 78.15 387.44 81.73 Q 384.30 93.67 382.16 105.83 Q 380.80 113.57 381.25 124.25 Q 381.65 133.88 384.37 142.29 Q 387.55 152.12 393.24 157.93 Q 401.06 165.93 413.00 166.71 Q 417.80 167.02 421.99 166.49 Q 426.72 165.90 430.69 163.94 Q 443.44 157.62 450.81 144.56 Q 460.65 127.13 464.10 110.22 Q 464.28 109.37 464.61 108.87 Q 465.77 107.15 466.44 109.81 Q 469.68 122.72 475.29 132.95 Q 478.94 139.60 484.27 144.98 Q 492.53 153.33 504.25 154.75 Q 518.02 156.41 527.18 144.95 Q 531.05 140.10 533.29 134.31 Q 541.34 113.46 535.99 91.71 Q 534.07 83.88 531.49 76.25 Q 525.96 59.89 520.49 43.48 Q 519.57 40.71 522.44 41.30 Q 524.89 41.80 527.33 44.92 Q 528.60 46.55 528.74 44.75 Q 528.76 44.35 529.05 43.85 Q 529.38 43.26 529.05 42.73 Q 528.68 42.14 528.66 42.10 Q 522.86 29.14 514.84 17.42 Q 513.11 14.90 510.03 12.56 A 0.66 0.66 -60.0 0 0 509.03 12.83 Q 504.94 22.49 503.23 31.20 Q 502.89 32.95 503.39 34.66 Q 515.62 76.41 529.72 115.41 Q 531.16 119.39 530.97 121.25 Q 530.64 124.41 527.81 126.81 Q 520.46 133.06 511.63 133.55 Q 504.62 133.93 497.33 130.36 Q 490.27 126.89 485.56 120.94 Q 475.73 108.50 474.07 91.27 Q 473.08 80.99 471.75 70.75 Q 469.74 44.51 461.43 19.55 Q 460.50 16.76 459.28 19.43 Q 455.08 28.60 453.57 38.76 Q 453.37 40.14 453.82 41.46 Q 462.63 67.41 461.84 94.50 Q 461.52 105.48 456.56 118.81 Q 452.06 130.91 443.19 137.69 Q 436.17 143.05 427.01 144.07 Q 420.41 144.81 413.50 143.76 Q 406.35 142.67 400.56 139.19 Q 393.50 134.93 390.04 127.41 Q 387.76 122.44 387.13 115.32 Q 386.55 108.82 387.50 102.75 Q 389.90 87.32 394.28 69.74 Q 396.29 61.67 396.81 58.16 Q 397.66 52.33 397.75 46.34 Q 397.80 43.41 395.39 45.08 Q 393.07 46.69 391.24 49.00 Q 381.27 61.60 374.74 76.28 Q 364.86 98.49 360.77 122.46 Q 359.68 128.82 358.06 135.06 Q 356.70 141.51 353.55 147.28 Q 350.36 153.09 344.75 154.25 Q 338.63 155.51 333.24 152.65 Q 329.25 150.53 326.31 146.25 Z M 405.94 19.69 Q 405.43 23.12 405.65 26.57 A 0.96 0.93 14.3 0 0 406.11 27.32 Q 424.55 38.70 420.75 60.75 Q 420.53 62.04 421.19 60.94 Q 422.71 58.41 423.22 55.49 Q 426.54 36.49 413.31 22.94 Q 409.70 19.24 406.73 17.33 A 0.39 0.38 24.4 0 0 406.15 17.54 Q 405.84 18.57 405.94 19.69 Z M 15.81 40.81 Q 18.74 30.73 24.27 20.76 Q 24.52 20.31 24.38 20.12 A 0.61 0.33 -39.9 0 0 23.69 20.26 Q 21.68 22.01 20.29 24.30 Q 14.01 34.68 9.97 46.11 Q 7.16 54.03 8.00 60.50 Q 8.61 65.21 12.06 67.44 Q 16.50 70.30 20.53 68.43 Q 23.42 67.09 25.83 62.93 Q 28.68 57.99 29.75 52.25 Q 30.66 50.70 30.20 49.66 Q 29.66 48.44 29.08 49.64 Q 28.07 51.73 26.71 53.36 Q 25.26 55.09 23.14 55.72 Q 18.07 57.22 15.85 53.22 Q 14.56 50.91 14.77 47.09 Q 14.95 43.77 15.81 40.81 Z M 662.87 40.97 Q 658.94 31.61 651.10 25.17 Q 650.16 24.40 648.55 23.85 A 1.39 1.39 13.3 0 0 646.72 24.98 Q 646.17 29.12 648.17 33.01 Q 649.83 36.23 653.56 36.50 Q 655.45 36.64 656.56 38.19 Q 660.95 44.29 661.67 51.75 Q 661.72 52.24 661.72 53.77 Q 661.73 57.85 664.14 54.60 A 1.59 1.54 64.8 0 0 664.45 53.69 Q 664.74 42.57 668.38 32.09 Q 669.23 29.64 671.69 27.69 Q 674.62 25.37 676.68 28.32 Q 677.50 29.50 678.44 30.88 A 0.48 0.48 50.0 0 0 679.17 30.95 Q 683.44 26.76 680.11 23.25 Q 678.64 21.71 676.91 20.78 Q 674.82 19.65 672.72 20.27 Q 670.56 20.92 668.93 23.95 Q 664.80 31.65 664.02 40.50 Q 663.96 41.20 663.55 41.38 A 0.64 0.46 67.0 0 1 662.87 40.97 Z M 335.44 93.81 Q 338.26 97.28 341.19 93.94 Q 345.31 89.23 345.71 82.61 Q 345.78 81.54 345.37 80.97 Q 344.67 80.00 343.37 80.67 A 1.22 1.03 85.2 0 0 342.83 81.43 Q 342.13 84.60 341.69 85.19 Q 339.20 88.45 337.65 85.93 Q 336.94 84.77 337.08 82.92 Q 337.33 79.42 338.31 77.31 Q 342.49 68.39 345.11 58.94 Q 346.58 53.64 345.89 49.94 Q 344.73 43.72 339.90 38.77 A 2.75 2.73 -63.1 0 1 339.15 36.45 Q 339.89 31.38 338.04 25.99 Q 335.72 19.21 329.31 22.06 Q 324.48 24.21 323.82 29.20 Q 323.43 32.11 324.75 34.61 Q 326.10 37.17 328.70 38.82 Q 330.60 40.03 332.38 41.17 A 1.45 1.44 -63.9 0 1 332.96 42.88 Q 328.23 56.15 318.31 66.06 Q 306.31 78.06 296.28 85.06 A 0.27 0.22 -44.8 0 0 296.24 85.48 Q 296.44 85.60 296.65 85.46 Q 296.94 85.26 297.01 85.23 Q 302.55 82.93 307.81 80.06 Q 314.97 76.89 320.30 71.54 Q 324.41 67.41 329.43 59.78 Q 333.95 52.90 337.22 44.97 A 0.44 0.43 36.2 0 1 337.96 44.86 Q 339.70 47.00 340.60 49.64 Q 341.36 51.90 341.30 54.95 Q 341.18 61.19 338.85 67.04 Q 336.53 72.87 334.21 78.69 Q 331.32 85.92 334.63 92.91 Q 334.91 93.49 335.44 93.81 Z M 272.00 34.47 Q 270.13 32.95 269.97 35.37 L 269.52 42.22 A 1.46 1.45 -72.3 0 0 270.21 43.56 Q 280.81 50.11 284.26 61.37 Q 286.61 69.05 284.63 76.83 Q 284.51 77.30 284.79 77.42 A 0.61 0.41 -63.6 0 0 285.39 77.08 Q 287.04 74.14 287.49 70.75 Q 290.29 49.31 272.00 34.47 Z M 179.95 58.37 Q 182.00 60.02 183.94 61.81 Q 189.42 64.33 191.50 59.50 Q 193.45 54.98 192.00 48.75 Q 190.29 45.34 189.20 41.68 A 1.36 1.06 -88.0 0 0 188.64 40.91 Q 187.19 40.10 186.94 41.94 Q 186.24 43.40 186.06 44.96 Q 185.90 46.26 186.58 47.93 Q 187.78 50.90 189.00 53.98 A 1.45 1.44 77.7 0 1 187.73 55.96 Q 186.29 56.02 185.00 55.18 Q 184.00 54.53 183.34 53.08 Q 180.59 47.01 180.91 40.30 Q 180.93 39.80 180.53 40.11 Q 178.23 41.89 177.75 44.25 Q 177.32 46.34 177.47 50.59 Q 177.48 50.63 177.59 51.91 Q 177.93 55.70 173.68 57.01 Q 171.60 57.65 170.56 55.72 Q 167.63 50.24 170.47 44.26 A 0.42 0.36 -73.2 0 0 170.21 43.68 Q 169.39 43.59 168.81 44.56 Q 164.60 51.66 167.09 59.07 Q 167.84 61.33 169.15 62.43 Q 170.96 63.95 173.25 63.50 Q 177.20 62.72 179.35 58.50 A 0.40 0.40 32.7 0 1 179.95 58.37 Z M 641.02 83.10 Q 639.07 82.28 640.89 80.91 Q 647.76 75.72 655.44 72.69 Q 673.89 64.25 692.57 56.33 Q 695.46 55.11 696.53 54.04 Q 698.22 52.33 698.67 49.78 Q 698.85 48.76 697.88 49.12 Q 669.36 59.53 642.81 73.81 Q 636.92 76.99 637.38 83.20 Q 637.42 83.70 637.27 85.26 Q 637.15 86.60 638.19 87.31 Q 641.51 89.58 645.51 90.58 A 0.85 0.75 -85.4 0 0 646.43 89.69 L 646.28 85.89 A 0.92 0.86 -80.8 0 0 645.74 85.08 L 641.02 83.10 Z M 420.86 91.80 Q 421.30 90.75 421.96 91.68 Q 424.16 94.81 426.98 96.75 Q 430.20 98.96 433.57 98.43 Q 438.76 97.61 439.98 91.50 Q 440.95 86.60 441.14 81.63 Q 441.22 79.70 440.21 77.74 Q 437.30 72.04 435.80 65.79 A 1.02 0.91 -87.5 0 0 435.24 65.10 Q 433.86 64.53 433.05 65.26 Q 432.57 65.70 432.25 67.30 Q 431.81 69.56 430.77 72.05 A 2.49 2.48 43.1 0 0 430.84 74.12 Q 433.79 79.99 435.67 86.01 Q 436.49 88.61 433.76 88.50 Q 430.52 88.37 428.35 86.52 Q 426.73 85.14 425.77 81.80 Q 423.95 75.48 422.92 68.97 Q 422.53 66.48 423.10 64.37 Q 423.48 62.97 422.57 64.06 L 418.54 68.84 A 1.62 1.10 74.6 0 0 418.23 69.75 Q 417.91 76.71 417.78 83.67 Q 417.74 86.09 416.57 87.45 Q 414.94 89.35 412.57 90.08 Q 409.99 90.87 408.22 89.33 Q 406.52 87.85 405.75 85.00 Q 403.77 77.65 407.19 69.50 Q 407.71 68.26 406.64 69.08 Q 404.03 71.11 402.93 73.62 Q 399.65 81.10 400.60 89.27 Q 401.02 92.92 403.04 95.97 Q 405.83 100.17 410.10 99.99 Q 413.32 99.86 416.48 97.45 Q 419.44 95.20 420.86 91.80 Z M 187.26 95.66 Q 194.75 106.04 192.39 119.33 Q 192.07 121.12 192.97 120.18 Q 193.18 119.96 193.31 119.62 Q 197.25 108.98 194.25 99.00 Q 190.16 85.38 178.25 76.97 Q 177.58 76.49 177.51 77.32 L 176.88 85.66 A 1.24 1.22 -71.1 0 0 177.42 86.79 Q 180.35 88.78 182.74 90.82 Q 185.40 93.09 187.26 95.66 Z M 675.49 138.46 Q 677.35 140.86 679.55 142.95 Q 683.73 146.93 689.21 144.88 Q 692.45 143.67 693.25 140.75 Q 695.03 134.25 695.00 127.99 Q 695.00 126.27 694.18 124.75 Q 691.02 118.92 689.67 112.93 A 0.84 0.65 84.9 0 0 689.08 112.30 L 687.32 112.06 A 0.64 0.60 -78.1 0 0 686.65 112.53 L 684.60 120.01 A 1.63 0.95 53.2 0 0 684.71 120.95 L 689.28 132.37 Q 690.68 135.86 686.82 135.51 Q 681.97 135.06 680.25 130.75 Q 677.88 124.81 676.69 114.73 Q 676.48 112.96 677.00 111.23 Q 677.48 109.66 676.46 110.93 L 672.29 116.10 A 1.71 1.31 72.1 0 0 671.97 117.00 Q 671.31 127.53 671.75 129.75 Q 672.39 132.98 669.44 135.44 Q 666.43 137.94 663.68 137.20 Q 661.41 136.60 660.17 133.47 Q 656.89 125.20 661.07 116.80 Q 661.67 115.58 660.49 116.25 Q 658.30 117.47 657.09 120.07 Q 652.60 129.70 655.48 140.05 Q 656.82 144.85 660.76 146.46 Q 664.23 147.88 668.08 145.88 Q 672.67 143.51 674.98 138.52 A 0.30 0.30 -51.4 0 1 675.49 138.46 Z M 899.31 117.19 Q 895.10 113.32 892.49 111.80 A 0.32 0.32 -73.4 0 0 892.01 112.06 L 891.22 123.85 A 1.40 1.32 18.5 0 0 891.88 125.08 Q 916.05 139.94 911.65 169.19 Q 911.32 171.37 912.49 169.51 Q 913.61 167.71 914.01 166.00 Q 920.85 136.94 899.31 117.19 Z M 263.10 159.44 Q 283.23 147.30 302.85 134.79 Q 308.25 131.35 308.65 125.37 Q 308.72 124.33 307.84 124.88 L 267.44 150.42 A 5.57 4.52 -87.8 0 0 265.60 152.52 L 262.44 158.82 Q 261.71 160.28 263.10 159.44 Z M 546.97 157.49 Q 543.55 161.21 543.19 162.69 Q 542.62 165.03 544.28 163.29 Q 546.31 161.17 548.76 159.68 Q 551.34 158.12 553.47 158.99 Q 555.44 159.80 556.14 161.90 Q 556.69 163.55 556.05 165.58 Q 555.22 168.22 553.44 170.19 Q 545.75 178.67 535.40 184.95 Q 534.26 185.64 535.45 185.74 Q 535.73 185.76 536.02 185.66 Q 549.21 181.28 557.34 170.31 Q 559.79 166.99 560.78 165.33 Q 562.28 162.82 563.25 159.75 Q 564.58 155.55 563.10 151.86 Q 562.20 149.63 560.60 148.83 Q 558.60 147.84 556.20 149.21 Q 552.27 151.46 549.31 154.82 Q 547.05 157.39 546.97 157.49 Z M 715.49 169.36 Q 719.71 165.27 720.37 159.47 Q 720.45 158.75 719.83 159.13 L 660.44 196.10 A 2.92 2.91 86.7 0 0 659.32 197.36 Q 657.28 201.75 656.64 205.70 Q 656.56 206.19 656.99 205.92 L 714.29 170.30 Q 714.94 169.90 715.49 169.36 Z M 526.95 302.32 Q 502.44 309.17 479.51 320.20 Q 469.25 325.13 462.31 334.56 Q 458.92 339.17 457.50 344.25 Q 457.33 347.65 457.07 351.05 Q 456.99 352.19 456.43 352.76 Q 455.64 353.56 454.56 353.50 Q 453.57 353.45 452.36 352.30 Q 446.13 346.41 440.94 339.56 Q 439.31 338.31 437.69 335.31 Q 431.91 324.66 429.88 314.67 Q 427.75 304.18 427.07 293.52 Q 425.95 276.04 425.94 276.01 Q 422.17 241.94 408.95 210.17 Q 400.96 190.99 389.94 172.06 Q 388.33 169.31 386.15 167.56 A 0.34 0.34 -63.5 0 0 385.61 167.74 L 380.35 189.76 A 1.77 1.42 46.4 0 0 380.43 190.72 Q 385.90 204.46 389.94 212.56 Q 394.20 221.11 397.02 230.24 Q 405.75 258.51 413.84 287.32 A 0.92 0.92 -32.1 0 1 413.64 288.19 Q 391.57 313.21 366.81 334.81 Q 359.19 341.46 349.96 347.47 Q 339.86 354.05 332.15 356.37 Q 322.09 359.39 311.50 358.50 Q 306.53 358.08 302.62 354.59 A 0.42 0.42 47.0 0 1 302.64 353.94 Q 322.43 338.06 340.33 320.08 Q 349.93 310.44 358.03 299.52 Q 366.77 287.74 367.72 273.01 Q 368.39 262.49 367.00 253.50 Q 363.93 233.67 354.73 214.61 Q 354.28 213.69 354.97 214.29 Q 358.57 217.45 361.57 221.20 Q 362.66 222.55 362.48 220.83 Q 361.88 214.85 359.02 209.40 Q 352.22 196.47 342.43 183.48 Q 340.13 180.42 339.21 184.11 L 333.44 207.03 A 2.65 2.58 42.0 0 0 333.55 208.65 Q 344.99 237.69 356.35 266.71 Q 356.38 266.78 357.08 268.38 Q 358.45 271.52 357.73 274.58 Q 357.20 276.82 354.27 280.27 Q 342.71 293.88 331.69 303.44 Q 315.41 317.56 298.34 330.00 Q 297.64 330.51 297.78 329.66 Q 301.22 308.44 311.44 290.69 Q 311.64 290.34 313.44 285.43 Q 313.51 285.23 313.48 285.06 Q 313.41 284.48 313.01 284.99 Q 305.76 294.13 301.11 304.83 Q 295.10 318.65 292.15 333.63 A 2.34 2.33 -12.1 0 1 291.20 335.09 Q 257.48 358.63 222.74 378.83 Q 214.50 383.62 205.42 388.86 Q 191.31 397.01 176.92 404.69 Q 174.27 406.11 177.22 405.53 Q 208.18 399.45 238.74 390.98 Q 253.89 386.78 258.94 384.44 Q 264.71 381.75 274.06 375.31 Q 282.84 369.27 291.30 362.82 A 0.29 0.28 -25.1 0 1 291.75 362.98 Q 293.21 369.17 296.42 374.62 Q 300.96 382.33 308.73 384.33 Q 314.19 385.73 322.75 384.00 Q 329.82 382.57 336.25 379.50 Q 349.57 373.14 361.53 364.10 Q 367.90 359.29 376.94 351.35 Q 393.17 337.10 407.04 320.49 Q 408.98 318.16 409.90 315.37 Q 412.77 306.60 414.41 297.50 Q 414.52 296.91 414.80 296.59 Q 415.40 295.91 415.93 296.52 Q 416.24 296.87 416.28 297.58 Q 418.02 326.87 428.56 350.19 Q 436.60 367.95 449.69 378.81 Q 462.30 389.28 479.00 392.00 Q 492.50 394.20 504.00 394.73 A 0.53 0.53 -86.0 0 0 504.55 394.25 Q 505.76 382.12 505.57 369.93 A 0.69 0.69 8.3 0 0 505.09 369.29 Q 481.10 361.87 480.75 361.75 Q 473.08 359.19 466.37 354.75 Q 464.28 353.37 463.62 352.26 Q 462.26 349.99 464.81 348.06 Q 471.28 343.17 485.44 336.94 Q 506.23 327.78 536.68 318.90 Q 568.26 309.69 600.55 301.93 A 1.79 1.70 4.9 0 0 601.73 300.99 L 610.99 281.02 A 0.33 0.32 12.2 0 0 610.69 280.56 L 461.20 280.50 Q 459.90 280.50 460.80 279.57 Q 464.63 275.59 469.07 272.10 Q 472.74 269.22 478.32 265.93 Q 498.35 254.11 520.27 246.17 A 0.66 0.64 -26.7 0 1 521.03 246.41 Q 525.01 252.24 526.00 259.25 Q 527.62 262.54 528.81 259.94 Q 529.18 259.14 529.34 257.88 Q 530.19 251.10 528.36 243.96 A 1.26 1.22 75.7 0 1 529.23 242.44 L 556.61 235.50 A 1.11 1.08 1.3 0 0 557.40 234.76 L 563.57 215.03 A 1.75 1.70 -59.4 0 0 563.15 213.28 Q 556.61 206.84 549.13 200.85 Q 540.50 193.93 530.58 189.18 Q 525.02 186.52 522.01 186.41 Q 516.95 186.23 513.19 190.44 Q 507.81 196.46 504.40 204.67 Q 499.72 215.98 506.88 225.64 Q 508.22 227.46 509.22 229.48 A 0.49 0.49 -25.3 0 1 508.98 230.14 Q 480.72 242.74 454.81 261.06 Q 444.27 268.52 436.22 277.89 Q 434.82 279.51 434.37 281.71 Q 432.19 292.19 430.07 302.66 A 0.23 0.23 6.0 0 0 430.30 302.94 L 526.94 302.19 Q 527.44 302.19 526.95 302.32 Z M 46.31 212.06 Q 51.34 207.26 53.88 200.79 A 0.53 0.51 -69.2 0 1 54.54 200.48 Q 57.88 201.65 60.75 203.75 Q 65.79 206.28 67.81 201.56 Q 69.82 196.88 68.57 192.28 Q 67.73 189.17 64.74 184.23 Q 60.56 177.33 53.67 173.08 Q 50.36 171.05 47.87 170.93 Q 43.13 170.69 43.06 176.69 Q 43.03 179.37 44.93 181.85 A 0.72 0.69 42.7 0 1 44.98 182.66 Q 40.70 189.35 43.39 196.98 A 0.94 0.83 -2.0 0 0 44.05 197.52 L 49.20 198.68 A 0.36 0.35 -66.2 0 1 49.40 199.23 Q 45.29 205.28 40.31 209.56 Q 23.39 224.14 3.69 234.69 Q 1.05 236.10 3.98 235.50 Q 25.81 231.06 42.28 216.27 Q 42.37 216.20 43.91 214.95 Q 45.38 213.76 46.31 212.06 Z M 447.97 208.70 Q 449.34 207.05 449.85 205.47 Q 450.33 203.98 451.18 205.30 Q 452.85 207.89 455.21 209.71 Q 457.81 211.72 460.55 212.01 Q 463.95 212.38 466.37 210.16 Q 468.13 208.56 468.93 205.15 Q 470.23 199.63 470.25 193.75 Q 470.25 192.84 469.82 192.05 Q 466.43 185.87 464.80 179.29 A 1.01 0.86 -89.6 0 0 464.23 178.61 Q 463.25 178.24 462.26 178.61 A 1.03 0.90 88.8 0 0 461.68 179.30 L 459.91 186.05 A 2.82 1.97 49.7 0 0 460.06 187.63 L 464.61 199.31 Q 465.73 202.19 462.52 202.00 Q 457.75 201.72 455.56 197.69 Q 454.53 195.79 452.31 185.19 Q 451.47 181.14 452.09 177.80 Q 452.18 177.31 451.80 177.61 Q 450.03 179.04 448.72 180.85 Q 447.44 182.63 447.26 185.39 Q 446.82 192.19 446.99 199.00 A 1.43 1.37 64.5 0 1 446.69 199.90 Q 444.04 203.14 439.94 204.19 Q 437.70 204.75 436.44 202.31 Q 431.53 192.83 436.34 183.33 Q 436.83 182.35 435.92 182.48 Q 435.59 182.53 435.29 182.82 Q 430.85 187.07 429.94 194.19 Q 429.15 200.30 430.36 205.36 Q 431.24 209.07 433.15 211.07 Q 435.70 213.73 439.59 213.43 Q 441.98 213.25 444.21 211.92 Q 446.35 210.66 447.97 208.70 Z M 21.31 250.97 L 18.53 258.43 Q 17.89 260.16 19.48 259.17 Q 46.31 242.52 72.95 226.09 Q 77.86 223.06 79.35 221.08 Q 81.77 217.87 82.36 213.14 Q 82.47 212.21 81.67 212.71 L 22.40 249.72 A 2.88 2.10 -12.7 0 0 21.31 250.97 Z M 597.22 236.21 Q 598.89 230.83 597.72 225.31 Q 596.82 221.11 592.69 221.93 Q 584.88 223.49 586.25 231.50 Q 586.86 235.08 590.61 238.18 A 0.62 0.60 34.9 0 1 590.76 238.94 Q 587.82 244.34 583.40 248.65 Q 572.72 259.08 558.50 263.74 Q 557.99 263.91 558.03 264.17 A 0.67 0.39 0.1 0 0 558.64 264.52 Q 566.80 264.96 574.50 260.75 Q 586.64 254.11 593.75 242.07 A 0.94 0.83 35.4 0 1 595.08 241.93 L 598.75 244.94 Q 599.16 245.27 599.20 244.69 L 599.62 239.06 A 1.38 0.91 -70.3 0 0 599.40 238.16 Q 598.67 237.24 597.55 236.83 A 0.52 0.49 18.7 0 1 597.22 236.21 Z M 82.61 236.14 Q 77.35 245.37 73.79 255.38 Q 73.47 256.29 73.78 256.33 A 0.83 0.41 -69.9 0 0 74.37 255.77 Q 78.68 245.72 83.31 235.81 Q 83.41 234.74 82.61 236.14 Z M 301.49 265.13 Q 301.28 266.43 300.82 265.20 Q 297.17 255.45 288.93 248.60 Q 287.68 247.56 286.06 247.48 Q 284.44 247.40 284.44 249.50 Q 284.46 252.95 285.86 256.10 Q 287.55 259.88 291.81 260.26 Q 293.43 260.40 294.37 261.72 Q 299.75 269.26 299.75 279.11 A 0.44 0.44 -4.5 0 0 300.26 279.54 Q 301.21 279.38 301.77 278.87 Q 302.24 278.44 302.29 277.46 Q 302.87 266.65 305.50 257.25 Q 306.73 252.85 310.81 250.50 A 1.48 1.25 -51.6 0 1 311.74 250.31 Q 314.20 250.75 315.86 254.01 A 0.80 0.79 -35.2 0 0 317.12 254.22 Q 320.92 250.59 318.15 247.59 Q 309.98 238.74 305.67 249.86 Q 302.74 257.42 301.49 265.13 Z M 24.39 322.31 Q 28.87 318.37 30.40 314.56 Q 32.25 309.93 32.83 304.98 Q 33.04 303.23 32.07 303.97 Q 31.78 304.19 31.60 304.66 Q 29.35 310.72 23.71 310.44 Q 20.47 310.28 18.76 307.84 Q 16.93 305.25 17.50 301.75 Q 19.66 288.34 26.90 275.67 Q 28.02 273.72 26.35 274.86 Q 26.07 275.05 25.86 275.34 Q 15.97 288.93 11.93 305.07 Q 10.15 312.16 10.92 316.03 Q 12.38 323.38 21.20 323.49 Q 23.02 323.51 24.39 322.31 Z M 599.60 364.27 Q 596.18 362.95 595.75 359.00 Q 595.25 354.43 596.78 350.51 Q 599.17 344.43 602.69 338.94 Q 603.00 338.45 602.49 338.45 Q 602.19 338.44 602.04 338.70 Q 601.79 339.11 601.78 339.12 Q 593.23 349.20 592.28 362.48 Q 591.84 368.49 596.42 371.20 Q 598.64 372.52 600.10 370.38 Q 602.78 366.42 602.99 361.96 Q 603.00 361.78 603.08 361.55 Q 603.27 360.99 602.82 361.12 A 0.78 0.54 -81.7 0 0 602.39 361.58 Q 601.80 363.17 600.48 364.15 A 0.91 0.89 -52.3 0 1 599.60 364.27 Z M 409.54 347.37 Q 410.43 348.11 409.29 348.30 Q 400.20 349.81 396.88 356.84 Q 395.65 359.44 395.96 363.36 Q 396.87 375.07 400.32 386.35 Q 401.70 390.85 402.50 395.52 Q 402.85 397.52 403.35 395.55 Q 404.82 389.82 403.85 383.33 Q 402.78 376.22 401.02 369.24 Q 400.19 365.92 400.05 362.50 Q 399.91 359.10 402.86 357.66 Q 405.98 356.14 410.88 356.29 A 3.37 2.75 -67.1 0 0 413.40 354.96 L 416.74 350.54 A 3.76 2.93 -31.5 0 0 417.49 348.54 Q 417.55 346.08 416.85 343.92 Q 416.10 341.64 414.20 340.32 Q 410.78 337.95 406.93 339.51 Q 404.33 340.56 402.95 343.00 Q 401.61 345.39 401.50 348.36 Q 401.41 350.55 402.62 348.72 Q 405.64 344.16 409.54 347.37 Z M 554.54 351.11 Q 548.48 355.60 547.94 355.94 Q 542.09 359.53 538.60 365.18 Q 536.30 368.92 536.80 372.39 Q 537.48 377.04 541.81 379.19 Q 547.19 381.86 553.19 380.67 Q 557.73 379.76 563.15 376.02 Q 569.44 371.67 576.19 364.69 Q 578.18 362.63 576.19 363.44 Q 570.09 368.44 562.56 370.81 Q 554.22 373.45 546.95 372.22 Q 544.20 371.75 542.96 370.41 Q 540.81 368.08 544.05 365.05 Q 552.01 357.61 561.19 351.69 Q 564.00 349.87 563.97 347.30 A 1.04 0.93 18.7 0 0 563.53 346.52 Q 559.98 344.04 554.50 343.75 Q 549.61 343.49 545.77 344.44 Q 542.29 345.30 540.90 347.12 Q 539.20 349.35 539.59 353.11 Q 539.70 354.18 540.46 353.42 Q 542.25 351.61 545.06 350.81 Q 547.40 350.15 554.45 350.77 Q 554.94 350.81 554.54 351.11 Z M 727.70 351.76 Q 727.08 351.32 727.04 352.07 L 726.57 360.93 A 0.89 0.84 17.4 0 0 727.00 361.70 Q 745.36 372.74 741.71 394.75 Q 741.50 395.99 742.32 395.04 Q 743.18 394.03 743.58 392.57 Q 747.58 377.93 739.99 364.92 Q 735.54 357.28 727.70 351.76 Z M 795.60 390.36 L 791.98 397.89 Q 791.42 399.06 792.59 398.49 Q 822.65 383.96 853.08 369.30 Q 858.63 366.62 860.34 364.85 Q 863.23 361.84 864.42 356.98 Q 864.60 356.24 863.92 356.57 L 796.51 389.47 A 2.02 1.88 -1.5 0 0 795.60 390.36 Z"/>
<path fill="rgb(255,255,255)" fill-opacity="1.000" d="M 913.75 5.00 Q 913.69 12.23 910.54 19.27 Q 905.21 31.21 896.06 40.56 Q 889.74 46.38 883.61 52.40 A 0.83 0.83 -30.3 0 0 883.39 53.23 Q 885.72 61.22 884.20 69.35 Q 884.03 70.28 883.57 69.45 L 878.18 59.80 Q 876.94 57.58 877.15 60.13 Q 879.18 85.01 880.62 110.99 Q 883.29 159.12 885.83 208.81 A 2.43 2.41 22.5 0 0 886.47 210.34 Q 899.12 224.08 910.67 238.57 Q 923.42 254.57 932.12 273.09 Q 936.95 283.37 939.23 294.50 Q 942.21 309.04 938.71 323.36 Q 938.11 325.80 937.69 323.32 Q 932.93 295.38 916.12 272.65 Q 902.57 254.32 888.06 237.49 Q 887.16 236.46 887.24 237.82 Q 887.86 249.00 888.44 259.99 Q 890.20 293.49 888.07 326.95 Q 887.77 331.74 886.39 336.36 Q 883.37 346.44 880.09 356.24 Q 879.07 359.28 879.01 356.07 Q 878.50 329.35 876.84 302.99 Q 874.22 261.50 871.75 219.98 A 3.21 3.20 -68.0 0 0 870.93 218.03 Q 845.85 190.31 818.34 163.73 Q 817.24 162.66 817.36 164.19 Q 821.72 217.19 825.33 270.76 Q 826.06 281.46 826.18 290.75 Q 826.46 310.87 826.00 331.00 Q 826.32 337.59 825.07 343.95 Q 823.81 350.33 820.16 355.74 Q 808.53 373.03 786.49 375.45 Q 773.87 376.84 764.56 369.69 Q 758.36 364.92 753.90 356.64 Q 748.17 345.99 746.25 334.50 Q 745.87 332.20 744.94 330.30 Q 743.89 328.11 742.25 327.51 Q 740.32 326.80 737.94 327.94 Q 728.26 332.55 722.65 340.66 Q 716.04 350.19 712.50 360.50 Q 709.89 368.11 707.74 377.33 Q 707.74 377.36 706.85 381.70 Q 704.56 393.00 697.19 401.94 Q 693.74 406.11 688.94 407.29 Q 684.93 408.28 679.72 406.42 Q 664.97 401.16 658.75 385.50 Q 656.27 379.25 655.59 376.23 Q 651.53 358.21 652.80 338.99 A 2.29 2.29 -67.3 0 0 652.04 337.14 Q 648.34 333.87 647.46 329.50 Q 647.09 327.65 647.27 320.97 Q 647.62 308.06 651.50 295.91 Q 654.24 287.34 660.00 277.86 Q 666.40 267.32 674.25 257.91 A 0.99 0.99 -47.3 0 0 674.20 256.58 Q 649.90 231.56 627.22 206.03 Q 626.16 204.84 626.25 206.43 Q 627.77 234.99 629.06 263.52 Q 629.59 275.39 629.68 283.50 Q 629.91 305.51 628.75 327.50 Q 628.77 330.59 627.75 333.50 Q 624.20 345.66 620.26 357.71 A 0.39 0.23 -75.3 0 1 619.96 358.01 Q 619.82 357.99 619.75 357.75 Q 619.73 357.69 619.24 341.08 Q 619.00 332.67 618.52 324.43 Q 614.70 257.58 610.50 190.75 Q 611.03 187.41 608.50 184.50 Q 601.42 176.37 587.44 158.56 Q 574.63 142.26 565.94 126.56 Q 557.41 111.17 542.08 93.63 A 1.31 1.21 27.2 0 1 541.76 92.75 L 542.96 67.00 Q 542.99 66.49 543.42 66.78 Q 557.63 76.12 570.34 87.41 Q 578.66 94.80 585.09 103.88 Q 587.03 106.63 587.28 110.44 A 0.85 0.82 -81.0 0 1 586.15 111.29 L 576.68 107.31 A 0.98 0.95 9.1 0 0 575.32 108.26 Q 575.41 109.21 576.38 110.64 Q 591.74 133.18 607.68 154.26 Q 608.39 155.21 608.32 154.02 Q 604.95 95.77 601.44 38.81 Q 600.78 36.93 600.36 35.00 A 1.49 1.48 51.7 0 1 600.47 34.04 L 610.69 13.18 Q 611.28 11.98 611.75 13.24 Q 619.98 35.28 625.01 58.25 Q 626.12 63.27 624.52 69.10 Q 624.31 69.86 623.92 69.16 L 618.31 58.93 Q 617.63 57.70 617.72 59.11 L 624.79 174.94 A 1.48 1.47 23.0 0 0 625.15 175.82 Q 654.52 209.90 686.19 243.35 A 0.52 0.52 -45.7 0 0 686.96 243.34 L 729.35 196.97 A 1.65 1.64 -26.4 0 0 729.77 195.73 Q 723.36 122.65 716.91 49.80 Q 716.91 49.79 716.65 46.18 Q 716.28 41.12 714.98 35.31 A 2.48 2.42 52.3 0 1 715.17 33.69 L 725.19 13.11 Q 725.60 12.27 725.93 13.14 Q 734.55 35.67 739.51 58.55 Q 740.69 63.98 739.56 68.88 Q 739.28 70.13 738.64 69.01 L 732.73 58.63 Q 732.38 58.02 732.44 58.72 L 742.06 181.58 Q 742.18 183.12 743.24 181.99 L 790.77 131.35 A 1.35 1.35 -41.3 0 0 790.88 129.64 Q 783.20 119.02 775.69 107.92 Q 772.67 103.44 766.41 93.55 Q 760.71 84.55 756.94 79.31 Q 754.38 75.76 748.85 70.10 A 1.28 1.26 -69.0 0 1 748.48 69.25 L 747.21 42.17 Q 747.18 41.48 747.71 41.93 Q 769.02 60.33 789.31 78.44 Q 791.83 80.69 795.18 84.63 Q 795.50 85.00 795.46 84.51 Q 793.93 63.74 792.00 43.00 Q 792.00 38.98 790.64 35.60 A 2.82 2.77 -43.4 0 1 790.72 33.34 L 800.36 12.97 Q 800.89 11.85 801.35 13.00 Q 810.05 34.74 815.37 56.55 Q 816.20 59.95 816.22 62.40 Q 816.25 65.49 815.66 68.32 Q 815.42 69.50 814.82 68.45 L 809.22 58.70 Q 808.22 56.95 808.40 58.98 L 812.78 107.17 Q 812.87 108.15 813.54 107.44 Q 836.34 83.34 861.40 59.76 A 2.06 2.04 67.3 0 0 862.04 58.18 Q 861.62 48.70 860.86 40.00 Q 860.85 39.89 860.00 36.25 Q 859.45 33.92 860.74 31.76 Q 861.65 30.23 861.67 30.18 Q 865.95 21.89 870.09 13.32 Q 870.71 12.04 871.21 13.37 Q 876.09 26.33 879.93 39.71 A 0.29 0.28 -30.6 0 0 880.41 39.83 Q 896.95 22.74 912.64 4.59 Q 913.76 3.29 913.75 5.00 Z M 858.94 180.06 Q 864.11 186.12 869.67 191.67 Q 870.03 192.03 870.00 191.52 L 863.02 73.28 Q 862.96 72.29 862.26 72.99 Q 838.04 97.20 814.66 122.19 A 1.31 1.04 -30.0 0 0 814.31 123.07 L 814.86 130.57 A 1.74 1.23 30.0 0 0 815.26 131.44 Q 836.48 156.30 858.94 180.06 Z M 793.91 89.63 Q 789.21 86.16 783.51 86.49 Q 782.78 86.53 783.19 87.13 L 796.67 106.84 Q 797.46 108.01 797.35 106.60 L 795.98 89.81 A 0.36 0.32 -13.3 0 0 795.50 89.55 L 794.80 89.83 A 1.06 0.74 47.5 0 1 793.91 89.63 Z M 725.73 311.46 Q 730.07 307.50 734.99 304.24 Q 737.63 302.49 740.70 301.75 Q 746.59 300.33 750.31 304.94 Q 752.44 307.57 753.99 311.15 Q 754.82 313.06 756.16 317.98 Q 759.50 330.28 763.56 337.69 Q 768.95 347.50 780.02 349.36 Q 789.85 351.02 799.25 347.74 Q 808.43 344.53 816.14 338.83 A 1.58 1.58 69.7 0 0 816.78 337.43 Q 813.71 295.97 810.00 255.00 Q 805.29 199.12 800.50 143.25 Q 800.40 142.14 798.60 140.34 A 0.48 0.47 -46.2 0 0 797.91 140.36 L 744.21 199.89 A 1.35 1.29 65.0 0 0 743.88 200.87 Q 745.04 216.05 746.31 230.52 Q 747.38 242.72 745.25 257.00 Q 742.75 273.76 733.38 287.41 Q 732.69 288.42 732.69 287.20 Q 732.72 260.09 733.00 233.00 Q 733.03 229.92 731.31 214.99 Q 731.25 214.50 730.91 214.86 L 695.79 252.38 A 1.00 0.98 -43.6 0 0 695.75 253.70 Q 707.54 267.90 709.61 284.77 Q 710.87 295.02 708.30 304.58 Q 702.82 324.94 682.06 334.56 Q 669.06 340.59 655.50 339.06 A 0.40 0.39 0.7 0 0 655.05 339.49 Q 656.47 353.16 660.24 366.37 Q 663.17 376.65 669.06 383.94 Q 677.00 393.75 688.07 386.75 Q 693.49 383.32 695.44 378.19 Q 699.27 368.09 702.75 353.25 Q 706.85 335.74 718.01 320.23 Q 721.63 315.19 725.73 311.46 Z M 660.46 312.80 Q 662.86 313.55 665.49 313.21 Q 679.70 311.37 691.55 303.74 Q 697.26 300.06 698.40 298.69 Q 701.61 294.83 698.31 288.94 Q 691.28 276.36 683.39 267.44 A 0.44 0.44 45.0 0 0 682.73 267.44 Q 674.81 276.53 667.80 286.34 Q 662.30 294.02 657.19 304.44 Q 655.70 307.47 656.73 309.82 Q 657.65 311.92 660.46 312.80 Z"/>
<path fill="rgb(255,255,255)" fill-opacity="1.000" d="M 940.29 9.90 Q 940.36 11.05 940.91 12.78 Q 949.12 38.83 955.39 65.41 Q 956.08 68.34 955.81 70.65 Q 955.54 72.96 954.88 75.87 Q 954.72 76.58 954.38 75.93 L 949.93 67.30 Q 949.25 65.99 949.33 67.46 Q 953.65 147.21 959.75 227.25 Q 960.53 237.48 961.00 253.56 Q 961.00 260.06 961.00 266.56 Q 960.91 269.21 959.81 284.81 Q 958.01 310.41 948.40 334.17 Q 945.52 341.30 941.71 347.94 Q 937.81 354.74 932.68 360.21 Q 918.98 374.79 899.94 382.94 Q 875.75 393.29 850.57 397.13 Q 849.55 397.28 848.95 397.03 Q 847.88 396.57 848.33 395.50 A 1.45 1.02 -8.6 0 1 849.01 394.85 Q 882.99 378.65 911.69 356.19 Q 920.16 349.56 928.51 340.28 Q 950.06 316.34 948.50 283.75 Q 948.33 274.49 947.69 265.25 Q 940.05 155.02 933.00 44.75 Q 931.96 39.97 929.73 35.98 A 3.02 2.92 42.2 0 1 929.56 33.40 L 939.26 9.72 Q 940.14 7.57 940.29 9.90 Z"/>
<path fill="rgb(255,255,255)" fill-opacity="1.000" d="M 108.00 10.59 Q 116.62 33.55 121.49 56.74 Q 122.03 59.36 121.86 61.81 Q 121.68 64.40 121.33 66.92 Q 121.14 68.29 120.44 67.08 L 114.77 57.19 Q 114.08 56.00 114.18 57.38 L 120.24 141.80 A 0.43 0.43 -8.9 0 0 120.78 142.19 Q 129.04 140.16 135.17 135.24 Q 140.49 130.97 144.79 123.02 Q 151.83 110.02 152.65 95.24 Q 153.06 87.71 152.16 75.26 Q 150.89 57.84 144.99 41.23 Q 144.22 39.05 144.58 36.77 Q 146.11 26.93 150.23 17.89 Q 151.36 15.42 152.25 17.99 Q 156.78 31.16 159.22 44.85 Q 161.79 59.22 163.27 73.75 Q 164.53 86.16 165.75 94.25 Q 167.19 103.77 172.00 112.75 Q 177.54 123.07 187.91 128.51 Q 204.20 137.04 218.45 125.70 Q 222.44 122.52 221.81 117.44 Q 206.78 75.98 194.45 33.65 Q 193.79 31.38 194.24 29.18 Q 196.12 19.89 199.96 11.67 A 0.89 0.88 33.4 0 1 201.35 11.39 Q 205.49 15.10 208.16 19.38 Q 214.38 29.32 219.28 39.99 Q 220.04 41.64 219.75 43.51 Q 219.48 45.21 218.50 43.80 Q 216.55 40.98 212.45 39.56 A 0.72 0.71 -75.6 0 0 211.51 40.12 Q 211.27 41.56 211.83 43.22 Q 218.24 62.21 224.49 81.25 Q 227.70 91.02 228.64 101.26 Q 230.62 122.78 220.44 140.44 Q 217.03 146.35 211.13 149.83 Q 205.78 152.99 198.83 153.23 Q 183.13 153.78 172.94 141.06 Q 161.21 126.42 157.25 108.00 Q 156.39 106.40 155.60 107.43 Q 155.29 107.82 155.11 108.66 Q 151.02 128.14 140.48 145.01 Q 133.50 156.17 121.89 162.47 A 0.79 0.77 -16.2 0 0 121.47 163.22 Q 123.06 188.07 124.34 212.53 Q 124.35 212.62 125.29 228.45 Q 126.99 256.83 125.25 285.25 Q 125.59 290.07 124.05 294.55 Q 123.07 297.42 123.05 297.47 Q 120.22 306.61 117.16 314.47 Q 116.06 317.30 116.00 314.27 Q 115.40 284.07 113.07 253.97 Q 111.98 239.96 111.59 234.02 Q 109.36 200.42 106.95 166.30 A 0.81 0.81 89.2 0 0 106.18 165.55 Q 89.66 164.76 81.05 152.96 Q 76.14 146.22 73.65 134.55 Q 71.54 124.66 71.92 114.52 Q 72.18 107.66 74.73 95.77 Q 76.73 86.48 79.00 77.25 Q 79.16 75.35 78.64 73.01 Q 78.13 70.70 76.36 72.27 Q 69.73 78.16 66.21 86.27 Q 58.45 104.12 56.81 118.56 Q 55.04 134.15 49.94 147.94 Q 47.81 153.68 43.65 159.13 Q 40.13 163.73 34.97 165.02 Q 30.39 166.16 25.12 164.37 Q 15.48 161.08 11.44 150.31 Q 8.12 141.49 7.68 134.99 Q 5.82 107.67 12.18 81.04 Q 12.82 78.37 13.57 80.24 Q 13.76 80.71 13.65 81.27 Q 9.74 102.37 10.75 122.25 Q 11.07 128.56 13.14 136.28 Q 15.62 145.54 22.81 150.44 Q 26.89 153.21 32.81 153.05 Q 39.93 152.86 43.67 146.92 Q 46.94 141.72 48.45 135.74 Q 49.83 130.26 51.06 124.76 Q 51.15 124.36 53.26 113.70 Q 58.28 88.42 70.28 65.64 Q 73.00 60.48 76.27 55.74 Q 79.56 50.97 83.17 46.42 Q 85.02 44.09 86.56 43.48 Q 89.02 42.49 88.82 45.14 Q 88.45 49.87 88.00 54.22 Q 87.58 58.35 86.39 63.18 Q 82.28 79.97 78.69 99.69 Q 77.21 107.79 78.20 115.53 Q 79.29 124.04 83.52 130.08 Q 90.84 140.53 104.99 142.25 A 0.23 0.23 1.1 0 0 105.25 142.01 Q 101.82 93.13 98.50 44.25 Q 98.01 37.07 96.71 32.80 A 1.29 1.29 -40.2 0 1 96.79 31.87 L 107.49 10.57 Q 107.78 10.01 108.00 10.59 Z"/>
<path fill="rgb(254,254,254)" fill-opacity="1.000" d="M 556.19 12.61 Q 549.85 23.65 547.07 36.06 Q 546.29 39.51 547.28 42.64 Q 548.33 45.93 551.20 46.99 Q 554.58 48.23 557.81 45.56 Q 559.76 43.95 561.24 40.65 A 0.84 0.53 -70.1 0 1 561.93 40.12 Q 562.45 40.21 562.33 41.26 Q 561.37 49.12 557.03 55.43 Q 554.46 59.16 551.21 59.96 Q 546.59 61.08 542.69 57.06 Q 539.97 54.26 540.02 50.00 Q 540.10 42.74 542.51 35.92 Q 547.14 22.86 555.28 11.70 Q 555.59 11.27 555.99 11.09 Q 557.44 10.44 556.19 12.61 Z"/>
<path fill="rgb(255,255,255)" fill-opacity="1.000" d="M 242.08 11.97 Q 250.97 33.10 257.06 55.23 Q 258.76 61.42 257.50 67.73 Q 257.32 68.65 256.84 67.84 L 251.03 58.10 Q 250.01 56.39 250.24 58.38 Q 258.76 134.79 264.90 211.31 Q 264.94 211.82 265.35 211.53 Q 270.67 207.78 273.13 201.66 Q 276.63 192.94 281.93 185.22 Q 283.44 183.02 284.99 182.17 Q 288.85 180.07 289.25 186.01 Q 289.37 187.77 288.61 189.35 Q 285.17 196.54 289.20 200.85 Q 292.06 203.90 298.25 204.61 Q 303.48 205.20 308.72 204.20 Q 312.73 203.43 312.81 203.41 Q 314.97 202.82 316.50 201.26 A 1.48 1.47 -32.5 0 0 316.84 199.76 L 312.92 188.47 A 1.36 1.17 49.9 0 1 312.93 187.53 L 321.55 166.87 Q 322.18 165.37 322.52 166.98 Q 323.65 172.31 324.26 177.63 Q 325.03 184.29 325.24 188.36 Q 325.94 201.73 321.19 214.19 Q 319.17 219.48 315.27 224.27 Q 310.31 230.37 302.49 231.39 Q 291.86 232.78 284.57 225.18 Q 280.81 221.26 278.59 215.63 Q 278.30 214.88 277.95 215.61 Q 273.21 225.58 266.88 233.18 A 1.25 1.21 -28.4 0 0 266.60 234.06 Q 267.36 244.77 268.00 255.50 Q 268.81 265.86 266.51 276.00 Q 264.52 284.79 261.38 293.19 Q 258.81 300.05 254.40 306.68 Q 248.18 316.04 240.25 325.75 Q 211.19 361.34 169.46 380.65 Q 146.66 391.21 123.50 394.75 Q 104.01 397.73 85.70 390.62 Q 78.25 387.72 73.07 383.59 Q 67.24 378.94 63.21 372.73 A 1.18 1.17 70.6 0 0 62.11 372.20 Q 34.49 374.68 9.79 375.06 Q 7.89 375.08 9.67 374.44 Q 32.63 366.19 55.52 356.28 A 1.13 1.13 -17.0 0 0 56.18 355.04 Q 53.87 341.83 54.75 329.50 Q 55.91 313.20 60.00 297.39 Q 64.81 278.78 72.00 260.96 L 72.46 261.00 Q 67.08 278.31 65.40 296.26 Q 64.27 308.35 64.56 316.24 Q 65.18 332.54 71.86 347.80 A 0.92 0.92 65.5 0 0 73.09 348.26 Q 107.45 332.28 138.07 311.83 Q 156.94 299.23 173.75 284.00 Q 183.24 275.41 190.64 265.59 Q 191.75 264.11 191.37 262.31 Q 189.92 255.45 186.98 249.69 A 0.55 0.55 65.5 0 0 186.29 249.43 Q 172.76 254.66 158.25 255.26 Q 152.30 255.50 146.93 253.58 Q 141.11 251.50 137.69 247.34 Q 133.56 242.32 133.25 235.25 Q 132.64 221.55 138.10 208.65 Q 144.17 194.32 158.43 189.63 Q 161.53 188.60 164.68 189.18 Q 175.27 191.13 182.52 199.49 Q 190.15 208.29 194.26 219.05 A 0.39 0.39 -25.2 0 0 194.82 219.25 Q 202.15 214.97 207.96 209.61 Q 208.01 209.57 213.71 203.58 Q 219.67 197.32 227.50 192.50 Q 229.75 191.12 231.23 192.25 Q 232.30 193.08 232.36 195.11 Q 232.47 198.41 231.53 201.57 Q 230.70 204.37 230.90 206.06 Q 231.94 214.67 239.92 217.69 Q 241.95 218.46 244.83 218.51 Q 247.41 218.55 249.84 218.45 A 0.76 0.75 86.1 0 0 250.56 217.62 Q 241.86 128.88 233.28 40.75 Q 233.04 38.21 231.78 34.68 A 2.11 2.08 -42.8 0 1 231.85 33.14 L 241.29 11.96 Q 241.69 11.06 242.08 11.97 Z M 169.82 222.49 Q 164.26 217.49 156.96 216.66 Q 153.68 216.29 151.22 217.48 Q 148.48 218.79 146.55 221.32 Q 145.00 223.36 146.93 225.04 Q 148.80 226.67 151.41 227.19 Q 162.47 229.36 173.66 227.30 A 0.39 0.39 68.0 0 0 173.91 226.71 Q 172.73 224.92 171.38 223.80 Q 169.89 222.55 169.82 222.49 Z M 185.19 295.44 Q 169.01 313.96 149.95 328.25 Q 143.12 333.37 133.58 339.74 Q 112.23 354.01 88.93 364.94 Q 88.33 365.22 88.93 365.49 Q 99.37 370.20 111.00 369.65 Q 135.44 368.51 158.28 359.84 Q 187.76 348.64 212.29 328.81 Q 234.67 310.70 251.75 288.50 Q 254.20 285.31 255.63 281.35 Q 256.53 278.84 256.22 275.55 Q 254.77 260.20 253.16 244.13 A 0.41 0.40 -12.4 0 0 252.62 243.79 Q 234.49 249.95 226.31 233.94 Q 223.76 228.94 222.33 220.50 Q 222.25 220.00 221.94 220.40 Q 212.88 232.03 201.21 241.01 A 0.95 0.93 70.3 0 0 200.84 241.82 Q 201.78 260.60 195.71 278.18 Q 193.93 283.35 191.36 287.32 Q 188.71 291.40 185.19 295.44 Z"/>
<path fill="rgb(255,255,255)" fill-opacity="1.000" d="M 510.03 12.56 Q 513.11 14.90 514.84 17.42 Q 522.86 29.14 528.66 42.10 Q 528.68 42.14 529.05 42.73 Q 529.38 43.26 529.05 43.85 Q 528.76 44.35 528.74 44.75 Q 528.60 46.55 527.33 44.92 Q 524.89 41.80 522.44 41.30 Q 519.57 40.71 520.49 43.48 Q 525.96 59.89 531.49 76.25 Q 534.07 83.88 535.99 91.71 Q 541.34 113.46 533.29 134.31 Q 531.05 140.10 527.18 144.95 Q 518.02 156.41 504.25 154.75 Q 492.53 153.33 484.27 144.98 Q 478.94 139.60 475.29 132.95 Q 469.68 122.72 466.44 109.81 Q 465.77 107.15 464.61 108.87 Q 464.28 109.37 464.10 110.22 Q 460.65 127.13 450.81 144.56 Q 443.44 157.62 430.69 163.94 Q 426.72 165.90 421.99 166.49 Q 417.80 167.02 413.00 166.71 Q 401.06 165.93 393.24 157.93 Q 387.55 152.12 384.37 142.29 Q 381.65 133.88 381.25 124.25 Q 380.80 113.57 382.16 105.83 Q 384.30 93.67 387.44 81.73 Q 388.39 78.15 387.77 74.61 Q 387.40 72.48 385.60 73.68 Q 384.09 74.69 383.00 75.99 Q 375.68 84.65 372.25 95.50 Q 369.52 104.14 367.91 110.58 Q 367.60 111.82 365.15 126.01 Q 363.02 138.36 358.52 150.12 Q 356.53 155.34 352.69 160.44 Q 350.14 163.82 346.64 165.51 Q 343.45 167.05 339.15 166.75 Q 327.76 165.95 322.06 155.44 Q 318.32 148.53 317.16 140.26 Q 315.97 131.77 316.13 123.19 Q 316.52 102.35 321.20 82.04 A 1.11 0.94 86.9 0 1 321.75 81.31 Q 323.20 80.64 322.71 83.24 Q 319.03 102.95 319.97 122.99 Q 320.32 130.37 322.27 137.49 Q 323.58 142.28 326.31 146.25 Q 329.25 150.53 333.24 152.65 Q 338.63 155.51 344.75 154.25 Q 350.36 153.09 353.55 147.28 Q 356.70 141.51 358.06 135.06 Q 359.68 128.82 360.77 122.46 Q 364.86 98.49 374.74 76.28 Q 381.27 61.60 391.24 49.00 Q 393.07 46.69 395.39 45.08 Q 397.80 43.41 397.75 46.34 Q 397.66 52.33 396.81 58.16 Q 396.29 61.67 394.28 69.74 Q 389.90 87.32 387.50 102.75 Q 386.55 108.82 387.13 115.32 Q 387.76 122.44 390.04 127.41 Q 393.50 134.93 400.56 139.19 Q 406.35 142.67 413.50 143.76 Q 420.41 144.81 427.01 144.07 Q 436.17 143.05 443.19 137.69 Q 452.06 130.91 456.56 118.81 Q 461.52 105.48 461.84 94.50 Q 462.63 67.41 453.82 41.46 Q 453.37 40.14 453.57 38.76 Q 455.08 28.60 459.28 19.43 Q 460.50 16.76 461.43 19.55 Q 469.74 44.51 471.75 70.75 Q 473.08 80.99 474.07 91.27 Q 475.73 108.50 485.56 120.94 Q 490.27 126.89 497.33 130.36 Q 504.62 133.93 511.63 133.55 Q 520.46 133.06 527.81 126.81 Q 530.64 124.41 530.97 121.25 Q 531.16 119.39 529.72 115.41 Q 515.62 76.41 503.39 34.66 Q 502.89 32.95 503.23 31.20 Q 504.94 22.49 509.03 12.83 A 0.66 0.66 -60.0 0 1 510.03 12.56 Z"/>
<path fill="rgb(254,254,254)" fill-opacity="1.000" d="M 406.73 17.33 Q 409.70 19.24 413.31 22.94 Q 426.54 36.49 423.22 55.49 Q 422.71 58.41 421.19 60.94 Q 420.53 62.04 420.75 60.75 Q 424.55 38.70 406.11 27.32 A 0.96 0.93 14.3 0 1 405.65 26.57 Q 405.43 23.12 405.94 19.69 Q 405.84 18.57 406.15 17.54 A 0.39 0.38 24.4 0 1 406.73 17.33 Z"/>
<path fill="rgb(254,254,254)" fill-opacity="1.000" d="M 24.38 20.12 Q 24.52 20.31 24.27 20.76 Q 18.74 30.73 15.81 40.81 Q 14.95 43.77 14.77 47.09 Q 14.56 50.91 15.85 53.22 Q 18.07 57.22 23.14 55.72 Q 25.26 55.09 26.71 53.36 Q 28.07 51.73 29.08 49.64 Q 29.66 48.44 30.20 49.66 Q 30.66 50.70 29.75 52.25 Q 28.68 57.99 25.83 62.93 Q 23.42 67.09 20.53 68.43 Q 16.50 70.30 12.06 67.44 Q 8.61 65.21 8.00 60.50 Q 7.16 54.03 9.97 46.11 Q 14.01 34.68 20.29 24.30 Q 21.68 22.01 23.69 20.26 A 0.61 0.33 -39.9 0 1 24.38 20.12 Z"/>
<path fill="rgb(254,254,254)" fill-opacity="1.000" d="M 680.11 23.25 Q 683.44 26.76 679.17 30.95 A 0.48 0.48 50.0 0 1 678.44 30.88 Q 677.50 29.50 676.68 28.32 Q 674.62 25.37 671.69 27.69 Q 669.23 29.64 668.38 32.09 Q 664.74 42.57 664.45 53.69 A 1.59 1.54 64.8 0 1 664.14 54.60 Q 661.73 57.85 661.72 53.77 Q 661.72 52.24 661.67 51.75 Q 660.95 44.29 656.56 38.19 Q 655.45 36.64 653.56 36.50 Q 649.83 36.23 648.17 33.01 Q 646.17 29.12 646.72 24.98 A 1.39 1.39 13.3 0 1 648.55 23.85 Q 650.16 24.40 651.10 25.17 Q 658.94 31.61 662.87 40.97 A 0.64 0.46 67.0 0 0 663.55 41.38 Q 663.96 41.20 664.02 40.50 Q 664.80 31.65 668.93 23.95 Q 670.56 20.92 672.72 20.27 Q 674.82 19.65 676.91 20.78 Q 678.64 21.71 680.11 23.25 Z"/>
<path fill="rgb(254,254,254)" fill-opacity="1.000" d="M 338.04 25.99 Q 339.89 31.38 339.15 36.45 A 2.75 2.73 -63.1 0 0 339.90 38.77 Q 344.73 43.72 345.89 49.94 Q 346.58 53.64 345.11 58.94 Q 342.49 68.39 338.31 77.31 Q 337.33 79.42 337.08 82.92 Q 336.94 84.77 337.65 85.93 Q 339.20 88.45 341.69 85.19 Q 342.13 84.60 342.83 81.43 A 1.22 1.03 85.2 0 1 343.37 80.67 Q 344.67 80.00 345.37 80.97 Q 345.78 81.54 345.71 82.61 Q 345.31 89.23 341.19 93.94 Q 338.26 97.28 335.44 93.81 Q 334.91 93.49 334.63 92.91 Q 331.32 85.92 334.21 78.69 Q 336.53 72.87 338.85 67.04 Q 341.18 61.19 341.30 54.95 Q 341.36 51.90 340.60 49.64 Q 339.70 47.00 337.96 44.86 A 0.44 0.43 36.2 0 0 337.22 44.97 Q 333.95 52.90 329.43 59.78 Q 324.41 67.41 320.30 71.54 Q 314.97 76.89 307.81 80.06 Q 302.55 82.93 297.01 85.23 Q 296.94 85.26 296.65 85.46 Q 296.44 85.60 296.24 85.48 A 0.27 0.22 -44.8 0 1 296.28 85.06 Q 306.31 78.06 318.31 66.06 Q 328.23 56.15 332.96 42.88 A 1.45 1.44 -63.9 0 0 332.38 41.17 Q 330.60 40.03 328.70 38.82 Q 326.10 37.17 324.75 34.61 Q 323.43 32.11 323.82 29.20 Q 324.48 24.21 329.31 22.06 Q 335.72 19.21 338.04 25.99 Z M 332.89 33.13 A 0.79 0.74 -75.1 0 0 334.01 32.44 Q 334.23 24.17 327.35 28.54 A 0.84 0.78 -45.1 0 0 327.30 29.93 L 332.89 33.13 Z"/>
<path fill="rgb(84,47,66)" fill-opacity="0.000" d="M 334.01 32.44 A 0.79 0.74 -75.1 0 1 332.89 33.13 L 327.30 29.93 A 0.84 0.78 -45.1 0 1 327.35 28.54 Q 334.23 24.17 334.01 32.44 Z"/>
<path fill="rgb(254,254,254)" fill-opacity="1.000" d="M 269.97 35.37 Q 270.13 32.95 272.00 34.47 Q 290.29 49.31 287.49 70.75 Q 287.04 74.14 285.39 77.08 A 0.61 0.41 -63.6 0 1 284.79 77.42 Q 284.51 77.30 284.63 76.83 Q 286.61 69.05 284.26 61.37 Q 280.81 50.11 270.21 43.56 A 1.46 1.45 -72.3 0 1 269.52 42.22 L 269.97 35.37 Z"/>
<path fill="rgb(254,254,254)" fill-opacity="1.000" d="M 180.91 40.30 Q 180.59 47.01 183.34 53.08 Q 184.00 54.53 185.00 55.18 Q 186.29 56.02 187.73 55.96 A 1.45 1.44 77.7 0 0 189.00 53.98 Q 187.78 50.90 186.58 47.93 Q 185.90 46.26 186.06 44.96 Q 186.24 43.40 186.94 41.94 Q 187.19 40.10 188.64 40.91 A 1.36 1.06 -88.0 0 1 189.20 41.68 Q 190.29 45.34 192.00 48.75 Q 193.45 54.98 191.50 59.50 Q 189.42 64.33 183.94 61.81 Q 182.00 60.02 179.95 58.37 A 0.40 0.40 32.7 0 0 179.35 58.50 Q 177.20 62.72 173.25 63.50 Q 170.96 63.95 169.15 62.43 Q 167.84 61.33 167.09 59.07 Q 164.60 51.66 168.81 44.56 Q 169.39 43.59 170.21 43.68 A 0.42 0.36 -73.2 0 1 170.47 44.26 Q 167.63 50.24 170.56 55.72 Q 171.60 57.65 173.68 57.01 Q 177.93 55.70 177.59 51.91 Q 177.48 50.63 177.47 50.59 Q 177.32 46.34 177.75 44.25 Q 178.23 41.89 180.53 40.11 Q 180.93 39.80 180.91 40.30 Z"/>
<path fill="rgb(254,254,254)" fill-opacity="1.000" d="M 698.67 49.78 Q 698.22 52.33 696.53 54.04 Q 695.46 55.11 692.57 56.33 Q 673.89 64.25 655.44 72.69 Q 647.76 75.72 640.89 80.91 Q 639.07 82.28 641.02 83.10 L 645.74 85.08 A 0.92 0.86 -80.8 0 1 646.28 85.89 L 646.43 89.69 A 0.85 0.75 -85.4 0 1 645.51 90.58 Q 641.51 89.58 638.19 87.31 Q 637.15 86.60 637.27 85.26 Q 637.42 83.70 637.38 83.20 Q 636.92 76.99 642.81 73.81 Q 669.36 59.53 697.88 49.12 Q 698.85 48.76 698.67 49.78 Z"/>
<path fill="rgb(254,254,254)" fill-opacity="1.000" d="M 423.10 64.37 Q 422.53 66.48 422.92 68.97 Q 423.95 75.48 425.77 81.80 Q 426.73 85.14 428.35 86.52 Q 430.52 88.37 433.76 88.50 Q 436.49 88.61 435.67 86.01 Q 433.79 79.99 430.84 74.12 A 2.49 2.48 43.1 0 1 430.77 72.05 Q 431.81 69.56 432.25 67.30 Q 432.57 65.70 433.05 65.26 Q 433.86 64.53 435.24 65.10 A 1.02 0.91 -87.5 0 1 435.80 65.79 Q 437.30 72.04 440.21 77.74 Q 441.22 79.70 441.14 81.63 Q 440.95 86.60 439.98 91.50 Q 438.76 97.61 433.57 98.43 Q 430.20 98.96 426.98 96.75 Q 424.16 94.81 421.96 91.68 Q 421.30 90.75 420.86 91.80 Q 419.44 95.20 416.48 97.45 Q 413.32 99.86 410.10 99.99 Q 405.83 100.17 403.04 95.97 Q 401.02 92.92 400.60 89.27 Q 399.65 81.10 402.93 73.62 Q 404.03 71.11 406.64 69.08 Q 407.71 68.26 407.19 69.50 Q 403.77 77.65 405.75 85.00 Q 406.52 87.85 408.22 89.33 Q 409.99 90.87 412.57 90.08 Q 414.94 89.35 416.57 87.45 Q 417.74 86.09 417.78 83.67 Q 417.91 76.71 418.23 69.75 A 1.62 1.10 74.6 0 1 418.54 68.84 L 422.57 64.06 Q 423.48 62.97 423.10 64.37 Z"/>
<path fill="rgb(84,47,66)" fill-opacity="0.000" d="M 863.02 73.28 L 870.00 191.52 Q 870.03 192.03 869.67 191.67 Q 864.11 186.12 858.94 180.06 Q 836.48 156.30 815.26 131.44 A 1.74 1.23 30.0 0 1 814.86 130.57 L 814.31 123.07 A 1.31 1.04 -30.0 0 1 814.66 122.19 Q 838.04 97.20 862.26 72.99 Q 862.96 72.29 863.02 73.28 Z"/>
<path fill="rgb(254,254,254)" fill-opacity="1.000" d="M 178.25 76.97 Q 190.16 85.38 194.25 99.00 Q 197.25 108.98 193.31 119.62 Q 193.18 119.96 192.97 120.18 Q 192.07 121.12 192.39 119.33 Q 194.75 106.04 187.26 95.66 Q 185.40 93.09 182.74 90.82 Q 180.35 88.78 177.42 86.79 A 1.24 1.22 -71.1 0 1 176.88 85.66 L 177.51 77.32 Q 177.58 76.49 178.25 76.97 Z"/>
<path fill="rgb(84,47,66)" fill-opacity="0.000" d="M 783.51 86.49 Q 789.21 86.16 793.91 89.63 A 1.06 0.74 47.5 0 0 794.80 89.83 L 795.50 89.55 A 0.36 0.32 -13.3 0 1 795.98 89.81 L 797.35 106.60 Q 797.46 108.01 796.67 106.84 L 783.19 87.13 Q 782.78 86.53 783.51 86.49 Z"/>
<path fill="rgb(254,254,254)" fill-opacity="1.000" d="M 677.00 111.23 Q 676.48 112.96 676.69 114.73 Q 677.88 124.81 680.25 130.75 Q 681.97 135.06 686.82 135.51 Q 690.68 135.86 689.28 132.37 L 684.71 120.95 A 1.63 0.95 53.2 0 1 684.60 120.01 L 686.65 112.53 A 0.64 0.60 -78.1 0 1 687.32 112.06 L 689.08 112.30 A 0.84 0.65 84.9 0 1 689.67 112.93 Q 691.02 118.92 694.18 124.75 Q 695.00 126.27 695.00 127.99 Q 695.03 134.25 693.25 140.75 Q 692.45 143.67 689.21 144.88 Q 683.73 146.93 679.55 142.95 Q 677.35 140.86 675.49 138.46 A 0.30 0.30 -51.4 0 0 674.98 138.52 Q 672.67 143.51 668.08 145.88 Q 664.23 147.88 660.76 146.46 Q 656.82 144.85 655.48 140.05 Q 652.60 129.70 657.09 120.07 Q 658.30 117.47 660.49 116.25 Q 661.67 115.58 661.07 116.80 Q 656.89 125.20 660.17 133.47 Q 661.41 136.60 663.68 137.20 Q 666.43 137.94 669.44 135.44 Q 672.39 132.98 671.75 129.75 Q 671.31 127.53 671.97 117.00 A 1.71 1.31 72.1 0 1 672.29 116.10 L 676.46 110.93 Q 677.48 109.66 677.00 111.23 Z"/>
<path fill="rgb(254,254,254)" fill-opacity="1.000" d="M 892.49 111.80 Q 895.10 113.32 899.31 117.19 Q 920.85 136.94 914.01 166.00 Q 913.61 167.71 912.49 169.51 Q 911.32 171.37 911.65 169.19 Q 916.05 139.94 891.88 125.08 A 1.40 1.32 18.5 0 1 891.22 123.85 L 892.01 112.06 A 0.32 0.32 -73.4 0 1 892.49 111.80 Z"/>
<path fill="rgb(254,254,254)" fill-opacity="1.000" d="M 308.65 125.37 Q 308.25 131.35 302.85 134.79 Q 283.23 147.30 263.10 159.44 Q 261.71 160.28 262.44 158.82 L 265.60 152.52 A 5.57 4.52 -87.8 0 1 267.44 150.42 L 307.84 124.88 Q 308.72 124.33 308.65 125.37 Z"/>
<path fill="rgb(84,47,66)" fill-opacity="0.000" d="M 798.60 140.34 Q 800.40 142.14 800.50 143.25 Q 805.29 199.12 810.00 255.00 Q 813.71 295.97 816.78 337.43 A 1.58 1.58 69.7 0 1 816.14 338.83 Q 808.43 344.53 799.25 347.74 Q 789.85 351.02 780.02 349.36 Q 768.95 347.50 763.56 337.69 Q 759.50 330.28 756.16 317.98 Q 754.82 313.06 753.99 311.15 Q 752.44 307.57 750.31 304.94 Q 746.59 300.33 740.70 301.75 Q 737.63 302.49 734.99 304.24 Q 730.07 307.50 725.73 311.46 Q 721.63 315.19 718.01 320.23 Q 706.85 335.74 702.75 353.25 Q 699.27 368.09 695.44 378.19 Q 693.49 383.32 688.07 386.75 Q 677.00 393.75 669.06 383.94 Q 663.17 376.65 660.24 366.37 Q 656.47 353.16 655.05 339.49 A 0.40 0.39 0.7 0 1 655.50 339.06 Q 669.06 340.59 682.06 334.56 Q 702.82 324.94 708.30 304.58 Q 710.87 295.02 709.61 284.77 Q 707.54 267.90 695.75 253.70 A 1.00 0.98 -43.6 0 1 695.79 252.38 L 730.91 214.86 Q 731.25 214.50 731.31 214.99 Q 733.03 229.92 733.00 233.00 Q 732.72 260.09 732.69 287.20 Q 732.69 288.42 733.38 287.41 Q 742.75 273.76 745.25 257.00 Q 747.38 242.72 746.31 230.52 Q 745.04 216.05 743.88 200.87 A 1.35 1.29 65.0 0 1 744.21 199.89 L 797.91 140.36 A 0.48 0.47 -46.2 0 1 798.60 140.34 Z M 776.26 240.10 A 1.50 1.50 -50.4 0 1 776.42 241.79 Q 772.48 249.05 775.01 255.84 A 0.96 0.81 -0.5 0 0 775.67 256.39 L 780.77 257.60 A 0.39 0.37 -66.6 0 1 780.98 258.18 Q 777.74 263.13 773.34 267.10 Q 756.12 282.62 735.55 293.34 Q 735.28 293.49 734.93 293.60 Q 732.97 294.21 734.91 294.46 Q 735.23 294.50 735.58 294.43 Q 758.19 289.76 775.17 274.19 Q 781.78 268.13 785.67 259.42 A 0.50 0.50 -65.2 0 1 786.34 259.17 Q 789.06 260.50 791.38 262.14 Q 794.08 264.05 796.60 263.17 Q 798.69 262.44 799.63 259.70 Q 801.91 253.05 798.06 246.19 Q 793.33 237.75 787.03 232.70 Q 782.65 229.19 778.00 230.00 Q 774.80 230.55 774.64 233.56 Q 774.55 235.13 774.84 236.95 Q 775.14 238.75 776.26 240.10 Z"/>
<path fill="rgb(254,254,254)" fill-opacity="1.000" d="M 563.10 151.86 Q 564.58 155.55 563.25 159.75 Q 562.28 162.82 560.78 165.33 Q 559.79 166.99 557.34 170.31 Q 549.21 181.28 536.02 185.66 Q 535.73 185.76 535.45 185.74 Q 534.26 185.64 535.40 184.95 Q 545.75 178.67 553.44 170.19 Q 555.22 168.22 556.05 165.58 Q 556.69 163.55 556.14 161.90 Q 555.44 159.80 553.47 158.99 Q 551.34 158.12 548.76 159.68 Q 546.31 161.17 544.28 163.29 Q 542.62 165.03 543.19 162.69 Q 543.55 161.21 546.97 157.49 Q 547.05 157.39 549.31 154.82 Q 552.27 151.46 556.20 149.21 Q 558.60 147.84 560.60 148.83 Q 562.20 149.63 563.10 151.86 Z"/>
<path fill="rgb(254,254,254)" fill-opacity="1.000" d="M 720.37 159.47 Q 719.71 165.27 715.49 169.36 Q 714.94 169.90 714.29 170.30 L 656.99 205.92 Q 656.56 206.19 656.64 205.70 Q 657.28 201.75 659.32 197.36 A 2.92 2.91 86.7 0 1 660.44 196.10 L 719.83 159.13 Q 720.45 158.75 720.37 159.47 Z"/>
<path fill="rgb(255,255,255)" fill-opacity="1.000" d="M 386.15 167.56 Q 388.33 169.31 389.94 172.06 Q 400.96 190.99 408.95 210.17 Q 422.17 241.94 425.94 276.01 Q 425.95 276.04 427.07 293.52 Q 427.75 304.18 429.88 314.67 Q 431.91 324.66 437.69 335.31 Q 439.31 338.31 440.94 339.56 Q 446.13 346.41 452.36 352.30 Q 453.57 353.45 454.56 353.50 Q 455.64 353.56 456.43 352.76 Q 456.99 352.19 457.07 351.05 Q 457.33 347.65 457.50 344.25 Q 458.92 339.17 462.31 334.56 Q 469.25 325.13 479.51 320.20 Q 502.44 309.17 526.95 302.32 Q 527.44 302.19 526.94 302.19 L 430.30 302.94 A 0.23 0.23 6.0 0 1 430.07 302.66 Q 432.19 292.19 434.37 281.71 Q 434.82 279.51 436.22 277.89 Q 444.27 268.52 454.81 261.06 Q 480.72 242.74 508.98 230.14 A 0.49 0.49 -25.3 0 0 509.22 229.48 Q 508.22 227.46 506.88 225.64 Q 499.72 215.98 504.40 204.67 Q 507.81 196.46 513.19 190.44 Q 516.95 186.23 522.01 186.41 Q 525.02 186.52 530.58 189.18 Q 540.50 193.93 549.13 200.85 Q 556.61 206.84 563.15 213.28 A 1.75 1.70 -59.4 0 1 563.57 215.03 L 557.40 234.76 A 1.11 1.08 1.3 0 1 556.61 235.50 L 529.23 242.44 A 1.26 1.22 75.7 0 0 528.36 243.96 Q 530.19 251.10 529.34 257.88 Q 529.18 259.14 528.81 259.94 Q 527.62 262.54 526.00 259.25 Q 525.01 252.24 521.03 246.41 A 0.66 0.64 -26.7 0 0 520.27 246.17 Q 498.35 254.11 478.32 265.93 Q 472.74 269.22 469.07 272.10 Q 464.63 275.59 460.80 279.57 Q 459.90 280.50 461.20 280.50 L 610.69 280.56 A 0.33 0.32 12.2 0 1 610.99 281.02 L 601.73 300.99 A 1.79 1.70 4.9 0 1 600.55 301.93 Q 568.26 309.69 536.68 318.90 Q 506.23 327.78 485.44 336.94 Q 471.28 343.17 464.81 348.06 Q 462.26 349.99 463.62 352.26 Q 464.28 353.37 466.37 354.75 Q 473.08 359.19 480.75 361.75 Q 481.10 361.87 505.09 369.29 A 0.69 0.69 8.3 0 1 505.57 369.93 Q 505.76 382.12 504.55 394.25 A 0.53 0.53 -86.0 0 1 504.00 394.73 Q 492.50 394.20 479.00 392.00 Q 462.30 389.28 449.69 378.81 Q 436.60 367.95 428.56 350.19 Q 418.02 326.87 416.28 297.58 Q 416.24 296.87 415.93 296.52 Q 415.40 295.91 414.80 296.59 Q 414.52 296.91 414.41 297.50 Q 412.77 306.60 409.90 315.37 Q 408.98 318.16 407.04 320.49 Q 393.17 337.10 376.94 351.35 Q 367.90 359.29 361.53 364.10 Q 349.57 373.14 336.25 379.50 Q 329.82 382.57 322.75 384.00 Q 314.19 385.73 308.73 384.33 Q 300.96 382.33 296.42 374.62 Q 293.21 369.17 291.75 362.98 A 0.29 0.28 -25.1 0 0 291.30 362.82 Q 282.84 369.27 274.06 375.31 Q 264.71 381.75 258.94 384.44 Q 253.89 386.78 238.74 390.98 Q 208.18 399.45 177.22 405.53 Q 174.27 406.11 176.92 404.69 Q 191.31 397.01 205.42 388.86 Q 214.50 383.62 222.74 378.83 Q 257.48 358.63 291.20 335.09 A 2.34 2.33 -12.1 0 0 292.15 333.63 Q 295.10 318.65 301.11 304.83 Q 305.76 294.13 313.01 284.99 Q 313.41 284.48 313.48 285.06 Q 313.51 285.23 313.44 285.43 Q 311.64 290.34 311.44 290.69 Q 301.22 308.44 297.78 329.66 Q 297.64 330.51 298.34 330.00 Q 315.41 317.56 331.69 303.44 Q 342.71 293.88 354.27 280.27 Q 357.20 276.82 357.73 274.58 Q 358.45 271.52 357.08 268.38 Q 356.38 266.78 356.35 266.71 Q 344.99 237.69 333.55 208.65 A 2.65 2.58 42.0 0 1 333.44 207.03 L 339.21 184.11 Q 340.13 180.42 342.43 183.48 Q 352.22 196.47 359.02 209.40 Q 361.88 214.85 362.48 220.83 Q 362.66 222.55 361.57 221.20 Q 358.57 217.45 354.97 214.29 Q 354.28 213.69 354.73 214.61 Q 363.93 233.67 367.00 253.50 Q 368.39 262.49 367.72 273.01 Q 366.77 287.74 358.03 299.52 Q 349.93 310.44 340.33 320.08 Q 322.43 338.06 302.64 353.94 A 0.42 0.42 47.0 0 0 302.62 354.59 Q 306.53 358.08 311.50 358.50 Q 322.09 359.39 332.15 356.37 Q 339.86 354.05 349.96 347.47 Q 359.19 341.46 366.81 334.81 Q 391.57 313.21 413.64 288.19 A 0.92 0.92 -32.1 0 0 413.84 287.32 Q 405.75 258.51 397.02 230.24 Q 394.20 221.11 389.94 212.56 Q 385.90 204.46 380.43 190.72 A 1.77 1.42 46.4 0 1 380.35 189.76 L 385.61 167.74 A 0.34 0.34 -63.9 0 1 386.15 167.56 Z M 510.35 209.72 A 2.05 2.05 -58.5 0 0 510.83 211.72 Q 516.27 217.44 521.14 224.45 A 0.68 0.67 -26.8 0 0 521.92 224.70 L 540.77 218.17 A 0.33 0.32 -31.7 0 0 540.90 217.64 Q 533.31 209.85 524.69 206.81 Q 518.04 204.47 511.88 207.70 Q 510.79 208.28 510.35 209.72 Z"/>
<path fill="rgb(254,254,254)" fill-opacity="1.000" d="M 53.67 173.08 Q 60.56 177.33 64.74 184.23 Q 67.73 189.17 68.57 192.28 Q 69.82 196.88 67.81 201.56 Q 65.79 206.28 60.75 203.75 Q 57.88 201.65 54.54 200.48 A 0.53 0.51 -69.2 0 0 53.88 200.79 Q 51.34 207.26 46.31 212.06 Q 45.38 213.76 43.91 214.95 Q 42.37 216.20 42.28 216.27 Q 25.81 231.06 3.98 235.50 Q 1.05 236.10 3.69 234.69 Q 23.39 224.14 40.31 209.56 Q 45.29 205.28 49.40 199.23 A 0.36 0.35 -66.2 0 0 49.20 198.68 L 44.05 197.52 A 0.94 0.83 -2.0 0 1 43.39 196.98 Q 40.70 189.35 44.98 182.66 A 0.72 0.69 42.7 0 0 44.93 181.85 Q 43.03 179.37 43.06 176.69 Q 43.13 170.69 47.87 170.93 Q 50.36 171.05 53.67 173.08 Z M 63.81 191.94 Q 60.06 187.46 55.17 184.27 Q 54.75 183.99 54.79 184.50 L 55.64 194.31 A 0.74 0.72 5.9 0 0 56.17 194.95 Q 59.08 195.78 62.07 196.12 Q 63.80 196.31 64.75 195.53 Q 66.51 194.09 63.81 191.94 Z M 50.41 184.69 Q 48.68 183.45 47.27 185.05 Q 45.35 187.26 45.10 189.68 A 1.12 1.10 26.5 0 0 45.40 190.55 Q 48.08 193.30 51.94 193.65 A 0.68 0.67 -76.1 0 0 52.63 193.22 Q 54.75 187.79 50.41 184.69 Z"/>
<path fill="rgb(254,254,254)" fill-opacity="1.000" d="M 452.09 177.80 Q 451.47 181.14 452.31 185.19 Q 454.53 195.79 455.56 197.69 Q 457.75 201.72 462.52 202.00 Q 465.73 202.19 464.61 199.31 L 460.06 187.63 A 2.82 1.97 49.7 0 1 459.91 186.05 L 461.68 179.30 A 1.03 0.90 88.8 0 1 462.26 178.61 Q 463.25 178.24 464.23 178.61 A 1.01 0.86 -89.6 0 1 464.80 179.29 Q 466.43 185.87 469.82 192.05 Q 470.25 192.84 470.25 193.75 Q 470.23 199.63 468.93 205.15 Q 468.13 208.56 466.37 210.16 Q 463.95 212.38 460.55 212.01 Q 457.81 211.72 455.21 209.71 Q 452.85 207.89 451.18 205.30 Q 450.33 203.98 449.85 205.47 Q 449.34 207.05 447.97 208.70 Q 446.35 210.66 444.21 211.92 Q 441.98 213.25 439.59 213.43 Q 435.70 213.73 433.15 211.07 Q 431.24 209.07 430.36 205.36 Q 429.15 200.30 429.94 194.19 Q 430.85 187.07 435.29 182.82 Q 435.59 182.53 435.92 182.48 Q 436.83 182.35 436.34 183.33 Q 431.53 192.83 436.44 202.31 Q 437.70 204.75 439.94 204.19 Q 444.04 203.14 446.69 199.90 A 1.43 1.37 64.5 0 0 446.99 199.00 Q 446.82 192.19 447.26 185.39 Q 447.44 182.63 448.72 180.85 Q 450.03 179.04 451.80 177.61 Q 452.18 177.31 452.09 177.80 Z"/>
<path fill="rgb(84,47,66)" fill-opacity="0.000" d="M 55.17 184.27 Q 60.06 187.46 63.81 191.94 Q 66.51 194.09 64.75 195.53 Q 63.80 196.31 62.07 196.12 Q 59.08 195.78 56.17 194.95 A 0.74 0.72 5.9 0 1 55.64 194.31 L 54.79 184.50 Q 54.75 183.99 55.17 184.27 Z"/>
<path fill="rgb(84,47,66)" fill-opacity="0.000" d="M 50.41 184.69 Q 54.75 187.79 52.63 193.22 A 0.68 0.67 -76.1 0 1 51.94 193.65 Q 48.08 193.30 45.40 190.55 A 1.12 1.10 26.5 0 1 45.10 189.68 Q 45.35 187.26 47.27 185.05 Q 48.68 183.45 50.41 184.69 Z"/>
<path fill="rgb(84,47,66)" fill-opacity="0.000" d="M 524.69 206.81 Q 533.31 209.85 540.90 217.64 A 0.33 0.32 -31.7 0 1 540.77 218.17 L 521.92 224.70 A 0.68 0.67 -26.8 0 1 521.14 224.45 Q 516.27 217.44 510.83 211.72 A 2.05 2.05 -58.5 0 1 510.35 209.72 Q 510.79 208.28 511.88 207.70 Q 518.04 204.47 524.69 206.81 Z"/>
<path fill="rgb(254,254,254)" fill-opacity="1.000" d="M 81.67 212.71 Q 82.47 212.21 82.36 213.14 Q 81.77 217.87 79.35 221.08 Q 77.86 223.06 72.95 226.09 Q 46.31 242.52 19.48 259.17 Q 17.89 260.16 18.53 258.43 L 21.31 250.97 A 2.88 2.10 -12.7 0 1 22.40 249.72 L 81.67 212.71 Z"/>
<path fill="rgb(84,47,66)" fill-opacity="0.000" d="M 156.96 216.66 Q 164.26 217.49 169.82 222.49 Q 169.89 222.55 171.38 223.80 Q 172.73 224.92 173.91 226.71 A 0.39 0.39 68.0 0 1 173.66 227.30 Q 162.47 229.36 151.41 227.19 Q 148.80 226.67 146.93 225.04 Q 145.00 223.36 146.55 221.32 Q 148.48 218.79 151.22 217.48 Q 153.68 216.29 156.96 216.66 Z"/>
<path fill="rgb(84,47,66)" fill-opacity="0.000" d="M 222.33 220.50 Q 223.76 228.94 226.31 233.94 Q 234.49 249.95 252.62 243.79 A 0.41 0.40 -12.4 0 1 253.16 244.13 Q 254.77 260.20 256.22 275.55 Q 256.53 278.84 255.63 281.35 Q 254.20 285.31 251.75 288.50 Q 234.67 310.70 212.29 328.81 Q 187.76 348.64 158.28 359.84 Q 135.44 368.51 111.00 369.65 Q 99.37 370.20 88.93 365.49 Q 88.33 365.22 88.93 364.94 Q 112.23 354.01 133.58 339.74 Q 143.12 333.37 149.95 328.25 Q 169.01 313.96 185.19 295.44 Q 188.71 291.40 191.36 287.32 Q 193.93 283.35 195.71 278.18 Q 201.78 260.60 200.84 241.82 A 0.95 0.93 70.3 0 1 201.21 241.01 Q 212.88 232.03 221.94 220.40 Q 222.25 220.00 222.33 220.50 Z"/>
<path fill="rgb(254,254,254)" fill-opacity="1.000" d="M 597.72 225.31 Q 598.89 230.83 597.22 236.21 A 0.52 0.49 18.7 0 0 597.55 236.83 Q 598.67 237.24 599.40 238.16 A 1.38 0.91 -70.3 0 1 599.62 239.06 L 599.20 244.69 Q 599.16 245.27 598.75 244.94 L 595.08 241.93 A 0.94 0.83 35.4 0 0 593.75 242.07 Q 586.64 254.11 574.50 260.75 Q 566.80 264.96 558.64 264.52 A 0.67 0.39 0.1 0 1 558.03 264.17 Q 557.99 263.91 558.50 263.74 Q 572.72 259.08 583.40 248.65 Q 587.82 244.34 590.76 238.94 A 0.62 0.60 34.9 0 0 590.61 238.18 Q 586.86 235.08 586.25 231.50 Q 584.88 223.49 592.69 221.93 Q 596.82 221.11 597.72 225.31 Z M 590.36 228.66 Q 591.26 230.95 593.06 232.61 A 0.39 0.38 34.1 0 0 593.66 232.50 Q 596.62 226.45 590.66 228.05 A 0.46 0.45 71.7 0 0 590.36 228.66 Z"/>
<path fill="rgb(84,47,66)" fill-opacity="0.000" d="M 593.06 232.61 Q 591.26 230.95 590.36 228.66 A 0.46 0.45 71.7 0 1 590.66 228.05 Q 596.62 226.45 593.66 232.50 A 0.39 0.38 34.1 0 1 593.06 232.61 Z"/>
<path fill="rgb(254,254,254)" fill-opacity="1.000" d="M 787.03 232.70 Q 793.33 237.75 798.06 246.19 Q 801.91 253.05 799.63 259.70 Q 798.69 262.44 796.60 263.17 Q 794.08 264.05 791.38 262.14 Q 789.06 260.50 786.34 259.17 A 0.50 0.50 -65.2 0 0 785.67 259.42 Q 781.78 268.13 775.17 274.19 Q 758.19 289.76 735.58 294.43 Q 735.23 294.50 734.91 294.46 Q 732.97 294.21 734.93 293.60 Q 735.28 293.49 735.55 293.34 Q 756.12 282.62 773.34 267.10 Q 777.74 263.13 780.98 258.18 A 0.39 0.37 -66.6 0 0 780.77 257.60 L 775.67 256.39 A 0.96 0.81 -0.5 0 1 775.01 255.84 Q 772.48 249.05 776.42 241.79 A 1.50 1.50 -50.4 0 0 776.26 240.10 Q 775.14 238.75 774.84 236.95 Q 774.55 235.13 774.64 233.56 Q 774.80 230.55 778.00 230.00 Q 782.65 229.19 787.03 232.70 Z M 778.64 244.12 L 776.61 248.26 A 0.90 0.64 39.9 0 0 776.84 249.13 Q 779.51 252.03 783.44 252.62 A 0.67 0.66 -73.3 0 0 784.15 252.23 Q 786.84 246.01 781.47 243.35 Q 779.50 242.38 778.64 244.12 Z M 794.31 249.44 Q 791.04 245.73 786.75 243.31 Q 786.34 243.08 786.38 243.56 L 787.06 252.72 A 1.29 1.04 -88.8 0 0 787.96 253.88 L 795.08 255.02 Q 797.33 255.38 796.85 252.99 Q 796.47 251.10 794.31 249.44 Z"/>
<path fill="rgb(241,231,221)" fill-opacity="0.949" d="M 83.31 235.81 Q 78.68 245.72 74.37 255.77 A 0.83 0.41 -69.9 0 1 73.78 256.33 Q 73.47 256.29 73.79 255.38 Q 77.35 245.37 82.61 236.14 Q 83.41 234.74 83.31 235.81 Z"/>
<path fill="rgb(84,47,66)" fill-opacity="0.000" d="M 781.47 243.35 Q 786.84 246.01 784.15 252.23 A 0.67 0.66 -73.3 0 1 783.44 252.62 Q 779.51 252.03 776.84 249.13 A 0.90 0.64 39.9 0 1 776.61 248.26 L 778.64 244.12 Q 779.50 242.38 781.47 243.35 Z"/>
<path fill="rgb(84,47,66)" fill-opacity="0.000" d="M 786.75 243.31 Q 791.04 245.73 794.31 249.44 Q 796.47 251.10 796.85 252.99 Q 797.33 255.38 795.08 255.02 L 787.96 253.88 A 1.29 1.04 -88.8 0 1 787.06 252.72 L 786.38 243.56 Q 786.34 243.08 786.75 243.31 Z"/>
<path fill="rgb(254,254,254)" fill-opacity="1.000" d="M 318.15 247.59 Q 320.92 250.59 317.12 254.22 A 0.80 0.79 -35.2 0 1 315.86 254.01 Q 314.20 250.75 311.74 250.31 A 1.48 1.25 -51.6 0 0 310.81 250.50 Q 306.73 252.85 305.50 257.25 Q 302.87 266.65 302.29 277.46 Q 302.24 278.44 301.77 278.87 Q 301.21 279.38 300.26 279.54 A 0.44 0.44 -4.5 0 1 299.75 279.11 Q 299.75 269.26 294.37 261.72 Q 293.43 260.40 291.81 260.26 Q 287.55 259.88 285.86 256.10 Q 284.46 252.95 284.44 249.50 Q 284.44 247.40 286.06 247.48 Q 287.68 247.56 288.93 248.60 Q 297.17 255.45 300.82 265.20 Q 301.28 266.43 301.49 265.13 Q 302.74 257.42 305.67 249.86 Q 309.98 238.74 318.15 247.59 Z"/>
<path fill="rgb(120,133,123)" fill-opacity="0.933" d="M 72.46 261.00 L 72.00 260.96 Q 74.18 255.20 72.46 261.00 Z"/>
<path fill="rgb(84,47,66)" fill-opacity="0.000" d="M 683.39 267.44 Q 691.28 276.36 698.31 288.94 Q 701.61 294.83 698.40 298.69 Q 697.26 300.06 691.55 303.74 Q 679.70 311.37 665.49 313.21 Q 662.86 313.55 660.46 312.80 Q 657.65 311.92 656.73 309.82 Q 655.70 307.47 657.19 304.44 Q 662.30 294.02 667.80 286.34 Q 674.81 276.53 682.73 267.44 A 0.44 0.44 45.0 0 1 683.39 267.44 Z"/>
<path fill="rgb(254,254,254)" fill-opacity="1.000" d="M 26.90 275.67 Q 19.66 288.34 17.50 301.75 Q 16.93 305.25 18.76 307.84 Q 20.47 310.28 23.71 310.44 Q 29.35 310.72 31.60 304.66 Q 31.78 304.19 32.07 303.97 Q 33.04 303.23 32.83 304.98 Q 32.25 309.93 30.40 314.56 Q 28.87 318.37 24.39 322.31 Q 23.02 323.51 21.20 323.49 Q 12.38 323.38 10.92 316.03 Q 10.15 312.16 11.93 305.07 Q 15.97 288.93 25.86 275.34 Q 26.07 275.05 26.35 274.86 Q 28.02 273.72 26.90 275.67 Z"/>
<path fill="rgb(254,254,254)" fill-opacity="1.000" d="M 602.69 338.94 Q 599.17 344.43 596.78 350.51 Q 595.25 354.43 595.75 359.00 Q 596.18 362.95 599.60 364.27 A 0.91 0.89 -52.3 0 0 600.48 364.15 Q 601.80 363.17 602.39 361.58 A 0.78 0.54 -81.7 0 1 602.82 361.12 Q 603.27 360.99 603.08 361.55 Q 603.00 361.78 602.99 361.96 Q 602.78 366.42 600.10 370.38 Q 598.64 372.52 596.42 371.20 Q 591.84 368.49 592.28 362.48 Q 593.23 349.20 601.78 339.12 Q 601.79 339.11 602.04 338.70 Q 602.19 338.44 602.49 338.45 Q 603.00 338.45 602.69 338.94 Z"/>
<path fill="rgb(254,254,254)" fill-opacity="1.000" d="M 416.85 343.92 Q 417.55 346.08 417.49 348.54 A 3.76 2.93 -31.5 0 1 416.74 350.54 L 413.40 354.96 A 3.37 2.75 -67.1 0 1 410.88 356.29 Q 405.98 356.14 402.86 357.66 Q 399.91 359.10 400.05 362.50 Q 400.19 365.92 401.02 369.24 Q 402.78 376.22 403.85 383.33 Q 404.82 389.82 403.35 395.55 Q 402.85 397.52 402.50 395.52 Q 401.70 390.85 400.32 386.35 Q 396.87 375.07 395.96 363.36 Q 395.65 359.44 396.88 356.84 Q 400.20 349.81 409.29 348.30 Q 410.43 348.11 409.54 347.37 Q 405.64 344.16 402.62 348.72 Q 401.41 350.55 401.50 348.36 Q 401.61 345.39 402.95 343.00 Q 404.33 340.56 406.93 339.51 Q 410.78 337.95 414.20 340.32 Q 416.10 341.64 416.85 343.92 Z"/>
<path fill="rgb(254,254,254)" fill-opacity="1.000" d="M 554.50 343.75 Q 559.98 344.04 563.53 346.52 A 1.04 0.93 18.7 0 1 563.97 347.30 Q 564.00 349.87 561.19 351.69 Q 552.01 357.61 544.05 365.05 Q 540.81 368.08 542.96 370.41 Q 544.20 371.75 546.95 372.22 Q 554.22 373.45 562.56 370.81 Q 570.09 368.44 576.19 363.44 Q 578.18 362.63 576.19 364.69 Q 569.44 371.67 563.15 376.02 Q 557.73 379.76 553.19 380.67 Q 547.19 381.86 541.81 379.19 Q 537.48 377.04 536.80 372.39 Q 536.30 368.92 538.60 365.18 Q 542.09 359.53 547.94 355.94 Q 548.48 355.60 554.54 351.11 Q 554.94 350.81 554.45 350.77 Q 547.40 350.15 545.06 350.81 Q 542.25 351.61 540.46 353.42 Q 539.70 354.18 539.59 353.11 Q 539.20 349.35 540.90 347.12 Q 542.29 345.30 545.77 344.44 Q 549.61 343.49 554.50 343.75 Z"/>
<path fill="rgb(254,254,254)" fill-opacity="1.000" d="M 727.70 351.76 Q 735.54 357.28 739.99 364.92 Q 747.58 377.93 743.58 392.57 Q 743.18 394.03 742.32 395.04 Q 741.50 395.99 741.71 394.75 Q 745.36 372.74 727.00 361.70 A 0.89 0.84 17.4 0 1 726.57 360.93 L 727.04 352.07 Q 727.08 351.32 727.70 351.76 Z"/>
<path fill="rgb(254,254,254)" fill-opacity="1.000" d="M 864.42 356.98 Q 863.23 361.84 860.34 364.85 Q 858.63 366.62 853.08 369.30 Q 822.65 383.96 792.59 398.49 Q 791.42 399.06 791.98 397.89 L 795.60 390.36 A 2.02 1.88 -1.5 0 1 796.51 389.47 L 863.92 356.57 Q 864.60 356.24 864.42 356.98 Z"/>
</svg>